<svg width="42" height="42" viewBox="0 0 42 42" fill="none" xmlns="http://www.w3.org/2000/svg">
<path d="M10.0909 28.2717H39.1818C39.664 28.2717 40.1265 28.0801 40.4675 27.7392C40.8084 27.3982 41 26.9357 41 26.4536V2.81811C41 2.33592 40.8084 1.87347 40.4675 1.53251C40.1265 1.19155 39.664 1 39.1818 1H13.7273C13.2451 1 12.7826 1.19155 12.4416 1.53251C12.1006 1.87347 11.9091 2.33592 11.9091 2.81811V4.63622M10.0909 28.2717L15.5455 22.8189M10.0909 28.2717L15.5455 33.7276M31.9091 13.7283H2.81818C2.33597 13.7283 1.87351 13.9199 1.53253 14.2608C1.19156 14.6018 1 15.0642 1 15.5464V39.1819C1 39.6641 1.19156 40.1265 1.53253 40.4675C1.87351 40.8085 2.33597 41 2.81818 41H28.2727C28.7549 41 29.2174 40.8085 29.5584 40.4675C29.8994 40.1265 30.0909 39.6641 30.0909 39.1819V37.3638M31.9091 13.7283L26.4545 19.1811M31.9091 13.7283L26.4545 8.27244" stroke="#3498DB" stroke-width="2" stroke-linecap="round" stroke-linejoin="round"/>
</svg>
