<svg width="26" height="26" viewBox="0 0 26 26" fill="none" xmlns="http://www.w3.org/2000/svg">
<path d="M22.0145 16.5842C24.2521 16.3891 26 14.8562 26 12.9999C26 11.1436 24.2521 9.61064 22.0145 9.41559C21.147 7.23602 19.5062 5.4329 17.4154 4.36238C17.3596 1.97654 15.4151 0 13 0C10.5867 0 8.64043 1.97436 8.58462 4.36244C6.49375 5.43295 4.85296 7.23613 3.98552 9.41564C1.74789 9.61064 0 11.1436 0 12.9999C0 14.8564 1.74814 16.3894 3.98597 16.5842C4.70742 18.3925 5.97645 19.9587 7.589 21.0485C6.27997 22.0778 5.30628 23.4471 4.7971 25.0009C4.66609 25.4007 4.88399 25.8309 5.28374 25.9619C5.68349 26.0929 6.11376 25.875 6.24477 25.4753C6.72557 24.0081 7.71916 22.7391 9.06202 21.8653C11.6557 23.0213 14.5921 22.9523 17.0776 21.8013C18.4718 22.6762 19.501 23.9679 19.9949 25.4753C20.1259 25.8751 20.556 26.0929 20.9559 25.9619C21.3557 25.8309 21.5736 25.4007 21.4426 25.0009C20.9178 23.3993 19.9052 21.9996 18.5401 20.9622C20.0468 19.9134 21.291 18.4068 22.0145 16.5842ZM24.4766 12.9999C24.4766 13.8897 23.6378 14.6703 22.5005 14.9609C22.7652 13.673 22.7658 12.3296 22.5005 11.039C23.6378 11.3295 24.4766 12.1101 24.4766 12.9999ZM13 1.52343C14.4662 1.52343 15.6812 2.63832 15.8692 4.07877C14.0476 4.23533 12.5386 5.49419 12.0222 7.19499C10.8933 6.79352 10.1055 5.71905 10.1055 4.46867C10.1055 2.8447 11.4039 1.52343 13 1.52343ZM1.52344 12.9999C1.52344 12.1101 2.36219 11.3295 3.49954 11.0389C3.23477 12.3268 3.23421 13.6703 3.49954 14.9609C2.36219 14.6703 1.52344 13.8897 1.52344 12.9999ZM16.7617 20.261C12.3793 22.5371 6.9257 20.4564 5.24423 15.593C4.02274 11.9387 5.52363 7.92487 8.84 5.96097C9.39595 7.51898 10.8001 8.67947 12.5331 8.86188C12.9527 8.90601 13.3278 8.60071 13.3707 8.18177C13.5293 6.62869 14.8863 5.47571 16.469 5.59519C20.192 7.3418 22.0806 11.6293 20.7557 15.593C20.0193 17.7279 18.5411 19.3372 16.7617 20.261Z" fill="black"/>
<path d="M11.13 12.1023C11.4275 11.8048 11.4275 11.3225 11.13 11.025C10.0385 9.93355 8.27177 9.9334 7.18012 11.025C6.88264 11.3225 6.88264 11.8048 7.18012 12.1023C7.47754 12.3997 7.95987 12.3997 8.25735 12.1023C8.75353 11.6061 9.55654 11.6061 10.0527 12.1023C10.3502 12.3997 10.8325 12.3997 11.13 12.1023Z" fill="black"/>
<path d="M18.8488 11.025C17.7573 9.9335 15.9905 9.93335 14.8989 11.025C14.6014 11.3225 14.6014 11.8047 14.8989 12.1022C15.1963 12.3997 15.6786 12.3997 15.9761 12.1022C16.4723 11.6061 17.2753 11.606 17.7715 12.1022C18.0689 12.3996 18.5512 12.3997 18.8487 12.1022C19.1462 11.8048 19.1462 11.3225 18.8488 11.025Z" fill="black"/>
<path d="M14.4723 16.1175C13.6605 16.9293 12.3396 16.9293 11.5278 16.1175C11.2304 15.8201 10.7481 15.82 10.4506 16.1175C10.1532 16.415 10.1532 16.8973 10.4506 17.1947C11.8564 18.6005 14.1437 18.6005 15.5495 17.1947C15.847 16.8973 15.847 16.415 15.5495 16.1175C15.252 15.8201 14.7698 15.8201 14.4723 16.1175Z" fill="black"/>
</svg>
