<svg width="40" height="69" viewBox="0 0 40 69" fill="none" xmlns="http://www.w3.org/2000/svg">
<path fill-rule="evenodd" clip-rule="evenodd" d="M36.0801 36.7181C38.1257 37.3318 39.5 39.1789 39.5 41.3146V53.5054C39.5 54.0879 39.0278 54.5601 38.4453 54.5601H38.252V67.2339C38.252 67.8164 37.7797 68.2886 37.1973 68.2886C36.6148 68.2886 36.1426 67.8164 36.1426 67.2339V54.5601H32.0117V67.2339C32.0117 67.8164 31.5395 68.2886 30.957 68.2886C30.3746 68.2886 29.9023 67.8164 29.9023 67.2339V47.2652C29.9023 47.0659 29.9766 46.8677 30.0137 46.7935L32.5098 41.8013L34.3964 42.7446L32.0117 47.5142V52.4507H37.3906V41.3146C37.3906 40.1177 36.6203 39.0825 35.4739 38.7385L31.735 37.5687C31.1435 40.083 29.7644 42.3662 27.7875 44.0678C25.5615 45.9838 22.7161 47.0389 19.7755 47.0389C14.0562 47.0389 9.10111 43.0405 7.81355 37.5695L4.02609 38.7058C2.87972 39.0497 2.10938 40.085 2.10938 41.2819V52.418H7.48828V47.4815L5.10356 42.7119C4.84298 42.1909 5.0542 41.5574 5.57522 41.2969C6.09637 41.0363 6.72975 41.2476 6.99019 41.7686L9.48628 46.7608C9.55955 46.9071 9.59766 47.0686 9.59766 47.2324V67.2012C9.59766 67.7836 9.12544 68.2558 8.54297 68.2558C7.9605 68.2558 7.48828 67.7836 7.48828 67.2012V54.5273H3.35742V67.2012C3.35742 67.7836 2.8852 68.2558 2.30273 68.2558C1.72027 68.2558 1.24805 67.7836 1.24805 67.2012V54.5273H1.05469C0.472219 54.5273 0 54.0551 0 53.4726V41.2819C0 39.1462 1.37433 37.2991 3.41986 36.6854L12.4805 33.9673V30.9009C9.68259 28.8292 7.78992 25.6016 7.52119 21.9284C6.05981 21.4885 4.99219 20.1302 4.99219 18.5273C4.99219 17.4897 5.4585 16.5064 6.24023 15.8379V9.79101C6.24023 4.39214 10.6324 0 16.0312 0H26.0156C28.2123 0 30.0826 1.46602 30.6377 3.5512C32.2978 4.67226 33.3107 6.543 33.3107 8.54297V15.8379C34.0924 16.5064 34.5587 17.4898 34.5587 18.5273C34.5587 20.1302 33.4911 21.4885 32.0297 21.9284C31.761 25.6016 29.8682 28.8292 27.0705 30.9009L27.0195 34L32.4491 35.5L36.0801 36.7181ZM8.54297 19.9687C9.12544 19.9687 9.59766 20.441 9.59766 21.0234C9.59766 26.6354 14.1632 31.2012 19.7752 31.2012C25.3873 31.2012 29.953 26.6355 29.953 21.0234C29.953 20.441 30.4252 19.9687 31.0077 19.9687C31.8025 19.9687 32.4491 19.3222 32.4491 18.5273C32.4491 18.0157 32.1785 17.5528 31.7253 17.289C31.4007 17.1001 31.201 16.7529 31.201 16.3775V8.54297C31.201 7.13981 30.4276 5.832 29.1824 5.12972C28.9021 4.97166 28.7093 4.6942 28.6588 4.37639C28.4503 3.06281 27.3386 2.10937 26.0156 2.10937H16.0312C11.7956 2.10937 8.34961 5.55539 8.34961 9.79101V14.9829C8.41402 14.9794 8.47842 14.9766 8.54297 14.9766H10.1395C10.223 14.9766 10.2966 14.9234 10.323 14.8444L11.2866 11.9535C11.43 11.523 11.833 11.2326 12.287 11.2324C12.3844 11.2324 22.0823 11.2025 26.792 8.8477C27.3132 8.58712 27.9465 8.79834 28.207 9.31936C28.4676 9.84037 28.2563 10.4739 27.7353 10.7343C23.3445 12.9299 15.5302 13.277 13.0507 13.3317L12.3241 15.5114C12.0102 16.4531 11.1323 17.0859 10.1395 17.0859H8.54297C8.3153 17.0859 8.09269 17.1422 7.89202 17.2441L7.87423 17.2566C7.8583 17.2678 7.84239 17.279 7.82536 17.289C7.37213 17.5528 7.10156 18.0157 7.10156 18.5273C7.10156 19.3222 7.74816 19.9687 8.54297 19.9687ZM24.9609 34.7519V32.1599C23.3844 32.8971 21.6276 33.3105 19.7754 33.3105C17.9232 33.3105 16.1664 32.897 14.5898 32.1599V34.7504L14.5901 34.7654C14.5976 37.6186 16.9206 39.9375 19.7754 39.9375C22.6347 39.9375 24.9609 37.6113 24.9609 34.7519ZM19.7754 44.9297C22.2112 44.9297 24.5679 44.0558 26.4112 42.4692C28.0823 41.031 29.2376 39.0923 29.7103 36.9616L26.938 36.1298C26.2918 39.4955 23.3267 42.0469 19.7754 42.0469C16.2242 42.0469 13.259 39.4955 12.6128 36.1299L9.84037 36.9616C10.8596 41.5565 14.9941 44.9297 19.7754 44.9297Z" fill="white"/>
<path d="M22.9357 23.8207C22.4833 23.4537 21.8191 23.523 21.4522 23.9754C21.0036 24.5286 20.4081 24.8332 19.7752 24.8332C19.1424 24.8332 18.5469 24.5286 18.0983 23.9754C17.7315 23.523 17.0672 23.4538 16.6148 23.8207C16.1625 24.1876 16.0933 24.8518 16.4602 25.3042C17.3045 26.3452 18.5127 26.9425 19.7751 26.9425C21.0375 26.9425 22.2458 26.3452 23.0903 25.3042C23.4572 24.8516 23.388 24.1876 22.9357 23.8207Z" fill="white"/>
<path d="M14.7832 17.3447C14.2007 17.3447 13.7285 17.8169 13.7285 18.3993V19.6474C13.7285 20.2299 14.2007 20.7021 14.7832 20.7021C15.3657 20.7021 15.8379 20.2299 15.8379 19.6474V18.3993C15.8379 17.817 15.3657 17.3447 14.7832 17.3447Z" fill="white"/>
<path d="M24.7676 17.3447C24.1851 17.3447 23.7129 17.8169 23.7129 18.3993V19.6474C23.7129 20.2299 24.1851 20.7021 24.7676 20.7021C25.35 20.7021 25.8223 20.2299 25.8223 19.6474V18.3993C25.8223 17.817 25.35 17.3447 24.7676 17.3447Z" fill="white"/>
</svg>
