<svg width="81" height="61" viewBox="0 0 81 61" fill="none" xmlns="http://www.w3.org/2000/svg">
<path d="M58.3534 37.4535C60.5002 37.4535 62.2466 35.7069 62.2466 33.5603C62.2466 32.9048 61.7154 32.3738 61.0601 32.3738C60.4048 32.3738 59.8736 32.9048 59.8736 33.5603C59.8736 34.3986 59.1916 35.0805 58.3534 35.0805C57.5152 35.0805 56.8332 34.3984 56.8332 33.5603C56.8332 32.9048 56.302 32.3738 55.6467 32.3738C54.9914 32.3738 54.4602 32.9048 54.4602 33.5603C54.46 35.7069 56.2066 37.4535 58.3534 37.4535Z" fill="#424242"/>
<path d="M64.5747 30.7979C65.23 30.7979 65.7612 30.2668 65.7612 29.6114V28.3715C66.3471 28.2989 66.8006 27.7995 66.8006 27.194C66.8006 26.5386 66.2694 26.0075 65.6141 26.0075H64.5747C63.9194 26.0075 63.3882 26.5386 63.3882 27.194V29.6114C63.3882 30.2668 63.9194 30.7979 64.5747 30.7979Z" fill="#424242"/>
<path d="M50.9459 28.3717V29.6115C50.9459 30.267 51.4771 30.7981 52.1324 30.7981C52.7877 30.7981 53.3189 30.267 53.3189 29.6115V27.1942C53.3189 26.5387 52.7877 26.0077 52.1324 26.0077H51.093C50.4377 26.0077 49.9065 26.5387 49.9065 27.1942C49.9065 27.7995 50.36 28.2991 50.9459 28.3717Z" fill="#424242"/>
<path d="M76.087 29.8246C76.4238 29.1119 76.6132 28.3165 76.6132 27.4774C76.6132 26.0809 76.0903 24.8048 75.2314 23.8322C75.3678 23.639 75.4485 23.404 75.4485 23.1494C75.4485 19.6449 75.6235 17.5666 74.5692 14.5522C74.3528 13.9336 73.676 13.6069 73.0574 13.8238C72.4388 14.0401 72.1128 14.717 72.329 15.3356C73.1908 17.799 73.0753 19.5077 73.0753 21.9629C71.5619 21.9629 67.4849 21.9629 65.766 21.9629C62.333 21.9629 59.5399 19.17 59.5397 15.737C59.5397 15.0815 59.0085 14.5504 58.3532 14.5504C57.6979 14.5504 57.1667 15.0815 57.1667 15.737C57.1667 19.17 54.3736 21.9629 50.9405 21.9629H43.6312V19.7525C43.6312 12.3786 49.6302 6.37956 57.0041 6.37956C57.0938 6.37956 57.1667 6.45249 57.1667 6.54219C57.1667 7.19747 57.6979 7.72856 58.3532 7.72856C59.0085 7.72856 59.5397 7.19747 59.5397 6.54219C59.5397 6.45249 59.6127 6.37956 59.7024 6.37956C63.5681 6.37972 67.2433 8.05224 69.7859 10.9682C70.2166 11.4623 70.9661 11.5133 71.46 11.0829C71.9539 10.6522 72.0052 9.90274 71.5746 9.40883C68.5812 5.97583 64.254 4.00683 59.7025 4.00667C59.207 4.00667 58.7443 4.14953 58.3534 4.39617C57.9625 4.14953 57.4997 4.00667 57.0042 4.00667C48.3219 4.00667 41.2583 11.0703 41.2583 19.7526V23.1496C41.2583 23.404 41.3391 23.6392 41.4753 23.8324C41.077 24.2834 40.7508 24.7993 40.516 25.3628C40.3734 23.6131 39.4907 22.0765 38.1727 21.0713V16.5509C38.1727 7.65104 30.9322 0.410558 22.0323 0.410558C19.8225 0.410558 20.708 0.37243 17.6515 0.611317C13.4354 0.940379 9.66241 3.19651 7.37844 6.70641L3.80526 5.56434C3.06487 5.32704 2.29616 5.85765 2.25882 6.63791C2.2419 6.99545 1.88388 14.9414 3.33271 20.4758C1.35881 21.4658 0 23.5081 0 25.8629C0 28.9184 2.28698 31.45 5.23921 31.8357C5.98229 35.0238 7.73771 37.9178 10.2489 40.0642C10.9073 40.6269 11.6099 41.1278 12.3455 41.5679H9.84878C5.74641 41.5679 2.40896 44.9055 2.40896 49.0077V59.4053C2.40896 60.0607 2.94021 60.5918 3.59548 60.5918H5.56654C6.22181 60.5918 6.75306 60.0607 6.75306 59.4053C6.75306 58.7499 6.22181 58.2188 5.56654 58.2188H4.78201V49.0077C4.78201 46.2138 7.05491 43.9409 9.84878 43.9409H13.3005C13.8901 47.4394 17.0541 50.0699 20.7506 49.8313C24.0967 49.6157 26.7479 47.098 27.2805 43.9409H30.7327C33.5266 43.9409 35.7996 46.2138 35.7996 49.0077V58.2188H11.1038C10.4485 58.2188 9.91728 58.7499 9.91728 59.4053C9.91728 60.0607 10.4485 60.5918 11.1038 60.5918H36.9863C37.6416 60.5918 38.1728 60.0607 38.1728 59.4053V49.0077C38.1728 48.0197 37.9776 47.0768 37.6264 46.2135H39.5327C40.7264 46.2135 41.8648 45.9751 42.9053 45.5457C42.1733 46.6777 41.7465 48.0246 41.7465 49.47V59.4053C41.7465 60.0607 42.2777 60.5918 42.933 60.5918H73.8538C74.5091 60.5918 75.0403 60.0607 75.0403 59.4053V49.47C75.0403 48.0425 74.6239 46.7111 73.9085 45.5878C74.9201 45.99 76.0214 46.2135 77.1747 46.2135H79.8135C80.4688 46.2135 81 45.6824 81 45.027V37.7601C81 34.3799 79.041 31.3067 76.087 29.8246ZM50.9408 24.3361C54.0944 24.3361 56.8569 22.63 58.3535 20.092C59.8503 22.63 62.6127 24.3361 65.7663 24.3361H71.0989C72.831 24.3361 74.2401 25.7452 74.2401 27.4774C74.2401 28.3244 73.9017 29.0926 73.355 29.658C72.7302 30.3035 71.8639 30.6514 70.9729 30.6152C70.3729 30.5875 69.8513 31.0142 69.7525 31.6049C68.8498 37.0017 64.1813 41.242 58.3535 41.242C54.2361 41.242 50.3901 39.0653 48.3206 35.4453C48.3013 35.3964 48.2792 35.3484 48.2534 35.3023C47.7702 34.4356 47.4038 33.5201 47.1592 32.5702C47.1543 32.5513 47.1504 32.532 47.1456 32.513C47.0782 32.2453 47.0142 31.9613 46.9545 31.6047C46.856 31.0154 46.3322 30.5878 45.7341 30.615C43.9585 30.6871 42.4669 29.2546 42.4669 27.4771C42.4669 25.7449 43.8762 24.3358 45.6082 24.3358C45.6514 24.3358 45.6944 24.3377 45.7373 24.3393C45.7879 24.3413 45.8378 24.34 45.8871 24.3358L50.9408 24.3361ZM58.373 48.6062C56.1154 48.6062 54.2787 46.7694 54.2787 44.5117V43.0083C55.6253 43.4216 57.0316 43.6154 58.3534 43.6154C59.7185 43.6154 61.1401 43.4081 62.4671 42.9965V44.5119C62.4671 46.699 60.7434 48.4912 58.5832 48.601C58.5136 48.6044 58.4436 48.6062 58.373 48.6062ZM48.9942 42.2206C48.9939 42.2206 48.9933 42.2206 48.9928 42.2206C48.1795 42.221 47.398 42.358 46.6675 42.6063C47.4008 41.615 47.9319 40.4662 48.2015 39.2206C48.5495 39.5913 48.9175 39.9455 49.307 40.2784C50.1089 40.9637 50.9818 41.55 51.9057 42.0322V42.2206H48.9942ZM64.8403 42.0128C66.1835 41.3064 67.4124 40.3848 68.5054 39.2208C68.7718 40.4514 69.2941 41.5875 70.0141 42.5707C68.6594 42.1331 67.9525 42.2206 64.8405 42.2206L64.8403 42.0128ZM4.59042 8.30647L7.55024 9.25237C8.08956 9.42434 8.67586 9.19194 8.94987 8.69613C10.7678 5.4074 14.0899 3.26929 17.8363 2.97709C20.8192 2.74421 19.9148 2.78345 22.0323 2.78345C29.6235 2.78345 35.7996 8.95938 35.7996 16.5508V19.9782C34.7628 19.755 35.0907 19.8439 18.8179 19.8439C17.6349 19.8439 16.5017 19.581 15.4806 19.1062C13.2343 18.0618 11.5308 15.992 11.0318 13.4414C10.8412 12.4669 9.64169 12.1737 9.00097 12.8586C7.28937 14.6884 6.09272 16.8559 5.44298 19.1054C4.62712 15.4149 4.56115 10.7053 4.59042 8.30647ZM7.39078 30.4994C7.29475 29.9256 6.79815 29.5085 6.22102 29.5085C6.20504 29.5085 6.18891 29.5089 6.17277 29.5095C6.12325 29.5115 6.07373 29.5134 6.02374 29.5134C4.01077 29.5134 2.37305 27.8759 2.37305 25.8629C2.37305 23.8838 3.95065 22.284 5.89117 22.2155C5.89591 22.2154 5.90082 22.2154 5.90556 22.2152C5.99384 22.2125 6.08212 22.2125 6.16992 22.2162C6.17182 22.2162 6.17372 22.2162 6.17562 22.2163C6.17926 22.2165 6.18289 22.216 6.18653 22.2162C6.77837 22.2345 7.29285 21.8116 7.39078 21.2264C7.65861 19.625 8.22103 18.1015 9.0459 16.7204C9.16376 16.5231 9.287 16.3286 9.41546 16.1374C11.0487 19.7648 14.7006 22.2171 18.8179 22.2171H34.6849C35.2609 22.2437 35.8616 22.4176 36.3788 22.7256C36.388 22.7311 36.3978 22.7348 36.4071 22.74C37.4642 23.3793 38.1648 24.5373 38.1648 25.8627C38.1648 27.8757 36.527 29.5133 34.5141 29.5133C34.4641 29.5133 34.4144 29.5112 34.3649 29.5093C33.768 29.488 33.2456 29.9096 33.1469 30.4992C32.0716 36.9292 26.5386 41.3869 20.2688 41.3869C13.9508 41.3871 8.45849 36.8835 7.39078 30.4994ZM20.0527 47.4687C17.7309 47.3526 15.8379 45.5465 15.6003 43.2434C15.5985 43.2262 15.5976 43.2086 15.596 43.1912C15.5912 43.14 15.5873 43.0884 15.5843 43.0366C17.1468 43.5353 18.7762 43.76 20.2691 43.76C21.7903 43.76 23.4327 43.5274 24.9991 43.0219C24.8556 45.606 22.6403 47.598 20.0527 47.4687ZM30.7329 41.5679H28.1926C28.9282 41.1278 29.6308 40.6269 30.2893 40.0642C32.8003 37.918 34.5558 35.024 35.2988 31.8357C37.5043 31.5476 39.3382 30.0616 40.1247 28.0543C40.1902 28.6815 40.3613 29.2776 40.6198 29.8246C37.6658 31.3067 35.7068 34.3798 35.7068 37.7601V43.4806C34.388 42.2925 32.6436 41.5679 30.7329 41.5679ZM38.08 43.8405V37.7601C38.08 35.1198 39.711 32.734 42.1178 31.746C42.906 32.3896 43.855 32.7939 44.8039 32.9333C45.0779 34.0779 45.5093 35.1959 46.0303 36.1814V37.3423C46.0303 40.9253 43.1154 43.8403 39.5324 43.8403L38.08 43.8405ZM72.6671 58.2188H44.1194V49.47C44.1194 46.7812 46.307 44.5937 48.9958 44.5937H51.9063C51.95 48.0974 54.8144 50.9792 58.373 50.9792C61.891 50.9792 64.7954 48.1417 64.8399 44.5937H67.7907C70.4795 44.5937 72.667 46.7812 72.667 49.47L72.6671 58.2188ZM78.627 43.8405H77.1743C73.5913 43.8405 70.6765 40.9254 70.6765 37.3424V36.1815C71.2052 35.1814 71.6323 34.0635 71.9028 32.9335C72.7943 32.8026 73.6932 32.4404 74.4751 31.833C74.5129 31.8037 74.552 31.7765 74.589 31.7463C76.9959 32.7341 78.627 35.1198 78.627 37.7601V43.8405Z" fill="#424242"/>
<path d="M20.2689 36.8939C22.5913 36.8939 24.4807 35.0045 24.4807 32.6821C24.4807 32.0267 23.9495 31.4956 23.2942 31.4956C22.6389 31.4956 22.1077 32.0267 22.1077 32.6821C22.1077 33.696 21.2828 34.5209 20.2689 34.5209C19.2549 34.5209 18.4299 33.696 18.4299 32.6821C18.4299 32.0267 17.8987 31.4956 17.2434 31.4956C16.5881 31.4956 16.0569 32.0267 16.0569 32.6821C16.057 35.0044 17.9464 36.8939 20.2689 36.8939Z" fill="#424242"/>
<path d="M13.3157 24.4193C12.6604 24.4193 12.1292 24.9504 12.1292 25.6058V28.2292C12.1292 28.8846 12.6604 29.4157 13.3157 29.4157C13.971 29.4157 14.5022 28.8846 14.5022 28.2292V25.6058C14.5022 24.9506 13.971 24.4193 13.3157 24.4193Z" fill="#424242"/>
<path d="M27.222 29.4157C27.8773 29.4157 28.4086 28.8846 28.4086 28.2292V25.6058C28.4086 24.9504 27.8773 24.4193 27.222 24.4193C26.5668 24.4193 26.0355 24.9504 26.0355 25.6058V28.2292C26.0355 28.8846 26.5668 29.4157 27.222 29.4157Z" fill="#424242"/>
</svg>
