<svg width="18" height="18" viewBox="0 0 18 18" fill="none" xmlns="http://www.w3.org/2000/svg">
<path d="M4.67582 9.72355C5.06415 9.72355 5.37895 9.40922 5.37895 9.02148C5.37895 8.63374 5.06415 8.31941 4.67582 8.31941C4.28749 8.31941 3.97269 8.63374 3.97269 9.02148C3.97269 9.40922 4.28749 9.72355 4.67582 9.72355Z" fill="black"/>
<path d="M17.4953 6.54804C17.2339 6.2613 16.7893 6.24039 16.502 6.50138C16.2148 6.76238 16.1939 7.20641 16.4553 7.49314C16.5485 7.59541 16.5938 7.747 16.5938 7.95667C16.5938 8.32156 16.4538 8.44787 16.3169 8.52335C16.1605 8.60952 15.9712 8.63325 15.9081 8.63533H15.4315C15.1483 7.30769 14.4474 6.20231 13.3638 5.39228C12.871 5.02398 12.3073 4.72259 11.6836 4.49126C11.9492 4.03786 12.0938 3.51726 12.0938 2.98373C12.0938 1.3385 10.7533 0 9.10552 0C7.45779 0 6.11722 1.3385 6.11722 2.98377C6.11722 3.1592 6.13275 3.33333 6.1631 3.50426C5.36564 2.82915 4.37893 2.45903 3.2573 2.42254C3.00379 2.41459 2.76581 2.54281 2.63395 2.75895C2.50209 2.97509 2.49692 3.24533 2.62043 3.46636C2.62596 3.4762 3.11843 4.36671 3.30501 5.42775C2.59518 6.08507 2.26003 6.82605 2.0069 7.3856C1.9123 7.59481 1.78551 7.87514 1.70389 7.96845H0.703133C0.314808 7.96845 0 8.28274 0 8.67052V11.4788C0 11.8665 0.314773 12.1808 0.703133 12.1808H1.4375C1.82769 13.0896 2.44336 13.8871 3.24804 14.5264L3.01488 15.091C2.80014 15.6111 2.80105 16.1836 3.01756 16.703C3.23406 17.2225 3.64013 17.6266 4.16102 17.841C4.42323 17.9489 4.69483 18 4.96228 18C5.79164 17.9999 6.57995 17.5084 6.91514 16.6966L7.16728 16.0859C7.51916 16.1268 7.87735 16.1474 8.23771 16.1474H8.28578C8.85335 16.1474 9.40421 16.1077 9.9303 16.0289L10.206 16.6966C10.6493 17.7702 11.8847 18.2836 12.9601 17.841C13.481 17.6266 13.8871 17.2225 14.1035 16.703C14.32 16.1836 14.321 15.6112 14.1062 15.091L13.5956 13.8545C13.4476 13.496 13.0367 13.3252 12.6776 13.473C12.3186 13.6208 12.1475 14.0312 12.2955 14.3897L12.8061 15.6262C12.8777 15.7995 12.8773 15.9904 12.8052 16.1636C12.733 16.3367 12.5977 16.4714 12.424 16.5429C12.0655 16.6904 11.6538 16.5193 11.506 16.1614L11.014 14.9699C10.8846 14.6564 10.5493 14.4802 10.2173 14.5508C9.61736 14.6786 8.96743 14.7433 8.28563 14.7433H8.23757C7.76612 14.7433 7.30037 14.7019 6.85314 14.6202C6.52678 14.5607 6.20303 14.7369 6.07656 15.0433L5.61489 16.1614C5.46708 16.5193 5.05527 16.6904 4.69684 16.5429C4.52319 16.4714 4.38784 16.3367 4.31566 16.1636C4.24348 15.9904 4.24316 15.7996 4.31478 15.6262L4.7586 14.5514C4.88669 14.2411 4.77701 13.8838 4.49688 13.6985C3.57334 13.0876 2.91422 12.2443 2.59078 11.2599C2.49618 10.9716 2.22668 10.7767 1.92282 10.7767H1.40627V9.37258H1.73403C2.65113 9.37258 3.00449 8.59131 3.28846 7.96356C3.54084 7.4056 3.82688 6.77321 4.48213 6.27118C4.67525 6.12318 4.778 5.88605 4.7537 5.64421C4.69592 5.06898 4.55347 4.52132 4.39809 4.06187C4.95901 4.28419 5.43529 4.66145 5.82125 5.19073C5.97889 5.40694 6.24581 5.51497 6.5097 5.46924C7.02158 5.38068 7.60296 5.33575 8.23764 5.33575H8.28571C9.6656 5.33575 14.1679 5.67494 14.1679 10.0396C14.1679 10.4322 14.1301 10.808 14.0554 11.1565C13.9743 11.5357 14.2163 11.9088 14.5961 11.9898C14.9755 12.0706 15.3494 11.8292 15.4306 11.45C15.5259 11.0052 15.5742 10.5306 15.5742 10.0395H15.914C15.9995 10.0395 16.4495 10.0276 16.9199 9.79284C17.6164 9.44515 18 8.79307 18 7.95678C18.0001 7.39744 17.8255 6.91036 17.4953 6.54804ZM10.2269 4.09801C9.61655 3.98772 8.96719 3.93154 8.28581 3.93154H8.23775C8.10459 3.93154 7.97326 3.93337 7.84386 3.93696C7.63669 3.66376 7.52349 3.32851 7.52349 2.98377C7.52349 2.11274 8.23317 1.40414 9.10552 1.40414C9.97787 1.40414 10.6876 2.11274 10.6876 2.98377C10.6876 3.4073 10.5245 3.80027 10.2269 4.09801Z" fill="black"/>
</svg>
