<svg width="18" height="16" viewBox="0 0 18 16" fill="none" xmlns="http://www.w3.org/2000/svg">
<path d="M9.46198 14.8117L15.7151 8.30032C17.2515 6.70041 17.4782 4.06831 16.0242 2.38693C15.66 1.96455 15.217 1.62387 14.7221 1.38568C14.2273 1.14748 13.6911 1.01677 13.1461 1.00151C12.6012 0.986251 12.059 1.08677 11.5526 1.29692C11.0462 1.50708 10.5862 1.82247 10.2008 2.22386L9.02545 3.4477L8.0107 2.39103C6.47426 0.791119 3.94659 0.555077 2.3319 2.06914C1.92628 2.44838 1.59912 2.90971 1.37038 3.42497C1.14163 3.94024 1.0161 4.49863 1.00145 5.06607C0.986796 5.63352 1.08332 6.19813 1.28514 6.72545C1.48696 7.25277 1.78984 7.73174 2.1753 8.13314L8.58892 14.8117C8.7047 14.9323 8.86172 15 9.02545 15C9.18918 15 9.3462 14.9323 9.46198 14.8117Z" stroke="#1274B5" stroke-width="2" stroke-linecap="round" stroke-linejoin="round"/>
</svg>
