<svg width="18" height="22" viewBox="0 0 18 22" fill="none" xmlns="http://www.w3.org/2000/svg">
<path d="M9 11.7692C10.7673 11.7692 12.2 10.3916 12.2 8.69231C12.2 6.99297 10.7673 5.61538 9 5.61538C7.23269 5.61538 5.8 6.99297 5.8 8.69231C5.8 10.3916 7.23269 11.7692 9 11.7692Z" stroke="#2A2834" stroke-width="1.5" stroke-linecap="round" stroke-linejoin="round"/>
<path d="M17 8.69231C17 15.6154 9 21 9 21C9 21 1 15.6154 1 8.69231C1 6.65218 1.84285 4.69561 3.34315 3.25302C4.84344 1.81044 6.87827 1 9 1C11.1217 1 13.1566 1.81044 14.6569 3.25302C16.1571 4.69561 17 6.65218 17 8.69231Z" stroke="#2A2834" stroke-width="1.5" stroke-linecap="round" stroke-linejoin="round"/>
</svg>
