<svg width="27" height="27" viewBox="0 0 27 27" fill="none" xmlns="http://www.w3.org/2000/svg">
<path d="M6.94505 18.4242C6.52666 18.4242 6.18748 18.0851 6.18748 17.6667V11.3449L5.18379 11.5721C4.7891 11.6615 4.39387 11.4248 4.28624 11.0347L4.23198 10.8381C4.12063 10.4344 4.35781 10.017 4.76154 9.90609L6.7473 9.36041C6.81269 9.34244 6.88021 9.33333 6.94803 9.33333H7.55906C7.97746 9.33333 8.31664 9.67251 8.31664 10.0909V17.6667C8.31664 18.0851 7.97746 18.4242 7.55906 18.4242H6.94505Z" stroke="black" stroke-width="1.5"/>
<path d="M13.287 17.0961C12.8686 17.0961 12.5294 16.7569 12.5294 16.3385V14.775H10.7516C10.3332 14.775 9.99404 14.4358 9.99404 14.0174V13.7531C9.99404 13.3347 10.3332 12.9955 10.7516 12.9955H12.5294V11.432C12.5294 11.0136 12.8686 10.6744 13.287 10.6744H13.7609C14.1793 10.6744 14.5185 11.0136 14.5185 11.432V12.9955H16.2963C16.7147 12.9955 17.0539 13.3347 17.0539 13.7531V14.0174C17.0539 14.4358 16.7147 14.775 16.2963 14.775H14.5185V16.3385C14.5185 16.7569 14.1793 17.0961 13.7609 17.0961H13.287Z" stroke="black" stroke-width="1.5"/>
<path d="M20.083 18.4242C19.6646 18.4242 19.3254 18.0851 19.3254 17.6667V11.3449L18.3217 11.5721C17.927 11.6615 17.5318 11.4248 17.4241 11.0347L17.3699 10.8381C17.2585 10.4344 17.4957 10.017 17.8994 9.90609L19.8852 9.36041C19.9506 9.34244 20.0181 9.33333 20.0859 9.33333H20.697C21.1154 9.33333 21.4545 9.67251 21.4545 10.0909V17.6667C21.4545 18.0851 21.1154 18.4242 20.697 18.4242H20.083Z" stroke="black" stroke-width="1.5"/>
<path d="M26 13.5C26 20.4036 20.4036 26 13.5 26C6.59644 26 1 20.4036 1 13.5C1 6.59644 6.59644 1 13.5 1C20.4036 1 26 6.59644 26 13.5Z" stroke="black" stroke-width="1.5"/>
</svg>
