<svg width="21" height="21" viewBox="0 0 21 21" fill="none" xmlns="http://www.w3.org/2000/svg">
<circle opacity="0.8" cx="10.5" cy="10.5" r="10" fill="white" stroke="#7D7D7D"/>
<path opacity="0.8" fill-rule="evenodd" clip-rule="evenodd" d="M5.3431 5.99825L5.10059 10.2552L11.2171 16.3718C12.0008 17.1555 13.2714 17.1554 14.055 16.3718L16.4724 13.9545C17.256 13.1708 17.256 11.9002 16.4724 11.1165L10.3558 5L6.09883 5.24252C5.69146 5.26572 5.36631 5.59087 5.3431 5.99825ZM6.99953 8.15782C7.55182 8.15782 7.99953 7.71011 7.99953 7.15782C7.99953 6.60554 7.55182 6.15782 6.99953 6.15782C6.44725 6.15782 5.99953 6.60554 5.99953 7.15782C5.99953 7.71011 6.44725 8.15782 6.99953 8.15782Z" fill="#7D7D7D"/>
</svg>
