<svg width="64" height="83" viewBox="0 0 64 83" fill="none" xmlns="http://www.w3.org/2000/svg">
<path d="M57.6463 0H42.6236C39.1197 0 36.2693 2.85021 36.2693 6.35329V21.3756C36.2693 24.8787 39.1197 27.7289 42.6236 27.7289H57.6463C61.1496 27.7289 64 24.8787 64 21.3756V6.35329C64.0006 2.85021 61.1502 0 57.6463 0ZM59.137 21.3756C59.137 22.197 58.4683 22.8657 57.6463 22.8657H42.6236C41.8016 22.8657 41.1335 22.197 41.1335 21.3756V6.35329C41.1335 5.53198 41.8016 4.86328 42.6236 4.86328H57.6463C58.4683 4.86328 59.137 5.53198 59.137 6.35329V21.3756Z" fill="#1274B5"/>
<path d="M46.0092 33.7998C44.842 33.7998 43.742 34.0892 42.7763 34.6002C41.5319 32.736 39.4097 31.5062 37.0052 31.5062C35.7633 31.5062 34.5968 31.8342 33.5874 32.4086C32.324 30.6931 30.2905 29.578 28.0012 29.578C27.2805 29.578 26.5852 29.6882 25.931 29.8933V27.7289H26.5086C30.0125 27.7289 32.8629 24.8787 32.8629 21.375V6.35329C32.8629 2.85021 30.0125 0 26.5086 0H11.4859C7.9826 0 5.13221 2.85021 5.13221 6.35329V21.3756C5.13221 24.8787 7.9826 27.7289 11.4859 27.7289H12.0641V42.7924C11.6879 42.4157 11.2655 42.0794 10.802 41.7913C9.30806 40.8636 7.55641 40.5406 5.83895 40.8712C3.99168 40.9453 2.33438 41.7514 1.25781 43.1084C0.12677 44.5339 -0.265863 46.445 0.179332 48.3523L3.37549 62.0284C5.19807 73.4387 14.0995 81.9754 14.4788 82.3345C14.9303 82.7619 15.5288 83 16.1506 83H43.502C44.3208 83 45.0839 82.5878 45.5342 81.9039C50.3782 74.5355 52.9398 65.9804 52.9404 57.1632L52.9429 40.7331C52.9429 40.7331 52.9429 40.7331 52.9429 40.7325C52.9429 36.9096 49.8323 33.7998 46.0092 33.7998ZM17.1721 78.1367C15.2121 76.0521 9.43661 69.3208 8.16562 61.1862C8.15612 61.126 8.14472 61.0665 8.13079 61.0082L4.915 47.246C4.80797 46.7863 4.8618 46.3899 5.06762 46.1309C5.2728 45.8719 5.6249 45.7364 6.0948 45.6914C6.33101 45.6692 6.42917 45.6414 6.64828 45.6281C7.19987 45.5945 7.76539 45.6306 8.23528 45.9225C8.70518 46.2145 9.03258 46.6717 9.1586 47.2099L11.9324 59.0806C12.1642 60.0717 12.9887 60.8138 13.9981 60.9405L14.1932 60.9645C14.8854 61.0513 15.5813 60.8366 16.1044 60.375C16.6275 59.9133 16.927 59.2491 16.927 58.5519V19.9059C16.927 18.7642 17.8554 17.8358 18.9972 17.8358C20.1384 17.8358 21.0674 18.7642 21.0674 19.9059V42.7082C21.0674 44.0507 22.156 45.1399 23.4992 45.1399C24.8424 45.1399 25.931 44.0507 25.931 42.7082V36.5113C25.931 35.3696 26.8594 34.4413 28.0012 34.4413C29.1424 34.4413 30.0714 35.3696 30.0714 36.5113V42.9849C30.0714 44.328 31.16 45.4166 32.5032 45.4166C33.8464 45.4166 34.935 44.328 34.935 42.9849V38.4396C34.935 37.2985 35.864 36.3695 37.0052 36.3695C38.147 36.3695 39.0754 37.2985 39.0754 38.4396V44.6833C39.0754 46.0258 40.164 47.1149 41.5072 47.1149C42.8503 47.1149 43.939 46.0258 43.939 44.6833V40.7331C43.939 39.5914 44.868 38.6625 46.0092 38.6625C47.151 38.6625 48.0793 39.5914 48.0793 40.7325L48.0768 57.1626C48.0762 64.5949 46.0357 71.8183 42.1651 78.1367H17.1721ZM9.9958 21.3756V6.35329C9.9958 5.53198 10.6645 4.86328 11.4859 4.86328H26.5086C27.3306 4.86328 27.9993 5.53198 27.9993 6.35329V21.3756C27.9993 22.197 27.3306 22.8657 26.5086 22.8657H25.931V19.9053C25.931 16.0824 22.8203 12.9719 18.9972 12.9719C15.1741 12.9719 12.0635 16.0824 12.0635 19.9053V22.8657H11.4859C10.6645 22.8657 9.9958 22.197 9.9958 21.3756Z" fill="#1274B5"/>
</svg>
