<svg width="81" height="81" viewBox="0 0 81 81" fill="none" xmlns="http://www.w3.org/2000/svg">
<path d="M79.5349 24.2275C78.6479 23.86 77.6273 24.0633 76.9487 24.7418L73.8807 27.81L70.8125 24.7418C69.8859 23.8151 68.3833 23.8151 67.4566 24.7418L64.3886 27.81L62.0155 25.437V11.8652C62.0155 5.32337 56.6939 0.00126562 50.1514 0H12.1816C5.62142 0 0 5.30328 0 11.8652V78.6268C0 79.5727 0.561778 80.4283 1.42968 80.8043C2.29742 81.1802 3.30581 81.0049 3.99605 80.358L7.38222 77.1834L10.5036 80.3047C11.4302 81.2315 12.9328 81.2315 13.8595 80.3047L16.9277 77.2367L19.9959 80.3049C20.9225 81.2316 22.4251 81.2316 23.3518 80.3049L26.4199 77.2367L29.4881 80.3049C30.4147 81.2316 31.9173 81.2316 32.844 80.3049L35.912 77.2367L38.9802 80.3049C39.4343 80.7589 40.0411 81 40.6588 81C41.9624 80.9998 43.0313 79.9423 43.0313 78.627V52.5233H69.1348C75.6773 52.5233 81 47.2006 81 40.6581V26.4199C80.9998 25.4601 80.4216 24.5947 79.5349 24.2275ZM38.2851 72.8978L37.5899 72.2027C36.6633 71.2759 35.1607 71.2759 34.234 72.2027L31.166 75.2708L28.0978 72.2027C27.1712 71.2759 25.6686 71.2759 24.7418 72.2027L21.6738 75.2708L18.6056 72.2027C17.679 71.2759 16.1764 71.2759 15.2496 72.2027L12.1816 75.2708L9.11343 72.2027C8.20804 71.2971 6.74703 71.2734 5.81237 72.1495L4.74609 73.1492V11.8652C4.74609 8.00617 8.15108 4.74609 12.1816 4.74609H40.6645C39.1715 6.73058 38.2851 9.19617 38.2851 11.8652V72.8978ZM43.0312 11.8652C43.0312 7.93973 46.2243 4.74609 50.1503 4.74609C54.0758 4.74609 57.2694 7.93973 57.2694 11.8652V40.6581C57.2694 43.3272 58.1558 45.7928 59.6489 47.7773H43.0312C43.0312 43.9793 43.0312 12.9462 43.0312 11.8652ZM76.2538 40.6581C76.2538 44.5836 73.0601 47.7773 69.1346 47.7773C65.2092 47.7773 62.0155 44.5836 62.0155 40.6581V32.1489L62.7107 32.844C63.6372 33.7708 65.1399 33.7708 66.0666 32.844L69.1346 29.7758L72.2028 32.844C73.1294 33.7708 74.632 33.7708 75.5588 32.844L76.2539 32.1489L76.2538 40.6581Z" fill="#1274B5"/>
<path d="M31.166 47.7773H12.1816C10.8711 47.7773 9.80858 48.8397 9.80858 50.1503C9.80858 51.4608 10.8711 52.5233 12.1816 52.5233H31.166C32.4765 52.5233 33.539 51.4608 33.539 50.1503C33.539 48.8397 32.4765 47.7773 31.166 47.7773Z" fill="#1274B5"/>
<path d="M31.166 57.2694H12.1816C10.8711 57.2694 9.80858 58.3319 9.80858 59.6425C9.80858 60.953 10.8711 62.0155 12.1816 62.0155H31.166C32.4765 62.0155 33.539 60.953 33.539 59.6425C33.539 58.3319 32.4765 57.2694 31.166 57.2694Z" fill="#1274B5"/>
<path d="M19.6956 29.795V37.2795C19.6956 38.6514 18.5834 39.7636 17.2115 39.7636C15.8395 39.7636 14.7273 38.6514 14.7273 37.2795V29.795V25.7706V17.1232C14.7273 15.4965 16.046 14.1778 17.6727 14.1778H24.134C25.9447 14.1778 27.5346 14.509 28.9037 15.1715C30.2838 15.8339 31.3437 16.7779 32.0834 18.0034C32.8232 19.2179 33.193 20.6035 33.193 22.1603C33.193 24.523 32.3815 26.3889 30.7585 27.758C29.1466 29.116 26.9108 29.795 24.0512 29.795H19.6956ZM19.6956 25.7706H24.134C25.4479 25.7706 26.4471 25.4615 27.1316 24.8432C27.8272 24.2249 28.175 23.3417 28.175 22.1934C28.175 21.012 27.8272 20.057 27.1316 19.3283C26.436 18.5996 25.4755 18.2242 24.25 18.2022H19.6956V25.7706Z" fill="#1274B5"/>
<path d="M14.7273 29.795V25.7706H12.3213C11.21 25.7706 10.3091 26.6715 10.3091 27.7828C10.3091 28.8941 11.21 29.795 12.3213 29.795H14.7273Z" fill="#1274B5"/>
<path d="M27.4424 35.3455C28.5537 35.3455 29.4545 34.4446 29.4545 33.3333C29.4545 32.222 28.5537 31.3211 27.4424 31.3211H12.3213C11.21 31.3211 10.3091 32.222 10.3091 33.3333C10.3091 34.4446 11.21 35.3455 12.3213 35.3455H27.4424Z" fill="#1274B5"/>
</svg>
