<svg width="95" height="83" viewBox="0 0 95 83" fill="none" xmlns="http://www.w3.org/2000/svg">
<path d="M92.2168 0H25.2344C23.6973 0 22.4512 1.23873 22.4512 2.76667V38.9146C18.7267 39.5491 15.2922 41.4375 12.7758 44.2667H11.3184V41.5C11.3184 39.9721 10.0722 38.7333 8.53516 38.7333H2.7832C1.24613 38.7333 0 39.9721 0 41.5C0 43.0279 1.24613 44.2667 2.7832 44.2667H5.75195V77.4667H2.7832C1.24613 77.4667 0 78.7054 0 80.2333C0 81.7613 1.24613 83 2.7832 83H8.53516C10.0722 83 11.3184 81.7613 11.3184 80.2333V77.4667H13.6683C31.4183 83.0511 30.7475 83 31.543 83H69.7656C75.5235 83 79.5569 77.3158 77.6365 71.9333H92.2168C93.7539 71.9333 95 70.6946 95 69.1667V2.76667C95 1.23873 93.7539 0 92.2168 0ZM53.0664 5.53333H64.1992V19.3667H53.0664V5.53333ZM72.5488 74.7C72.5488 76.2255 71.3003 77.4667 69.7656 77.4667H31.9762C14.2264 71.8822 14.8972 71.9333 14.1016 71.9333H11.3184V49.8H14.1016C14.9855 49.8 15.8169 49.3826 16.3415 48.6754C20.7495 42.7341 29.7157 42.7293 34.1271 48.6754C34.6518 49.3826 35.4832 49.8 36.3672 49.8H50.2832C51.8179 49.8 53.0664 51.0411 53.0664 52.5667C53.0664 54.0922 51.8179 55.3333 50.2832 55.3333H33.584C32.0469 55.3333 30.8008 56.5721 30.8008 58.1C30.8008 65.7277 37.0435 71.9333 44.7168 71.9333H69.7656C71.3003 71.9333 72.5488 73.1744 72.5488 74.7ZM89.4336 66.4C87.7462 66.4 47.0092 66.4 44.7168 66.4C41.0882 66.4 37.9928 64.0872 36.844 60.8667H50.2832C54.8872 60.8667 58.6328 57.1433 58.6328 52.5667C58.6328 47.99 54.8872 44.2667 50.2832 44.2667H37.6929C35.1767 41.4375 31.7421 39.5491 28.0176 38.9146V5.53333H47.5V22.1333C47.5 23.6613 48.7461 24.9 50.2832 24.9H66.9824C68.5195 24.9 69.7656 23.6613 69.7656 22.1333V5.53333H89.4336V66.4Z" fill="#1274B5"/>
</svg>
