<svg width="26" height="18" viewBox="0 0 26 18" fill="none" xmlns="http://www.w3.org/2000/svg">
<g clip-path="url(#clip0)">
<path d="M24.375 7.1875H17.875V3.125H22.1999C22.3623 3.125 22.521 3.17366 22.6554 3.26469C22.7899 3.35573 22.894 3.48497 22.9543 3.63574L24.375 7.1875Z" stroke="#2A2834" stroke-width="2" stroke-linecap="round" stroke-linejoin="round"/>
<path d="M1.625 9.625H17.875" stroke="#2A2834" stroke-width="2" stroke-linecap="round" stroke-linejoin="round"/>
<path d="M19.0938 16.9375C20.4399 16.9375 21.5312 15.8462 21.5312 14.5C21.5312 13.1538 20.4399 12.0625 19.0938 12.0625C17.7476 12.0625 16.6562 13.1538 16.6562 14.5C16.6562 15.8462 17.7476 16.9375 19.0938 16.9375Z" stroke="#2A2834" stroke-width="2" stroke-miterlimit="10"/>
<path d="M16.6562 14.5H9.34375" stroke="#2A2834" stroke-width="2" stroke-linecap="round" stroke-linejoin="round"/>
<path d="M4.46875 14.5H2.4375C2.22201 14.5 2.01535 14.4144 1.86298 14.262C1.7106 14.1097 1.625 13.903 1.625 13.6875V2.3125C1.625 2.09701 1.7106 1.89035 1.86298 1.73798C2.01535 1.5856 2.22201 1.5 2.4375 1.5H17.875V12.389" stroke="#2A2834" stroke-width="2" stroke-linecap="round" stroke-linejoin="round"/>
<path d="M17.875 12.389V7.1875H24.375V13.6875C24.375 13.903 24.2894 14.1097 24.137 14.262C23.9847 14.4144 23.778 14.5 23.5625 14.5H21.5312" stroke="#2A2834" stroke-width="2" stroke-linecap="round" stroke-linejoin="round"/>
</g>
<defs>
<clipPath id="clip0">
<rect width="26" height="18" fill="white"/>
</clipPath>
</defs>
</svg>
