<svg width="38" height="34" viewBox="0 0 38 34" fill="none" xmlns="http://www.w3.org/2000/svg">
<mask id="path-1-inside-1" fill="white">
<path d="M37.9986 27.2728C37.9981 27.2595 37.9976 27.2464 37.9964 27.2332C37.9952 27.22 37.9932 27.2069 37.9914 27.1938C37.9895 27.1808 37.9878 27.1679 37.9854 27.1548C37.9829 27.1415 37.9795 27.1282 37.9763 27.1149C37.9731 27.1024 37.9703 27.0897 37.9667 27.0772C37.9627 27.0639 37.9579 27.0507 37.9532 27.0374C37.9489 27.0251 37.9449 27.0127 37.94 27.0005C37.9348 26.9875 37.9286 26.975 37.9227 26.9621C37.9181 26.9526 37.9146 26.9428 37.9096 26.9333L36.4234 24.0296C36.4218 24.0266 36.42 24.0239 36.4184 24.0211C36.4168 24.0179 36.4157 24.0148 36.4139 24.0117C36.4089 24.0025 36.403 23.9943 36.3978 23.9854C36.3906 23.9734 36.3837 23.9612 36.3761 23.9498C36.3687 23.9387 36.3609 23.9284 36.3532 23.9178C36.3449 23.9067 36.3369 23.8955 36.3281 23.8849C36.32 23.8747 36.3112 23.8654 36.3026 23.8557C36.2935 23.8458 36.2845 23.8356 36.2751 23.8261C36.2658 23.8169 36.2562 23.8083 36.2466 23.7997C36.2369 23.7908 36.2274 23.7819 36.2173 23.7737C36.207 23.7654 36.1966 23.7578 36.186 23.7501C36.1758 23.7425 36.1657 23.7348 36.1551 23.7279C36.1442 23.7206 36.133 23.7139 36.1218 23.7072C36.111 23.7008 36.1004 23.6942 36.0892 23.6882C36.0779 23.6822 36.0662 23.6768 36.0546 23.6713C36.0431 23.6659 36.0317 23.6603 36.0201 23.6554C36.0084 23.6507 35.9966 23.6466 35.9848 23.6423C35.9727 23.6379 35.9606 23.6335 35.9482 23.6298C35.9365 23.6262 35.9245 23.6233 35.9127 23.6203C35.8999 23.617 35.8873 23.6137 35.8744 23.6111C35.8625 23.6087 35.8506 23.607 35.8387 23.6052C35.8255 23.6032 35.8124 23.6011 35.7991 23.5997C35.7872 23.5985 35.7751 23.5981 35.7631 23.5975C35.7497 23.5966 35.7363 23.5959 35.7229 23.5959C35.7107 23.5959 35.6986 23.5966 35.6865 23.5972C35.6731 23.5979 35.6596 23.5983 35.6462 23.5995C35.634 23.6008 35.6215 23.6029 35.6093 23.6046C35.5961 23.6065 35.5829 23.6084 35.5698 23.6109C35.5572 23.6135 35.5448 23.617 35.5322 23.6201C35.5195 23.6233 35.5068 23.6265 35.4942 23.6303C35.4813 23.6342 35.4688 23.6391 35.4562 23.6437C35.444 23.6482 35.4315 23.6526 35.4195 23.6576C35.4068 23.663 35.3945 23.6694 35.3819 23.6754C35.3729 23.6799 35.3637 23.6836 35.3546 23.6885C35.3517 23.6901 35.3491 23.692 35.3462 23.6936C35.3433 23.6951 35.3401 23.6964 35.3372 23.6982C34.2633 24.3112 33.1698 24.8726 32.0586 25.3827L27.9899 12.6782C29.6485 13.1694 30.441 15.1442 30.4791 15.2419C30.6087 15.5788 30.9405 15.7866 31.2923 15.7522L33.7171 15.5108C33.9261 15.49 34.1184 15.385 34.252 15.2188C34.3855 15.0526 34.4489 14.8389 34.4287 14.6247L33.1127 0.733116C33.0704 0.28699 32.6833 -0.0399401 32.2481 0.00394986C28.1732 0.409304 24.7356 1.79195 22.0309 4.1131C19.7868 6.03893 18.6277 8.14313 18.1364 9.22623C18.0814 9.34763 18.0384 9.45222 18.0034 9.54305C17.983 9.56047 17.9635 9.57865 17.945 9.59804C17.8905 9.60268 17.8321 9.6077 17.7663 9.61432L6.2789 10.7572C5.91567 10.7933 5.62377 11.0793 5.57174 11.4493C5.21683 13.9771 2.35184 15.9193 2.324 15.9377C2.12784 16.068 1.99789 16.2806 1.96902 16.518C1.94015 16.7558 2.01503 16.9944 2.17386 17.17C3.671 18.8266 5.22551 19.0087 6.26569 18.8692C6.46853 18.842 6.65942 18.8021 6.83606 18.7544L6.09899 28.0997C4.75949 27.7962 3.42972 27.4245 2.11196 26.9831C2.10283 26.9799 2.09378 26.978 2.08458 26.9753C2.0707 26.9714 2.05697 26.967 2.04316 26.9638C2.03121 26.9612 2.01919 26.9589 2.00716 26.9567C1.99306 26.9542 1.97896 26.9514 1.96486 26.9495C1.95291 26.9479 1.94089 26.9472 1.92894 26.946C1.91484 26.9449 1.90088 26.9437 1.88693 26.9434C1.87491 26.9431 1.86296 26.9434 1.85093 26.9437C1.83713 26.944 1.8234 26.9441 1.80967 26.9451C1.79757 26.9461 1.78562 26.9476 1.7736 26.9491C1.76031 26.9507 1.74681 26.9523 1.73367 26.9546C1.72165 26.9567 1.7097 26.9596 1.69782 26.9621C1.68491 26.9651 1.67199 26.9678 1.65923 26.9715C1.64743 26.9748 1.63577 26.9788 1.62405 26.9826C1.61173 26.9867 1.59918 26.9907 1.58694 26.9954C1.57536 26.9999 1.56423 27.0051 1.55295 27.01C1.541 27.0153 1.5289 27.0205 1.51717 27.0265C1.50619 27.0321 1.49557 27.0383 1.48474 27.0443C1.47331 27.0508 1.46195 27.0572 1.45082 27.0641C1.44028 27.0707 1.43011 27.0779 1.41987 27.0852C1.40918 27.0926 1.39835 27.1001 1.38803 27.108C1.37816 27.1157 1.36859 27.1241 1.35886 27.1324C1.34907 27.1408 1.33905 27.1492 1.32955 27.158C1.32012 27.1669 1.31129 27.1764 1.30224 27.1858C1.29333 27.1952 1.28435 27.2042 1.27581 27.214C1.26713 27.224 1.25889 27.2346 1.25058 27.2453C1.24264 27.2553 1.23484 27.2651 1.22735 27.2756C1.21926 27.2868 1.21191 27.2985 1.20441 27.3105C1.19766 27.321 1.19068 27.3315 1.18438 27.3425C1.1774 27.3547 1.17109 27.3676 1.16456 27.3802C1.15877 27.3917 1.15283 27.403 1.14756 27.4148C1.14185 27.4276 1.13673 27.4409 1.13168 27.4542C1.12804 27.4635 1.12366 27.4724 1.12032 27.4821L0.0456371 30.5704C0.0444496 30.5738 0.0439301 30.577 0.0428168 30.5802C0.0417035 30.5834 0.0403676 30.5862 0.0393285 30.5894C0.0361371 30.5991 0.0343559 30.6089 0.0314613 30.6187C0.027602 30.6325 0.0233715 30.6465 0.0203285 30.6604C0.017434 30.673 0.0153559 30.6859 0.0130551 30.6986C0.0106059 30.7125 0.007934 30.7265 0.00622697 30.7403C0.00459416 30.7534 0.00377775 30.7664 0.00273869 30.7794C0.00169962 30.793 0.000512123 30.8066 0.000141029 30.8201C-0.000230064 30.8335 0.000215248 30.8466 0.000512123 30.8598C0.000734779 30.8729 0.000808998 30.8863 0.00177384 30.8992C0.00273869 30.9126 0.0043715 30.9258 0.00600431 30.9391C0.00748869 30.9517 0.00875041 30.9645 0.0109028 30.9771C0.0131293 30.9905 0.0160238 31.0036 0.0189184 31.0168C0.021516 31.0289 0.0239653 31.0413 0.0272309 31.0535C0.0306449 31.0665 0.0348012 31.0792 0.038809 31.0919C0.0425199 31.1039 0.0462309 31.116 0.0505356 31.1279C0.0550629 31.1402 0.0602582 31.1523 0.0653793 31.1645C0.070352 31.1763 0.0751762 31.1879 0.0806684 31.1994C0.0862348 31.2112 0.092395 31.2224 0.0986293 31.2338C0.104641 31.2452 0.110653 31.2566 0.117332 31.2679C0.123938 31.2788 0.131137 31.2893 0.138039 31.2999C0.145313 31.3108 0.152512 31.3218 0.160305 31.3322C0.167727 31.3425 0.175817 31.3522 0.183832 31.362C0.192145 31.3721 0.200383 31.3824 0.209141 31.3924C0.217602 31.4017 0.226731 31.4108 0.235563 31.4199C0.24484 31.4292 0.254043 31.4386 0.263692 31.4476C0.273192 31.4563 0.28336 31.4646 0.293231 31.4728C0.30325 31.4812 0.313196 31.4896 0.323735 31.4974C0.334422 31.5055 0.345481 31.5127 0.356688 31.5202C0.367376 31.5273 0.377915 31.5348 0.388973 31.5414C0.400626 31.5484 0.412723 31.5547 0.424747 31.5612C0.436251 31.5672 0.447532 31.5735 0.459407 31.5791C0.471579 31.585 0.484344 31.5899 0.497036 31.5951C0.506536 31.5991 0.515665 31.6036 0.525387 31.6071C0.52895 31.6084 0.532512 31.6093 0.536075 31.6106C0.538672 31.6115 0.541122 31.6127 0.544016 31.6136C5.2552 33.2015 10.1044 34 15.0124 34C16.5189 34 18.0312 33.9247 19.5465 33.774C25.921 33.1395 31.9925 31.2034 37.5925 28.0199C37.6018 28.0147 37.6102 28.0085 37.6191 28.0029C37.6307 27.9956 37.6425 27.9886 37.6536 27.9808C37.6645 27.9732 37.6747 27.9652 37.6851 27.9573C37.6959 27.9488 37.7068 27.9406 37.7172 27.9317C37.727 27.9233 37.7362 27.9143 37.7456 27.9054C37.7554 27.896 37.7653 27.887 37.7745 27.8772C37.7835 27.8678 37.7919 27.8578 37.8004 27.848C37.8089 27.8382 37.8177 27.8284 37.8257 27.8181C37.834 27.8078 37.8415 27.797 37.849 27.7863C37.8565 27.7757 37.8641 27.7654 37.8709 27.7545C37.878 27.7434 37.8844 27.7318 37.891 27.7204C37.8972 27.7093 37.9037 27.6984 37.9095 27.687C37.9155 27.6752 37.9209 27.6632 37.9262 27.6513C37.9313 27.6395 37.9368 27.6282 37.9415 27.6163C37.9463 27.6041 37.9504 27.5917 37.9547 27.5794C37.9589 27.5672 37.9631 27.5551 37.9667 27.5428C37.9703 27.5305 37.9731 27.5177 37.9763 27.5052C37.9794 27.4926 37.9824 27.48 37.9849 27.4672C37.9873 27.4545 37.9891 27.4418 37.9909 27.4291C37.9927 27.416 37.9947 27.4032 37.9961 27.39C37.9973 27.3772 37.9977 27.3644 37.9984 27.3515C37.9991 27.3383 37.9999 27.3252 38 27.3118C38 27.2988 37.9992 27.2859 37.9986 27.2728ZM17.7427 11.2471C17.6665 12.0881 17.3481 12.8864 16.8128 13.553C16.1067 14.4324 15.1088 14.9771 14.0028 15.0871C12.897 15.197 11.8156 14.8594 10.9577 14.1357C10.3073 13.5872 9.84496 12.8664 9.61229 12.0559L17.7427 11.2471ZM6.06047 17.2602C5.33706 17.3568 4.64564 17.161 3.9966 16.6769C4.95855 15.8636 6.49213 14.3088 7.01174 12.3148L8.01599 12.215C8.30351 13.4567 8.97341 14.5638 9.95154 15.3889C10.9893 16.2642 12.2637 16.7306 13.5901 16.7306C13.7778 16.7306 13.9666 16.7213 14.1559 16.7024C15.6828 16.5506 17.0606 15.7984 18.0355 14.5843C18.9601 13.433 19.4162 11.9968 19.3346 10.518C19.3579 10.4644 19.3805 10.4081 19.4019 10.3457C19.4386 10.2383 19.4843 10.1046 19.5724 9.91022C20.5432 7.77041 23.6291 2.79533 31.6145 1.71163L32.7763 13.9741L31.6904 14.0822C31.115 12.9803 29.5725 10.6905 26.7909 10.9675C26.5516 10.9913 26.3359 11.1254 26.2046 11.3315C26.0731 11.5379 26.0402 11.7941 26.1152 12.0282L30.5962 26.0196C29.9939 26.2683 29.3866 26.5017 28.7748 26.7206L25.5175 20.4033C25.3818 20.14 25.1163 19.9741 24.8257 19.9711L15.261 19.8706C15.2583 19.8706 15.2556 19.8706 15.2529 19.8706C15.0311 19.8706 14.8193 19.9659 14.6693 20.1335C14.5175 20.3033 14.4431 20.5311 14.4649 20.7605C14.5503 21.6623 14.2148 22.7296 13.5674 23.615C12.8876 24.5446 11.9555 25.1318 11.0102 25.2259C10.6911 25.2576 10.4222 25.4835 10.3291 25.7978L9.46511 28.7152C8.86246 28.6314 8.26143 28.5332 7.66204 28.422L8.52023 17.5401C8.54532 17.2248 8.38931 16.9236 8.12056 16.7679C7.85197 16.6126 7.51954 16.6313 7.26905 16.8158C7.2643 16.8193 6.76845 17.1654 6.06047 17.2602ZM27.2477 27.2326C24.6033 28.0613 21.8765 28.6182 19.0844 28.896C16.3945 29.1637 13.7155 29.1659 11.0637 28.9047L11.7005 26.7544C12.9003 26.4865 13.9981 25.7318 14.8345 24.5878C15.5149 23.6573 15.9388 22.5536 16.0381 21.5015L24.3379 21.5887L27.2477 27.2326ZM19.3937 32.1588C13.4313 32.752 7.52103 32.1341 1.81249 30.3243L2.35533 28.7639C6.48686 30.0665 10.7268 30.7218 15.0149 30.7218C16.4179 30.7218 17.8265 30.6517 19.2375 30.5113C24.9296 29.9451 30.3608 28.2636 35.3945 25.513L36.1447 26.9787C30.9251 29.829 25.2938 31.5715 19.3937 32.1588Z"/>
<path d="M29.9591 9.36764C30.3987 9.32405 30.7203 8.92357 30.6777 8.47303C30.635 8.02257 30.244 7.69282 29.8046 7.73641C29.3649 7.7803 29.0434 8.18086 29.086 8.63147C29.1287 9.08178 29.5196 9.41153 29.9591 9.36764Z"/>
<path d="M21.773 11.3767C21.8796 11.4267 21.9915 11.4504 22.1016 11.4504C22.4019 11.4504 22.6896 11.2743 22.8229 10.9765C22.828 10.9654 22.8331 10.9538 22.8376 10.9427C23.0082 10.5301 22.8201 10.0538 22.4175 9.87903C22.0159 9.70453 21.5522 9.89622 21.3808 10.3072C21.3814 10.3058 21.3818 10.3043 21.3824 10.3029L21.3797 10.3097C21.3798 10.3093 21.38 10.3091 21.3801 10.3088C21.2027 10.7147 21.3777 11.1908 21.773 11.3767Z"/>
<path d="M23.0033 9.2028C23.1488 9.32086 23.3221 9.37806 23.4943 9.37806C23.7279 9.37806 23.9592 9.27263 24.1155 9.07045C24.8472 8.12351 26.5959 6.69705 27.5939 6.38198C28.0117 6.25016 28.2462 5.79605 28.1175 5.36772C27.9886 4.93955 27.5456 4.69941 27.1277 4.83116C25.7982 5.25081 23.7855 6.88364 22.8741 8.06304C22.6027 8.41423 22.6605 8.92471 23.0033 9.2028Z"/>
</mask>
<path d="M37.9986 27.2728C37.9981 27.2595 37.9976 27.2464 37.9964 27.2332C37.9952 27.22 37.9932 27.2069 37.9914 27.1938C37.9895 27.1808 37.9878 27.1679 37.9854 27.1548C37.9829 27.1415 37.9795 27.1282 37.9763 27.1149C37.9731 27.1024 37.9703 27.0897 37.9667 27.0772C37.9627 27.0639 37.9579 27.0507 37.9532 27.0374C37.9489 27.0251 37.9449 27.0127 37.94 27.0005C37.9348 26.9875 37.9286 26.975 37.9227 26.9621C37.9181 26.9526 37.9146 26.9428 37.9096 26.9333L36.4234 24.0296C36.4218 24.0266 36.42 24.0239 36.4184 24.0211C36.4168 24.0179 36.4157 24.0148 36.4139 24.0117C36.4089 24.0025 36.403 23.9943 36.3978 23.9854C36.3906 23.9734 36.3837 23.9612 36.3761 23.9498C36.3687 23.9387 36.3609 23.9284 36.3532 23.9178C36.3449 23.9067 36.3369 23.8955 36.3281 23.8849C36.32 23.8747 36.3112 23.8654 36.3026 23.8557C36.2935 23.8458 36.2845 23.8356 36.2751 23.8261C36.2658 23.8169 36.2562 23.8083 36.2466 23.7997C36.2369 23.7908 36.2274 23.7819 36.2173 23.7737C36.207 23.7654 36.1966 23.7578 36.186 23.7501C36.1758 23.7425 36.1657 23.7348 36.1551 23.7279C36.1442 23.7206 36.133 23.7139 36.1218 23.7072C36.111 23.7008 36.1004 23.6942 36.0892 23.6882C36.0779 23.6822 36.0662 23.6768 36.0546 23.6713C36.0431 23.6659 36.0317 23.6603 36.0201 23.6554C36.0084 23.6507 35.9966 23.6466 35.9848 23.6423C35.9727 23.6379 35.9606 23.6335 35.9482 23.6298C35.9365 23.6262 35.9245 23.6233 35.9127 23.6203C35.8999 23.617 35.8873 23.6137 35.8744 23.6111C35.8625 23.6087 35.8506 23.607 35.8387 23.6052C35.8255 23.6032 35.8124 23.6011 35.7991 23.5997C35.7872 23.5985 35.7751 23.5981 35.7631 23.5975C35.7497 23.5966 35.7363 23.5959 35.7229 23.5959C35.7107 23.5959 35.6986 23.5966 35.6865 23.5972C35.6731 23.5979 35.6596 23.5983 35.6462 23.5995C35.634 23.6008 35.6215 23.6029 35.6093 23.6046C35.5961 23.6065 35.5829 23.6084 35.5698 23.6109C35.5572 23.6135 35.5448 23.617 35.5322 23.6201C35.5195 23.6233 35.5068 23.6265 35.4942 23.6303C35.4813 23.6342 35.4688 23.6391 35.4562 23.6437C35.444 23.6482 35.4315 23.6526 35.4195 23.6576C35.4068 23.663 35.3945 23.6694 35.3819 23.6754C35.3729 23.6799 35.3637 23.6836 35.3546 23.6885C35.3517 23.6901 35.3491 23.692 35.3462 23.6936C35.3433 23.6951 35.3401 23.6964 35.3372 23.6982C34.2633 24.3112 33.1698 24.8726 32.0586 25.3827L27.9899 12.6782C29.6485 13.1694 30.441 15.1442 30.4791 15.2419C30.6087 15.5788 30.9405 15.7866 31.2923 15.7522L33.7171 15.5108C33.9261 15.49 34.1184 15.385 34.252 15.2188C34.3855 15.0526 34.4489 14.8389 34.4287 14.6247L33.1127 0.733116C33.0704 0.28699 32.6833 -0.0399401 32.2481 0.00394986C28.1732 0.409304 24.7356 1.79195 22.0309 4.1131C19.7868 6.03893 18.6277 8.14313 18.1364 9.22623C18.0814 9.34763 18.0384 9.45222 18.0034 9.54305C17.983 9.56047 17.9635 9.57865 17.945 9.59804C17.8905 9.60268 17.8321 9.6077 17.7663 9.61432L6.2789 10.7572C5.91567 10.7933 5.62377 11.0793 5.57174 11.4493C5.21683 13.9771 2.35184 15.9193 2.324 15.9377C2.12784 16.068 1.99789 16.2806 1.96902 16.518C1.94015 16.7558 2.01503 16.9944 2.17386 17.17C3.671 18.8266 5.22551 19.0087 6.26569 18.8692C6.46853 18.842 6.65942 18.8021 6.83606 18.7544L6.09899 28.0997C4.75949 27.7962 3.42972 27.4245 2.11196 26.9831C2.10283 26.9799 2.09378 26.978 2.08458 26.9753C2.0707 26.9714 2.05697 26.967 2.04316 26.9638C2.03121 26.9612 2.01919 26.9589 2.00716 26.9567C1.99306 26.9542 1.97896 26.9514 1.96486 26.9495C1.95291 26.9479 1.94089 26.9472 1.92894 26.946C1.91484 26.9449 1.90088 26.9437 1.88693 26.9434C1.87491 26.9431 1.86296 26.9434 1.85093 26.9437C1.83713 26.944 1.8234 26.9441 1.80967 26.9451C1.79757 26.9461 1.78562 26.9476 1.7736 26.9491C1.76031 26.9507 1.74681 26.9523 1.73367 26.9546C1.72165 26.9567 1.7097 26.9596 1.69782 26.9621C1.68491 26.9651 1.67199 26.9678 1.65923 26.9715C1.64743 26.9748 1.63577 26.9788 1.62405 26.9826C1.61173 26.9867 1.59918 26.9907 1.58694 26.9954C1.57536 26.9999 1.56423 27.0051 1.55295 27.01C1.541 27.0153 1.5289 27.0205 1.51717 27.0265C1.50619 27.0321 1.49557 27.0383 1.48474 27.0443C1.47331 27.0508 1.46195 27.0572 1.45082 27.0641C1.44028 27.0707 1.43011 27.0779 1.41987 27.0852C1.40918 27.0926 1.39835 27.1001 1.38803 27.108C1.37816 27.1157 1.36859 27.1241 1.35886 27.1324C1.34907 27.1408 1.33905 27.1492 1.32955 27.158C1.32012 27.1669 1.31129 27.1764 1.30224 27.1858C1.29333 27.1952 1.28435 27.2042 1.27581 27.214C1.26713 27.224 1.25889 27.2346 1.25058 27.2453C1.24264 27.2553 1.23484 27.2651 1.22735 27.2756C1.21926 27.2868 1.21191 27.2985 1.20441 27.3105C1.19766 27.321 1.19068 27.3315 1.18438 27.3425C1.1774 27.3547 1.17109 27.3676 1.16456 27.3802C1.15877 27.3917 1.15283 27.403 1.14756 27.4148C1.14185 27.4276 1.13673 27.4409 1.13168 27.4542C1.12804 27.4635 1.12366 27.4724 1.12032 27.4821L0.0456371 30.5704C0.0444496 30.5738 0.0439301 30.577 0.0428168 30.5802C0.0417035 30.5834 0.0403676 30.5862 0.0393285 30.5894C0.0361371 30.5991 0.0343559 30.6089 0.0314613 30.6187C0.027602 30.6325 0.0233715 30.6465 0.0203285 30.6604C0.017434 30.673 0.0153559 30.6859 0.0130551 30.6986C0.0106059 30.7125 0.007934 30.7265 0.00622697 30.7403C0.00459416 30.7534 0.00377775 30.7664 0.00273869 30.7794C0.00169962 30.793 0.000512123 30.8066 0.000141029 30.8201C-0.000230064 30.8335 0.000215248 30.8466 0.000512123 30.8598C0.000734779 30.8729 0.000808998 30.8863 0.00177384 30.8992C0.00273869 30.9126 0.0043715 30.9258 0.00600431 30.9391C0.00748869 30.9517 0.00875041 30.9645 0.0109028 30.9771C0.0131293 30.9905 0.0160238 31.0036 0.0189184 31.0168C0.021516 31.0289 0.0239653 31.0413 0.0272309 31.0535C0.0306449 31.0665 0.0348012 31.0792 0.038809 31.0919C0.0425199 31.1039 0.0462309 31.116 0.0505356 31.1279C0.0550629 31.1402 0.0602582 31.1523 0.0653793 31.1645C0.070352 31.1763 0.0751762 31.1879 0.0806684 31.1994C0.0862348 31.2112 0.092395 31.2224 0.0986293 31.2338C0.104641 31.2452 0.110653 31.2566 0.117332 31.2679C0.123938 31.2788 0.131137 31.2893 0.138039 31.2999C0.145313 31.3108 0.152512 31.3218 0.160305 31.3322C0.167727 31.3425 0.175817 31.3522 0.183832 31.362C0.192145 31.3721 0.200383 31.3824 0.209141 31.3924C0.217602 31.4017 0.226731 31.4108 0.235563 31.4199C0.24484 31.4292 0.254043 31.4386 0.263692 31.4476C0.273192 31.4563 0.28336 31.4646 0.293231 31.4728C0.30325 31.4812 0.313196 31.4896 0.323735 31.4974C0.334422 31.5055 0.345481 31.5127 0.356688 31.5202C0.367376 31.5273 0.377915 31.5348 0.388973 31.5414C0.400626 31.5484 0.412723 31.5547 0.424747 31.5612C0.436251 31.5672 0.447532 31.5735 0.459407 31.5791C0.471579 31.585 0.484344 31.5899 0.497036 31.5951C0.506536 31.5991 0.515665 31.6036 0.525387 31.6071C0.52895 31.6084 0.532512 31.6093 0.536075 31.6106C0.538672 31.6115 0.541122 31.6127 0.544016 31.6136C5.2552 33.2015 10.1044 34 15.0124 34C16.5189 34 18.0312 33.9247 19.5465 33.774C25.921 33.1395 31.9925 31.2034 37.5925 28.0199C37.6018 28.0147 37.6102 28.0085 37.6191 28.0029C37.6307 27.9956 37.6425 27.9886 37.6536 27.9808C37.6645 27.9732 37.6747 27.9652 37.6851 27.9573C37.6959 27.9488 37.7068 27.9406 37.7172 27.9317C37.727 27.9233 37.7362 27.9143 37.7456 27.9054C37.7554 27.896 37.7653 27.887 37.7745 27.8772C37.7835 27.8678 37.7919 27.8578 37.8004 27.848C37.8089 27.8382 37.8177 27.8284 37.8257 27.8181C37.834 27.8078 37.8415 27.797 37.849 27.7863C37.8565 27.7757 37.8641 27.7654 37.8709 27.7545C37.878 27.7434 37.8844 27.7318 37.891 27.7204C37.8972 27.7093 37.9037 27.6984 37.9095 27.687C37.9155 27.6752 37.9209 27.6632 37.9262 27.6513C37.9313 27.6395 37.9368 27.6282 37.9415 27.6163C37.9463 27.6041 37.9504 27.5917 37.9547 27.5794C37.9589 27.5672 37.9631 27.5551 37.9667 27.5428C37.9703 27.5305 37.9731 27.5177 37.9763 27.5052C37.9794 27.4926 37.9824 27.48 37.9849 27.4672C37.9873 27.4545 37.9891 27.4418 37.9909 27.4291C37.9927 27.416 37.9947 27.4032 37.9961 27.39C37.9973 27.3772 37.9977 27.3644 37.9984 27.3515C37.9991 27.3383 37.9999 27.3252 38 27.3118C38 27.2988 37.9992 27.2859 37.9986 27.2728ZM17.7427 11.2471C17.6665 12.0881 17.3481 12.8864 16.8128 13.553C16.1067 14.4324 15.1088 14.9771 14.0028 15.0871C12.897 15.197 11.8156 14.8594 10.9577 14.1357C10.3073 13.5872 9.84496 12.8664 9.61229 12.0559L17.7427 11.2471ZM6.06047 17.2602C5.33706 17.3568 4.64564 17.161 3.9966 16.6769C4.95855 15.8636 6.49213 14.3088 7.01174 12.3148L8.01599 12.215C8.30351 13.4567 8.97341 14.5638 9.95154 15.3889C10.9893 16.2642 12.2637 16.7306 13.5901 16.7306C13.7778 16.7306 13.9666 16.7213 14.1559 16.7024C15.6828 16.5506 17.0606 15.7984 18.0355 14.5843C18.9601 13.433 19.4162 11.9968 19.3346 10.518C19.3579 10.4644 19.3805 10.4081 19.4019 10.3457C19.4386 10.2383 19.4843 10.1046 19.5724 9.91022C20.5432 7.77041 23.6291 2.79533 31.6145 1.71163L32.7763 13.9741L31.6904 14.0822C31.115 12.9803 29.5725 10.6905 26.7909 10.9675C26.5516 10.9913 26.3359 11.1254 26.2046 11.3315C26.0731 11.5379 26.0402 11.7941 26.1152 12.0282L30.5962 26.0196C29.9939 26.2683 29.3866 26.5017 28.7748 26.7206L25.5175 20.4033C25.3818 20.14 25.1163 19.9741 24.8257 19.9711L15.261 19.8706C15.2583 19.8706 15.2556 19.8706 15.2529 19.8706C15.0311 19.8706 14.8193 19.9659 14.6693 20.1335C14.5175 20.3033 14.4431 20.5311 14.4649 20.7605C14.5503 21.6623 14.2148 22.7296 13.5674 23.615C12.8876 24.5446 11.9555 25.1318 11.0102 25.2259C10.6911 25.2576 10.4222 25.4835 10.3291 25.7978L9.46511 28.7152C8.86246 28.6314 8.26143 28.5332 7.66204 28.422L8.52023 17.5401C8.54532 17.2248 8.38931 16.9236 8.12056 16.7679C7.85197 16.6126 7.51954 16.6313 7.26905 16.8158C7.2643 16.8193 6.76845 17.1654 6.06047 17.2602ZM27.2477 27.2326C24.6033 28.0613 21.8765 28.6182 19.0844 28.896C16.3945 29.1637 13.7155 29.1659 11.0637 28.9047L11.7005 26.7544C12.9003 26.4865 13.9981 25.7318 14.8345 24.5878C15.5149 23.6573 15.9388 22.5536 16.0381 21.5015L24.3379 21.5887L27.2477 27.2326ZM19.3937 32.1588C13.4313 32.752 7.52103 32.1341 1.81249 30.3243L2.35533 28.7639C6.48686 30.0665 10.7268 30.7218 15.0149 30.7218C16.4179 30.7218 17.8265 30.6517 19.2375 30.5113C24.9296 29.9451 30.3608 28.2636 35.3945 25.513L36.1447 26.9787C30.9251 29.829 25.2938 31.5715 19.3937 32.1588Z" fill="white"/>
<path d="M29.9591 9.36764C30.3987 9.32405 30.7203 8.92357 30.6777 8.47303C30.635 8.02257 30.244 7.69282 29.8046 7.73641C29.3649 7.7803 29.0434 8.18086 29.086 8.63147C29.1287 9.08178 29.5196 9.41153 29.9591 9.36764Z" fill="white"/>
<path d="M21.773 11.3767C21.8796 11.4267 21.9915 11.4504 22.1016 11.4504C22.4019 11.4504 22.6896 11.2743 22.8229 10.9765C22.828 10.9654 22.8331 10.9538 22.8376 10.9427C23.0082 10.5301 22.8201 10.0538 22.4175 9.87903C22.0159 9.70453 21.5522 9.89622 21.3808 10.3072C21.3814 10.3058 21.3818 10.3043 21.3824 10.3029L21.3797 10.3097C21.3798 10.3093 21.38 10.3091 21.3801 10.3088C21.2027 10.7147 21.3777 11.1908 21.773 11.3767Z" fill="white"/>
<path d="M23.0033 9.2028C23.1488 9.32086 23.3221 9.37806 23.4943 9.37806C23.7279 9.37806 23.9592 9.27263 24.1155 9.07045C24.8472 8.12351 26.5959 6.69705 27.5939 6.38198C28.0117 6.25016 28.2462 5.79605 28.1175 5.36772C27.9886 4.93955 27.5456 4.69941 27.1277 4.83116C25.7982 5.25081 23.7855 6.88364 22.8741 8.06304C22.6027 8.41423 22.6605 8.92471 23.0033 9.2028Z" fill="white"/>
<path d="M37.9986 27.2728C37.9981 27.2595 37.9976 27.2464 37.9964 27.2332C37.9952 27.22 37.9932 27.2069 37.9914 27.1938C37.9895 27.1808 37.9878 27.1679 37.9854 27.1548C37.9829 27.1415 37.9795 27.1282 37.9763 27.1149C37.9731 27.1024 37.9703 27.0897 37.9667 27.0772C37.9627 27.0639 37.9579 27.0507 37.9532 27.0374C37.9489 27.0251 37.9449 27.0127 37.94 27.0005C37.9348 26.9875 37.9286 26.975 37.9227 26.9621C37.9181 26.9526 37.9146 26.9428 37.9096 26.9333L36.4234 24.0296C36.4218 24.0266 36.42 24.0239 36.4184 24.0211C36.4168 24.0179 36.4157 24.0148 36.4139 24.0117C36.4089 24.0025 36.403 23.9943 36.3978 23.9854C36.3906 23.9734 36.3837 23.9612 36.3761 23.9498C36.3687 23.9387 36.3609 23.9284 36.3532 23.9178C36.3449 23.9067 36.3369 23.8955 36.3281 23.8849C36.32 23.8747 36.3112 23.8654 36.3026 23.8557C36.2935 23.8458 36.2845 23.8356 36.2751 23.8261C36.2658 23.8169 36.2562 23.8083 36.2466 23.7997C36.2369 23.7908 36.2274 23.7819 36.2173 23.7737C36.207 23.7654 36.1966 23.7578 36.186 23.7501C36.1758 23.7425 36.1657 23.7348 36.1551 23.7279C36.1442 23.7206 36.133 23.7139 36.1218 23.7072C36.111 23.7008 36.1004 23.6942 36.0892 23.6882C36.0779 23.6822 36.0662 23.6768 36.0546 23.6713C36.0431 23.6659 36.0317 23.6603 36.0201 23.6554C36.0084 23.6507 35.9966 23.6466 35.9848 23.6423C35.9727 23.6379 35.9606 23.6335 35.9482 23.6298C35.9365 23.6262 35.9245 23.6233 35.9127 23.6203C35.8999 23.617 35.8873 23.6137 35.8744 23.6111C35.8625 23.6087 35.8506 23.607 35.8387 23.6052C35.8255 23.6032 35.8124 23.6011 35.7991 23.5997C35.7872 23.5985 35.7751 23.5981 35.7631 23.5975C35.7497 23.5966 35.7363 23.5959 35.7229 23.5959C35.7107 23.5959 35.6986 23.5966 35.6865 23.5972C35.6731 23.5979 35.6596 23.5983 35.6462 23.5995C35.634 23.6008 35.6215 23.6029 35.6093 23.6046C35.5961 23.6065 35.5829 23.6084 35.5698 23.6109C35.5572 23.6135 35.5448 23.617 35.5322 23.6201C35.5195 23.6233 35.5068 23.6265 35.4942 23.6303C35.4813 23.6342 35.4688 23.6391 35.4562 23.6437C35.444 23.6482 35.4315 23.6526 35.4195 23.6576C35.4068 23.663 35.3945 23.6694 35.3819 23.6754C35.3729 23.6799 35.3637 23.6836 35.3546 23.6885C35.3517 23.6901 35.3491 23.692 35.3462 23.6936C35.3433 23.6951 35.3401 23.6964 35.3372 23.6982C34.2633 24.3112 33.1698 24.8726 32.0586 25.3827L27.9899 12.6782C29.6485 13.1694 30.441 15.1442 30.4791 15.2419C30.6087 15.5788 30.9405 15.7866 31.2923 15.7522L33.7171 15.5108C33.9261 15.49 34.1184 15.385 34.252 15.2188C34.3855 15.0526 34.4489 14.8389 34.4287 14.6247L33.1127 0.733116C33.0704 0.28699 32.6833 -0.0399401 32.2481 0.00394986C28.1732 0.409304 24.7356 1.79195 22.0309 4.1131C19.7868 6.03893 18.6277 8.14313 18.1364 9.22623C18.0814 9.34763 18.0384 9.45222 18.0034 9.54305C17.983 9.56047 17.9635 9.57865 17.945 9.59804C17.8905 9.60268 17.8321 9.6077 17.7663 9.61432L6.2789 10.7572C5.91567 10.7933 5.62377 11.0793 5.57174 11.4493C5.21683 13.9771 2.35184 15.9193 2.324 15.9377C2.12784 16.068 1.99789 16.2806 1.96902 16.518C1.94015 16.7558 2.01503 16.9944 2.17386 17.17C3.671 18.8266 5.22551 19.0087 6.26569 18.8692C6.46853 18.842 6.65942 18.8021 6.83606 18.7544L6.09899 28.0997C4.75949 27.7962 3.42972 27.4245 2.11196 26.9831C2.10283 26.9799 2.09378 26.978 2.08458 26.9753C2.0707 26.9714 2.05697 26.967 2.04316 26.9638C2.03121 26.9612 2.01919 26.9589 2.00716 26.9567C1.99306 26.9542 1.97896 26.9514 1.96486 26.9495C1.95291 26.9479 1.94089 26.9472 1.92894 26.946C1.91484 26.9449 1.90088 26.9437 1.88693 26.9434C1.87491 26.9431 1.86296 26.9434 1.85093 26.9437C1.83713 26.944 1.8234 26.9441 1.80967 26.9451C1.79757 26.9461 1.78562 26.9476 1.7736 26.9491C1.76031 26.9507 1.74681 26.9523 1.73367 26.9546C1.72165 26.9567 1.7097 26.9596 1.69782 26.9621C1.68491 26.9651 1.67199 26.9678 1.65923 26.9715C1.64743 26.9748 1.63577 26.9788 1.62405 26.9826C1.61173 26.9867 1.59918 26.9907 1.58694 26.9954C1.57536 26.9999 1.56423 27.0051 1.55295 27.01C1.541 27.0153 1.5289 27.0205 1.51717 27.0265C1.50619 27.0321 1.49557 27.0383 1.48474 27.0443C1.47331 27.0508 1.46195 27.0572 1.45082 27.0641C1.44028 27.0707 1.43011 27.0779 1.41987 27.0852C1.40918 27.0926 1.39835 27.1001 1.38803 27.108C1.37816 27.1157 1.36859 27.1241 1.35886 27.1324C1.34907 27.1408 1.33905 27.1492 1.32955 27.158C1.32012 27.1669 1.31129 27.1764 1.30224 27.1858C1.29333 27.1952 1.28435 27.2042 1.27581 27.214C1.26713 27.224 1.25889 27.2346 1.25058 27.2453C1.24264 27.2553 1.23484 27.2651 1.22735 27.2756C1.21926 27.2868 1.21191 27.2985 1.20441 27.3105C1.19766 27.321 1.19068 27.3315 1.18438 27.3425C1.1774 27.3547 1.17109 27.3676 1.16456 27.3802C1.15877 27.3917 1.15283 27.403 1.14756 27.4148C1.14185 27.4276 1.13673 27.4409 1.13168 27.4542C1.12804 27.4635 1.12366 27.4724 1.12032 27.4821L0.0456371 30.5704C0.0444496 30.5738 0.0439301 30.577 0.0428168 30.5802C0.0417035 30.5834 0.0403676 30.5862 0.0393285 30.5894C0.0361371 30.5991 0.0343559 30.6089 0.0314613 30.6187C0.027602 30.6325 0.0233715 30.6465 0.0203285 30.6604C0.017434 30.673 0.0153559 30.6859 0.0130551 30.6986C0.0106059 30.7125 0.007934 30.7265 0.00622697 30.7403C0.00459416 30.7534 0.00377775 30.7664 0.00273869 30.7794C0.00169962 30.793 0.000512123 30.8066 0.000141029 30.8201C-0.000230064 30.8335 0.000215248 30.8466 0.000512123 30.8598C0.000734779 30.8729 0.000808998 30.8863 0.00177384 30.8992C0.00273869 30.9126 0.0043715 30.9258 0.00600431 30.9391C0.00748869 30.9517 0.00875041 30.9645 0.0109028 30.9771C0.0131293 30.9905 0.0160238 31.0036 0.0189184 31.0168C0.021516 31.0289 0.0239653 31.0413 0.0272309 31.0535C0.0306449 31.0665 0.0348012 31.0792 0.038809 31.0919C0.0425199 31.1039 0.0462309 31.116 0.0505356 31.1279C0.0550629 31.1402 0.0602582 31.1523 0.0653793 31.1645C0.070352 31.1763 0.0751762 31.1879 0.0806684 31.1994C0.0862348 31.2112 0.092395 31.2224 0.0986293 31.2338C0.104641 31.2452 0.110653 31.2566 0.117332 31.2679C0.123938 31.2788 0.131137 31.2893 0.138039 31.2999C0.145313 31.3108 0.152512 31.3218 0.160305 31.3322C0.167727 31.3425 0.175817 31.3522 0.183832 31.362C0.192145 31.3721 0.200383 31.3824 0.209141 31.3924C0.217602 31.4017 0.226731 31.4108 0.235563 31.4199C0.24484 31.4292 0.254043 31.4386 0.263692 31.4476C0.273192 31.4563 0.28336 31.4646 0.293231 31.4728C0.30325 31.4812 0.313196 31.4896 0.323735 31.4974C0.334422 31.5055 0.345481 31.5127 0.356688 31.5202C0.367376 31.5273 0.377915 31.5348 0.388973 31.5414C0.400626 31.5484 0.412723 31.5547 0.424747 31.5612C0.436251 31.5672 0.447532 31.5735 0.459407 31.5791C0.471579 31.585 0.484344 31.5899 0.497036 31.5951C0.506536 31.5991 0.515665 31.6036 0.525387 31.6071C0.52895 31.6084 0.532512 31.6093 0.536075 31.6106C0.538672 31.6115 0.541122 31.6127 0.544016 31.6136C5.2552 33.2015 10.1044 34 15.0124 34C16.5189 34 18.0312 33.9247 19.5465 33.774C25.921 33.1395 31.9925 31.2034 37.5925 28.0199C37.6018 28.0147 37.6102 28.0085 37.6191 28.0029C37.6307 27.9956 37.6425 27.9886 37.6536 27.9808C37.6645 27.9732 37.6747 27.9652 37.6851 27.9573C37.6959 27.9488 37.7068 27.9406 37.7172 27.9317C37.727 27.9233 37.7362 27.9143 37.7456 27.9054C37.7554 27.896 37.7653 27.887 37.7745 27.8772C37.7835 27.8678 37.7919 27.8578 37.8004 27.848C37.8089 27.8382 37.8177 27.8284 37.8257 27.8181C37.834 27.8078 37.8415 27.797 37.849 27.7863C37.8565 27.7757 37.8641 27.7654 37.8709 27.7545C37.878 27.7434 37.8844 27.7318 37.891 27.7204C37.8972 27.7093 37.9037 27.6984 37.9095 27.687C37.9155 27.6752 37.9209 27.6632 37.9262 27.6513C37.9313 27.6395 37.9368 27.6282 37.9415 27.6163C37.9463 27.6041 37.9504 27.5917 37.9547 27.5794C37.9589 27.5672 37.9631 27.5551 37.9667 27.5428C37.9703 27.5305 37.9731 27.5177 37.9763 27.5052C37.9794 27.4926 37.9824 27.48 37.9849 27.4672C37.9873 27.4545 37.9891 27.4418 37.9909 27.4291C37.9927 27.416 37.9947 27.4032 37.9961 27.39C37.9973 27.3772 37.9977 27.3644 37.9984 27.3515C37.9991 27.3383 37.9999 27.3252 38 27.3118C38 27.2988 37.9992 27.2859 37.9986 27.2728ZM17.7427 11.2471C17.6665 12.0881 17.3481 12.8864 16.8128 13.553C16.1067 14.4324 15.1088 14.9771 14.0028 15.0871C12.897 15.197 11.8156 14.8594 10.9577 14.1357C10.3073 13.5872 9.84496 12.8664 9.61229 12.0559L17.7427 11.2471ZM6.06047 17.2602C5.33706 17.3568 4.64564 17.161 3.9966 16.6769C4.95855 15.8636 6.49213 14.3088 7.01174 12.3148L8.01599 12.215C8.30351 13.4567 8.97341 14.5638 9.95154 15.3889C10.9893 16.2642 12.2637 16.7306 13.5901 16.7306C13.7778 16.7306 13.9666 16.7213 14.1559 16.7024C15.6828 16.5506 17.0606 15.7984 18.0355 14.5843C18.9601 13.433 19.4162 11.9968 19.3346 10.518C19.3579 10.4644 19.3805 10.4081 19.4019 10.3457C19.4386 10.2383 19.4843 10.1046 19.5724 9.91022C20.5432 7.77041 23.6291 2.79533 31.6145 1.71163L32.7763 13.9741L31.6904 14.0822C31.115 12.9803 29.5725 10.6905 26.7909 10.9675C26.5516 10.9913 26.3359 11.1254 26.2046 11.3315C26.0731 11.5379 26.0402 11.7941 26.1152 12.0282L30.5962 26.0196C29.9939 26.2683 29.3866 26.5017 28.7748 26.7206L25.5175 20.4033C25.3818 20.14 25.1163 19.9741 24.8257 19.9711L15.261 19.8706C15.2583 19.8706 15.2556 19.8706 15.2529 19.8706C15.0311 19.8706 14.8193 19.9659 14.6693 20.1335C14.5175 20.3033 14.4431 20.5311 14.4649 20.7605C14.5503 21.6623 14.2148 22.7296 13.5674 23.615C12.8876 24.5446 11.9555 25.1318 11.0102 25.2259C10.6911 25.2576 10.4222 25.4835 10.3291 25.7978L9.46511 28.7152C8.86246 28.6314 8.26143 28.5332 7.66204 28.422L8.52023 17.5401C8.54532 17.2248 8.38931 16.9236 8.12056 16.7679C7.85197 16.6126 7.51954 16.6313 7.26905 16.8158C7.2643 16.8193 6.76845 17.1654 6.06047 17.2602ZM27.2477 27.2326C24.6033 28.0613 21.8765 28.6182 19.0844 28.896C16.3945 29.1637 13.7155 29.1659 11.0637 28.9047L11.7005 26.7544C12.9003 26.4865 13.9981 25.7318 14.8345 24.5878C15.5149 23.6573 15.9388 22.5536 16.0381 21.5015L24.3379 21.5887L27.2477 27.2326ZM19.3937 32.1588C13.4313 32.752 7.52103 32.1341 1.81249 30.3243L2.35533 28.7639C6.48686 30.0665 10.7268 30.7218 15.0149 30.7218C16.4179 30.7218 17.8265 30.6517 19.2375 30.5113C24.9296 29.9451 30.3608 28.2636 35.3945 25.513L36.1447 26.9787C30.9251 29.829 25.2938 31.5715 19.3937 32.1588Z" stroke="#3498DB" stroke-width="0.4" mask="url(#path-1-inside-1)"/>
<path d="M29.9591 9.36764C30.3987 9.32405 30.7203 8.92357 30.6777 8.47303C30.635 8.02257 30.244 7.69282 29.8046 7.73641C29.3649 7.7803 29.0434 8.18086 29.086 8.63147C29.1287 9.08178 29.5196 9.41153 29.9591 9.36764Z" stroke="#3498DB" stroke-width="0.4" mask="url(#path-1-inside-1)"/>
<path d="M21.773 11.3767C21.8796 11.4267 21.9915 11.4504 22.1016 11.4504C22.4019 11.4504 22.6896 11.2743 22.8229 10.9765C22.828 10.9654 22.8331 10.9538 22.8376 10.9427C23.0082 10.5301 22.8201 10.0538 22.4175 9.87903C22.0159 9.70453 21.5522 9.89622 21.3808 10.3072C21.3814 10.3058 21.3818 10.3043 21.3824 10.3029L21.3797 10.3097C21.3798 10.3093 21.38 10.3091 21.3801 10.3088C21.2027 10.7147 21.3777 11.1908 21.773 11.3767Z" stroke="#3498DB" stroke-width="0.4" mask="url(#path-1-inside-1)"/>
<path d="M23.0033 9.2028C23.1488 9.32086 23.3221 9.37806 23.4943 9.37806C23.7279 9.37806 23.9592 9.27263 24.1155 9.07045C24.8472 8.12351 26.5959 6.69705 27.5939 6.38198C28.0117 6.25016 28.2462 5.79605 28.1175 5.36772C27.9886 4.93955 27.5456 4.69941 27.1277 4.83116C25.7982 5.25081 23.7855 6.88364 22.8741 8.06304C22.6027 8.41423 22.6605 8.92471 23.0033 9.2028Z" stroke="#3498DB" stroke-width="0.4" mask="url(#path-1-inside-1)"/>
</svg>
