<svg width="16" height="23" viewBox="0 0 16 23" fill="none" xmlns="http://www.w3.org/2000/svg">
<path d="M15.2644 15.0918C14.9573 14.7947 14.5847 14.5847 14.1783 14.4727V4.42428C14.1783 4.25529 14.1118 4.09263 13.9919 3.96944L10.333 0.208817C10.2033 0.0756302 10.0225 0 9.83347 0H0.686052C0.307109 0 0 0.297081 0 0.663651V17.6973C0 18.0639 0.307109 18.3609 0.686052 18.3609H8.32731L7.82592 18.846C6.8451 19.7948 6.8451 21.3384 7.82592 22.2872C8.30101 22.747 8.93282 23 9.60473 23C10.2766 23 10.9083 22.747 11.3835 22.2872L15.2644 18.5331C16.2452 17.5843 16.2452 16.0406 15.2644 15.0918ZM12.7654 4.64555H9.60473V1.39697L12.7654 4.64555ZM9.69942 17.0336H1.3721V1.3273H8.23262V5.3092C8.23262 5.67577 8.53973 5.97285 8.91867 5.97285H12.8062V14.4691C12.3946 14.5801 12.0173 14.7916 11.707 15.0918L9.69942 17.0336ZM10.4132 21.3488C9.97242 21.7752 9.23685 21.775 8.79623 21.3488C8.35035 20.9174 8.35035 20.2157 8.79623 19.7844L10.2516 18.3767L11.8686 19.9409L10.4132 21.3488ZM14.2941 17.5946L12.8387 19.0025L11.2217 17.4381L12.6771 16.0304C13.1179 15.6039 13.8538 15.6044 14.2941 16.0304C14.74 16.4616 14.74 17.1633 14.2941 17.5946Z" fill="white"/>
<path d="M5.71716 9.06983H6.40321V9.73348C6.40321 10.1001 6.71032 10.3971 7.08926 10.3971C7.46802 10.3971 7.77531 10.1001 7.77531 9.73348V9.06983H8.46137C8.84013 9.06983 9.14742 8.77275 9.14742 8.40618C9.14742 8.03979 8.84013 7.74253 8.46137 7.74253H7.77531V7.07888C7.77531 6.71249 7.46802 6.41523 7.08926 6.41523C6.71032 6.41523 6.40321 6.71249 6.40321 7.07888V7.74253H5.71716C5.33822 7.74253 5.03111 8.03979 5.03111 8.40618C5.03111 8.77275 5.33822 9.06983 5.71716 9.06983Z" fill="white"/>
<path d="M10.7481 11.7244H3.43026C3.05132 11.7244 2.74421 12.0217 2.74421 12.3881C2.74421 12.7547 3.05132 13.0517 3.43026 13.0517H10.7481C11.127 13.0517 11.4341 12.7547 11.4341 12.3881C11.4341 12.0217 11.127 11.7244 10.7481 11.7244Z" fill="white"/>
<path d="M8.00388 14.379H3.43026C3.05132 14.379 2.74421 14.6761 2.74421 15.0427C2.74421 15.4093 3.05132 15.7063 3.43026 15.7063H8.00388C8.38282 15.7063 8.68993 15.4093 8.68993 15.0427C8.68993 14.6761 8.38282 14.379 8.00388 14.379Z" fill="white"/>
</svg>
