<svg width="21" height="21" viewBox="0 0 21 21" fill="none" xmlns="http://www.w3.org/2000/svg">
<path d="M8.66797 8.36321V1.99958C8.66797 1.82385 8.22025 1.6814 7.66797 1.6814H2.66797C2.11568 1.6814 1.66797 1.82385 1.66797 1.99958V8.36321C1.66797 8.53894 2.11568 8.6814 2.66797 8.6814H7.66797C8.22025 8.6814 8.66797 8.53894 8.66797 8.36321Z" stroke="#414141" stroke-width="2" stroke-linecap="round" stroke-linejoin="round"/>
<path d="M8.66797 19.3632V12.9996C8.66797 12.8239 8.22025 12.6814 7.66797 12.6814H2.66797C2.11568 12.6814 1.66797 12.8239 1.66797 12.9996V19.3632C1.66797 19.5389 2.11568 19.6814 2.66797 19.6814H7.66797C8.22025 19.6814 8.66797 19.5389 8.66797 19.3632Z" stroke="#414141" stroke-width="2" stroke-linecap="round" stroke-linejoin="round"/>
<path d="M19.668 8.36321V1.99958C19.668 1.82385 19.2203 1.6814 18.668 1.6814H13.668C13.1157 1.6814 12.668 1.82385 12.668 1.99958V8.36321C12.668 8.53894 13.1157 8.6814 13.668 8.6814H18.668C19.2203 8.6814 19.668 8.53894 19.668 8.36321Z" stroke="#414141" stroke-width="2" stroke-linecap="round" stroke-linejoin="round"/>
<path d="M19.668 19.3632V12.9996C19.668 12.8239 19.2203 12.6814 18.668 12.6814H13.668C13.1157 12.6814 12.668 12.8239 12.668 12.9996V19.3632C12.668 19.5389 13.1157 19.6814 13.668 19.6814H18.668C19.2203 19.6814 19.668 19.5389 19.668 19.3632Z" stroke="#414141" stroke-width="2" stroke-linecap="round" stroke-linejoin="round"/>
</svg>
