<svg width="21" height="20" viewBox="0 0 21 20" fill="none" xmlns="http://www.w3.org/2000/svg">
<path d="M19.1364 12H1.86364C1.38666 12 1 12.4477 1 13V18C1 18.5523 1.38666 19 1.86364 19H19.1364C19.6133 19 20 18.5523 20 18V13C20 12.4477 19.6133 12 19.1364 12Z" stroke="#414141" stroke-width="2" stroke-linecap="round" stroke-linejoin="round"/>
<path d="M19.1364 1H1.86364C1.38666 1 1 1.44772 1 2V7C1 7.55228 1.38666 8 1.86364 8H19.1364C19.6133 8 20 7.55228 20 7V2C20 1.44772 19.6133 1 19.1364 1Z" stroke="#414141" stroke-width="2" stroke-linecap="round" stroke-linejoin="round"/>
</svg>
