<svg width="46" height="41" viewBox="0 0 46 41" fill="none" xmlns="http://www.w3.org/2000/svg">
<path d="M7.78516 9.59503C7.78516 10.1473 8.23287 10.595 8.78516 10.595C9.33744 10.595 9.78516 10.1473 9.78516 9.59503H7.78516ZM8.78516 1.00128V0.00128174C8.23287 0.00128174 7.78516 0.448997 7.78516 1.00128L8.78516 1.00128ZM36.2852 1.00128H37.2852C37.2852 0.448997 36.8374 0.00128174 36.2852 0.00128174V1.00128ZM35.2852 9.59503C35.2852 10.1473 35.7329 10.595 36.2852 10.595C36.8374 10.595 37.2852 10.1473 37.2852 9.59503H35.2852ZM8.78516 25.0638V24.0638C8.23287 24.0638 7.78516 24.5115 7.78516 25.0638H8.78516ZM36.2852 25.0638H37.2852C37.2852 24.5115 36.8374 24.0638 36.2852 24.0638V25.0638ZM36.2852 39.6732V40.6732C36.8374 40.6732 37.2852 40.2254 37.2852 39.6732H36.2852ZM8.78516 39.6732H7.78516C7.78516 40.2254 8.23287 40.6732 8.78516 40.6732V39.6732ZM8.78516 31.22C9.33744 31.22 9.78516 30.7723 9.78516 30.22C9.78516 29.6677 9.33744 29.22 8.78516 29.22V31.22ZM1.05078 30.22H0.0507812C0.0507812 30.7723 0.498496 31.22 1.05078 31.22L1.05078 30.22ZM44.0195 30.22V31.22C44.5718 31.22 45.0195 30.7723 45.0195 30.22H44.0195ZM36.2852 29.22C35.7329 29.22 35.2852 29.6677 35.2852 30.22C35.2852 30.7723 35.7329 31.22 36.2852 31.22V29.22ZM9.78516 9.59503V1.00128H7.78516V9.59503H9.78516ZM8.78516 2.00128H36.2852V0.00128174H8.78516V2.00128ZM35.2852 1.00128V9.59503H37.2852V1.00128H35.2852ZM8.78516 26.0638H36.2852V24.0638H8.78516V26.0638ZM35.2852 25.0638V39.6732H37.2852V25.0638H35.2852ZM36.2852 38.6732H8.78516V40.6732H36.2852V38.6732ZM9.78516 39.6732V25.0638H7.78516V39.6732H9.78516ZM8.78516 29.22H1.05078V31.22H8.78516V29.22ZM2.05078 30.22V13.0325H0.0507812V30.22H2.05078ZM2.05078 13.0325C2.05078 11.7602 3.19347 10.595 4.77474 10.595V8.59503C2.24264 8.59503 0.0507812 10.5079 0.0507812 13.0325H2.05078ZM4.77474 10.595H40.2956V8.59503H4.77474V10.595ZM40.2956 10.595C41.8768 10.595 43.0195 11.7602 43.0195 13.0325H45.0195C45.0195 10.5079 42.8277 8.59503 40.2956 8.59503V10.595ZM43.0195 13.0325V30.22H45.0195V13.0325H43.0195ZM44.0195 29.22H36.2852V31.22H44.0195V29.22ZM37.0039 17.3294C37.0039 18.201 36.2974 18.9075 35.4258 18.9075V20.9075C37.4019 20.9075 39.0039 19.3056 39.0039 17.3294H37.0039ZM35.4258 18.9075C34.5542 18.9075 33.8477 18.201 33.8477 17.3294H31.8477C31.8477 19.3056 33.4496 20.9075 35.4258 20.9075V18.9075ZM33.8477 17.3294C33.8477 16.4578 34.5542 15.7513 35.4258 15.7513V13.7513C33.4496 13.7513 31.8477 15.3533 31.8477 17.3294H33.8477ZM35.4258 15.7513C36.2974 15.7513 37.0039 16.4578 37.0039 17.3294H39.0039C39.0039 15.3533 37.4019 13.7513 35.4258 13.7513V15.7513Z" fill="black"/>
</svg>
