<svg width="23" height="23" viewBox="0 0 23 23" fill="none" xmlns="http://www.w3.org/2000/svg">
<path d="M18.0625 17.25H6.46591L3.63266 1.66715C3.59863 1.47995 3.49996 1.31062 3.35388 1.1887C3.20779 1.06678 3.02355 1 2.83327 1H1M18.0625 17.25C16.9407 17.25 16.0312 18.1594 16.0312 19.2812C16.0312 20.4031 16.9407 21.3125 18.0625 21.3125C19.1843 21.3125 20.0938 20.4031 20.0938 19.2812C20.0938 18.1594 19.1843 17.25 18.0625 17.25ZM5.72727 13.1874H18.479C18.8596 13.1874 19.2281 13.0539 19.5203 12.81C19.8124 12.5662 20.0098 12.2276 20.0778 11.8531L21.3125 5.06253H4.25M9.53125 19.2812C9.53125 20.4031 8.62183 21.3125 7.5 21.3125C6.37817 21.3125 5.46875 20.4031 5.46875 19.2812C5.46875 18.1594 6.37817 17.25 7.5 17.25C8.62183 17.25 9.53125 18.1594 9.53125 19.2812Z" stroke="white" stroke-width="1.5" stroke-linecap="round" stroke-linejoin="round"/>
</svg>
