<svg width="40" height="68" viewBox="0 0 40 68" fill="none" xmlns="http://www.w3.org/2000/svg">
<path d="M23.4115 27.0829C22.9231 26.6884 22.2061 26.7629 21.8101 27.2492C21.3258 27.8438 20.683 28.1712 19.9998 28.1712C19.3167 28.1712 18.6738 27.8438 18.1896 27.2492C17.7937 26.7629 17.0766 26.6885 16.5882 27.0829C16.0999 27.4772 16.0252 28.1911 16.4212 28.6774C17.3328 29.7965 18.6373 30.4383 20 30.4383C21.3627 30.4383 22.6667 29.7965 23.5784 28.6774C23.9745 28.1913 23.8998 27.4772 23.4115 27.0829Z" fill="#424242"/>
<path d="M14.611 20.1223C13.9822 20.1223 13.4725 20.6299 13.4725 21.256V22.5974C13.4725 23.2235 13.9822 23.7311 14.611 23.7311C15.2398 23.7311 15.7495 23.2235 15.7495 22.5974V21.256C15.7495 20.6297 15.2398 20.1223 14.611 20.1223Z" fill="#424242"/>
<path d="M25.389 20.1223C24.7602 20.1223 24.2505 20.6299 24.2505 21.256V22.5974C24.2505 23.2235 24.7602 23.7311 25.389 23.7311C26.0178 23.7311 26.5275 23.2235 26.5275 22.5974V21.256C26.5275 20.63 26.0178 20.1223 25.389 20.1223Z" fill="#424242"/>
<path fill-rule="evenodd" clip-rule="evenodd" d="M36.7437 43.3381L27.5056 39.6586C27.4271 39.6273 27.3524 39.59 27.2817 39.5478C33.5387 38.2933 36.4689 37.1141 36.5986 37.0612C37.0743 36.8671 37.3605 36.3795 37.2967 35.8715C37.2833 35.7648 35.9583 25.1031 35.9583 15.8899C35.9583 7.1282 28.7994 0 20 0C11.2006 0 4.04175 7.12835 4.04175 15.8902C4.04175 25.099 2.71666 35.7651 2.7033 35.8718C2.63955 36.3798 2.92554 36.8673 3.40144 37.0615C3.53108 37.1144 6.46133 38.2934 12.7183 39.5481C12.6476 39.5903 12.5729 39.6276 12.4944 39.6589L3.25647 43.3383C1.27833 44.1261 0.000152877 46.006 0.000152877 48.1274L0 54.7937C0 55.0945 0.120076 55.3829 0.333662 55.5955C0.547096 55.808 0.836584 55.9273 1.13852 55.9273H1.34725V66.8664C1.34725 67.4924 1.857 68 2.48577 68C3.11454 68 3.62429 67.4924 3.62429 66.8664V55.9267H6.73624V66.8664C6.73624 67.4924 7.246 68 7.87476 68C8.50353 68 9.01328 67.4924 9.01328 66.8664V52.1101C9.01328 51.484 8.50353 50.9765 7.87476 50.9765C7.246 50.9765 6.73624 51.484 6.73624 52.1101V53.6594H2.27704V48.1272C2.27704 46.9383 2.9934 45.8847 4.10201 45.4432L8.64349 43.6344C10.2039 48.5338 14.7813 51.9021 20 51.9021C25.2187 51.9021 29.7961 48.5337 31.3565 43.6344L35.898 45.4432C37.0066 45.8847 37.723 46.9384 37.723 48.1272V53.6594H33.2638V52.1101C33.2638 51.484 32.754 50.9765 32.1252 50.9765C31.4965 50.9765 30.9867 51.484 30.9867 52.1101V66.8664C30.9867 67.4924 31.4965 68 32.1252 68C32.754 68 33.2638 67.4924 33.2638 66.8664V55.9267H36.3757V66.8664C36.3757 67.4924 36.8855 68 37.5142 68C38.143 68 38.6528 67.4924 38.6528 66.8664V55.9267H38.8615C39.4902 55.9267 40 55.4191 40 54.7931V48.1272C40 46.0058 38.7218 44.1261 36.7437 43.3381ZM20 2.26744C12.4562 2.26744 6.31878 8.37838 6.31863 15.89C6.31863 16.5139 6.31256 17.1442 6.30148 17.777C6.78178 17.5607 7.31416 17.4394 7.87461 17.4394C9.52152 17.4394 10.9565 16.2102 11.8702 15.179C12.9491 13.9615 13.5869 12.7112 13.5933 12.6986C13.7479 12.3933 14.0326 12.1731 14.368 12.1002C14.7033 12.0272 15.0543 12.1082 15.3222 12.3218C17.7724 14.2735 20.8443 14.8808 23.8151 15.468C28.4603 16.3863 33.2638 17.3358 33.2638 23.9389C33.2638 24.9287 33.1531 25.9158 32.935 26.8731C32.2802 29.7457 30.6458 32.3533 28.3324 34.215C27.7643 34.6724 27.1596 35.0789 26.5275 35.4341V37.3857C30.909 36.5199 33.6694 35.6791 34.9307 35.2524C34.6109 32.4598 33.6812 23.6729 33.6812 15.89C33.6812 8.37853 27.5438 2.26744 20 2.26744ZM13.0989 32.4517C15.0716 34.0394 17.4579 34.8787 20 34.8787C22.5421 34.8787 24.9284 34.0395 26.9011 32.4518C28.8182 30.9089 30.1726 28.7495 30.7145 26.3714C30.895 25.5786 30.9867 24.7603 30.9867 23.9391C30.9867 19.4083 28.3756 18.6812 23.3717 17.6921C20.6541 17.1547 17.6173 16.5544 14.9621 14.8522C13.8313 16.5938 11.3272 19.7066 7.87476 19.7066C7.01677 19.7066 6.31879 20.4016 6.31879 21.256C6.31879 22.1103 7.01677 22.8053 7.87476 22.8053C8.50353 22.8053 9.01328 23.3128 9.01328 23.9389C9.01328 24.76 9.10482 25.5785 9.28546 26.3713C9.82755 28.7493 11.1818 30.9087 13.0989 32.4517ZM6.01473 24.5893C5.71416 29.3558 5.27074 33.4933 5.0693 35.2524C6.32987 35.6789 9.09025 36.5198 13.4725 37.3857V35.4341C12.8404 35.0789 12.2357 34.6724 11.6676 34.215C9.35438 32.3533 7.71977 29.7457 7.06505 26.8731C6.9184 26.2299 6.82049 25.5733 6.77191 24.9116C6.5058 24.8318 6.25321 24.7217 6.01473 24.5893ZM10.7634 42.7902C11.976 46.8385 15.7222 49.635 20 49.635C24.278 49.635 28.024 46.8382 29.2366 42.7903L26.6599 41.764C25.1962 41.181 24.2505 39.7901 24.2505 38.2204V36.4451C22.8888 36.9037 21.4524 37.1462 20 37.1462C18.5476 37.1462 17.1112 36.9037 15.7495 36.4451V38.2204C15.7495 39.7901 14.8036 41.181 13.34 41.764L10.7634 42.7902Z" fill="#424242"/>
</svg>
