<svg width="76" height="68" viewBox="0 0 76 68" fill="none" xmlns="http://www.w3.org/2000/svg">
<path d="M37.8564 34.6625L30.5669 32.4551L29.774 30.8714C29.5268 30.3777 28.9617 30.1493 28.4505 30.3074V30.0319C31.4691 27.8543 33.5177 24.4148 33.8082 20.4932C35.2228 20.0984 36.3359 18.9498 36.569 17.5179C36.7161 16.6148 36.524 15.7256 36.0843 14.9865C37.4915 14.2509 38.4546 12.779 38.4546 11.0861C38.4546 9.55073 37.6398 8.15176 36.3729 7.36363C36.4428 7.07667 36.4786 6.78095 36.4786 6.48183C36.4786 4.41806 34.7972 2.73909 32.7306 2.73909C32.2348 2.73909 31.7616 2.83663 31.3281 3.01198C29.1828 1.06575 26.4358 0 23.5089 0H18.2394C15.3254 0 12.567 1.06753 10.4198 3.01183C9.98641 2.83648 9.51334 2.73909 9.01771 2.73909C6.95102 2.73909 5.26967 4.41806 5.26967 6.48183C5.26967 6.7811 5.30544 7.07681 5.37536 7.36363C4.1083 8.15176 3.29367 9.55073 3.29367 11.0861C3.29367 12.7781 4.25555 14.2491 5.66125 14.9852C5.22262 15.7217 5.03158 16.6106 5.17927 17.5179C5.41232 18.9498 6.52545 20.0984 7.94006 20.4932C8.22995 24.4095 10.2735 27.8446 13.2853 30.0227V30.3033C12.7773 30.1527 12.2194 30.3817 11.9741 30.8713L11.1818 32.4536L3.60999 34.7219C1.45068 35.3689 0 37.3161 0 39.5672V66.8877C0 67.5017 0.498452 67.9994 1.11328 67.9994C1.72811 67.9994 2.22656 67.5017 2.22656 66.8877V39.5672C2.22656 39.4857 2.23027 39.405 2.23695 39.325L6.68695 43.7687C7.47203 44.5527 7.90428 45.5949 7.90428 46.7034V66.8876C7.90428 67.5015 8.40273 67.9993 9.01756 67.9993C9.63239 67.9993 10.1308 67.5015 10.1308 66.8876V46.7034C10.1308 45.0009 9.46688 43.4003 8.26127 42.1964L3.35869 37.3008C3.62113 37.1051 3.91993 36.9505 4.24976 36.8518L9.2656 35.3492C9.65836 36.4516 12.5752 44.0225 20.2565 49.136C20.4435 49.2605 20.6588 49.3228 20.874 49.3228C21.0892 49.3228 21.3045 49.2605 21.4915 49.136C29.4301 43.8511 32.2619 36.0388 32.495 35.3624L37.2104 36.7903C37.3182 36.8229 37.4268 36.8385 37.5338 36.8385C38.0114 36.8385 38.453 36.5291 38.5987 36.049C38.7771 35.4614 38.4448 34.8408 37.8564 34.6625ZM28.7814 33.8609L25.0192 38.557C24.9676 38.6215 24.9055 38.6347 24.8566 38.6335C24.811 38.6328 24.7461 38.6181 24.6965 38.552L22.5651 35.714L28.2804 32.8604L28.7814 33.8609ZM20.874 34.0724L15.5117 31.3951V31.3206C17.1469 32.065 18.9627 32.4804 20.874 32.4804C22.7805 32.4804 24.5919 32.0667 26.224 31.3258V31.4012L20.874 34.0724ZM32.7304 4.96265C33.5694 4.96265 34.2519 5.6442 34.2519 6.48198C34.2519 6.77873 34.1643 7.06762 33.9988 7.31739C33.8021 7.61399 33.7595 7.98663 33.8842 8.31985C34.0089 8.65306 34.2856 8.90653 34.6286 9.00199C35.5703 9.26376 36.228 10.1208 36.228 11.0862C36.228 12.2867 35.25 13.2634 34.0478 13.2634C32.8456 13.2634 31.8675 12.2867 31.8675 11.0862C31.8675 10.5483 32.0746 10.0273 32.4506 9.61936C32.6917 9.35788 32.7929 8.9971 32.7231 8.64862C32.6534 8.30013 32.4209 8.0059 32.0979 7.85708C31.5579 7.60821 31.2089 7.06851 31.2089 6.48198C31.2089 5.6442 31.8914 4.96265 32.7304 4.96265ZM5.51993 11.0862C5.52008 10.121 6.17766 9.26391 7.11935 9.00214C7.46253 8.90668 7.73922 8.65321 7.86376 8.32C7.9883 7.98678 7.9457 7.61414 7.74917 7.31753C7.58366 7.06777 7.49608 6.77888 7.49608 6.48213C7.49608 5.64435 8.17859 4.9628 9.01756 4.9628C9.85653 4.9628 10.539 5.6442 10.539 6.48198C10.539 7.06851 10.1901 7.60836 9.65005 7.85708C9.3269 8.0059 9.09445 8.30013 9.02483 8.64862C8.95507 8.9971 9.0563 9.35788 9.29737 9.61936C9.67336 10.0273 9.88043 10.5483 9.88043 11.0862C9.88043 12.2867 8.90237 13.2634 7.70018 13.2634C6.49799 13.2634 5.51993 12.2867 5.51993 11.0862ZM10.1308 19.5291C10.1308 18.9151 9.63239 18.4174 9.01756 18.4174C8.19878 18.4174 7.49326 17.8774 7.37674 17.1613C7.24388 16.3455 7.74382 15.595 8.53944 15.4159C8.58249 15.4063 8.62391 15.3935 8.66458 15.3793C10.632 14.9388 12.1068 13.1819 12.1068 11.0864C12.1068 10.4064 11.9471 9.74253 11.6461 9.14088C12.3485 8.44881 12.7656 7.49422 12.7656 6.48198C12.7656 5.7315 12.5424 5.03232 12.16 4.44578C13.8591 3.00946 15.9917 2.22356 18.2392 2.22356H23.5087C25.7662 2.22356 27.8924 3.0056 29.5898 4.44311C29.2062 5.03024 28.9824 5.73032 28.9824 6.48198C28.9824 7.49422 29.3995 8.44881 30.1019 9.14088C29.8007 9.74253 29.6411 10.4064 29.6411 11.0864C29.6411 13.2241 31.176 15.0099 33.2029 15.4048C33.237 15.4187 33.2721 15.4313 33.3081 15.442C33.9448 15.6319 34.5143 16.2834 34.3714 17.1615C34.2549 17.8775 33.5493 18.4175 32.7306 18.4175C32.1157 18.4175 31.6173 18.9153 31.6173 19.5292C31.6173 25.4447 26.798 30.2572 20.8741 30.2572C14.9503 30.2572 10.1308 25.4445 10.1308 19.5291ZM13.1149 33.5646L13.4676 32.8604L19.183 35.714L17.0516 38.552C17.002 38.6181 16.9371 38.6328 16.8916 38.6335C16.8429 38.6374 16.7805 38.6215 16.7289 38.557L12.9964 33.8981C13.0533 33.7943 13.0932 33.6818 13.1149 33.5646ZM20.874 46.8616C15.8901 43.3245 13.2076 38.6952 12.0676 36.2979L14.9902 39.9459C15.4553 40.5264 16.1448 40.8569 16.8871 40.8569C16.9002 40.8569 16.9132 40.8568 16.9263 40.8566C17.6835 40.8448 18.3783 40.4909 18.8327 39.886L19.7606 38.6506V43.2085C19.7606 43.8225 20.259 44.3202 20.8738 44.3202C21.4887 44.3202 21.9871 43.8225 21.9871 43.2085V38.6506L22.915 39.886C23.3694 40.4911 24.0642 40.8448 24.8214 40.8566C24.8344 40.8568 24.8475 40.8569 24.8606 40.8569C25.6029 40.8569 26.2924 40.5264 26.7574 39.9459L29.6889 36.2866C28.5581 38.6774 25.8837 43.308 20.874 46.8616Z" fill="white"/>
<path d="M24.2101 22.6124C23.7326 22.2255 23.0315 22.2986 22.6442 22.7754C22.1707 23.3585 21.5421 23.6796 20.8741 23.6796C20.2062 23.6796 19.5775 23.3585 19.104 22.7754C18.7169 22.2986 18.0157 22.2256 17.5382 22.6124C17.0606 22.9991 16.9876 23.6992 17.3749 24.176C18.2662 25.2735 19.5418 25.9029 20.8743 25.9029C22.2068 25.9029 23.4819 25.2733 24.3734 24.176C24.7607 23.6992 24.6876 22.9991 24.2101 22.6124Z" fill="white"/>
<path d="M15.6045 15.7864C14.9896 15.7864 14.4912 16.2841 14.4912 16.8981V18.2136C14.4912 18.8275 14.9896 19.3253 15.6045 19.3253C16.2193 19.3253 16.7177 18.8275 16.7177 18.2136V16.8981C16.7177 16.2841 16.2193 15.7864 15.6045 15.7864Z" fill="white"/>
<path d="M26.1435 15.7864C25.5287 15.7864 25.0302 16.2841 25.0302 16.8981V18.2136C25.0302 18.8275 25.5287 19.3253 26.1435 19.3253C26.7583 19.3253 27.2568 18.8275 27.2568 18.2136V16.8981C27.2568 16.2841 26.7583 15.7864 26.1435 15.7864Z" fill="white"/>
<path d="M37.4697 39.7913C37.0349 39.3572 36.33 39.3572 35.8954 39.7913L33.4867 42.1966C32.2811 43.4005 31.6171 45.0011 31.6171 46.7036V66.8877C31.6171 67.5017 32.1156 67.9994 32.7304 67.9994C33.3452 67.9994 33.8437 67.5017 33.8437 66.8877V46.7036C33.8437 45.595 34.2761 44.5527 35.061 43.7688L37.4697 41.3636C37.9045 40.9294 37.9045 40.2255 37.4697 39.7913Z" fill="white"/>
<path d="M59.7794 31.821C59.3019 31.4341 58.6006 31.5072 58.2135 31.984C57.74 32.5672 57.1114 32.8882 56.4434 32.8882C55.7754 32.8882 55.1468 32.5672 54.6733 31.984C54.2862 31.5072 53.5849 31.4343 53.1074 31.821C52.6299 32.2077 52.5569 32.9078 52.9441 33.3846C53.8354 34.482 55.1107 35.1115 56.4433 35.1115C57.7758 35.1115 59.0511 34.482 59.9427 33.3846C60.3299 32.9078 60.2569 32.2077 59.7794 31.821Z" fill="white"/>
<path d="M44.5868 51.3053C43.972 51.3053 43.4735 51.8031 43.4735 52.417V66.8877C43.4735 67.5017 43.972 67.9994 44.5868 67.9994C45.2017 67.9994 45.7001 67.5017 45.7001 66.8877V52.417C45.7001 51.8031 45.2017 51.3053 44.5868 51.3053Z" fill="white"/>
<path d="M68.2997 51.3053C67.6848 51.3053 67.1864 51.8031 67.1864 52.417V66.8877C67.1864 67.5017 67.6848 67.9994 68.2997 67.9994C68.9145 67.9994 69.413 67.5017 69.413 66.8877V52.417C69.413 51.8031 68.9145 51.3053 68.2997 51.3053Z" fill="white"/>
<path d="M72.2782 43.7082C72.9737 42.8275 73.3651 41.7295 73.3651 40.5774C73.3651 38.7039 72.3361 37.0273 70.726 36.1552C70.729 36.0944 70.7303 36.0338 70.7303 35.9731C70.7303 34.5281 70.0297 33.2053 68.886 32.3912C68.9617 32.1348 69.0321 31.8766 69.0914 31.6151C69.2357 30.9802 69.3278 30.3094 69.3709 29.5742C71.1232 26.9923 72.0477 23.9804 72.0477 20.8446C72.0477 12.2525 65.0476 5.26222 56.4433 5.26222C47.8389 5.26222 40.8388 12.2525 40.8388 20.8446C40.8388 23.9806 41.7634 26.9926 43.5157 29.5743C43.5589 30.31 43.6509 30.9807 43.7951 31.615C43.8544 31.8763 43.9248 32.1345 44.0005 32.3911C42.8568 33.2051 42.1562 34.5279 42.1562 35.9731C42.1562 36.0338 42.1577 36.0944 42.1605 36.1552C40.5502 37.0273 39.5214 38.7041 39.5214 40.5774C39.5214 41.7295 39.913 42.8275 40.6083 43.7082C38.314 45.0829 36.8867 47.5522 36.8867 50.2926V66.8883C36.8867 67.5023 37.3851 68 37.9999 68C38.6148 68 39.1132 67.5023 39.1132 66.8883V50.2926C39.1132 48.0446 40.4638 46.0526 42.554 45.2176L42.767 45.1325C46.0598 49.5764 51.1325 52.2132 56.4434 52.2132C61.8269 52.2132 66.7884 49.6372 70.1188 45.1322L70.3327 45.2176C72.423 46.0526 73.7734 48.0446 73.7734 50.2926V66.8877C73.7734 67.5017 74.2719 67.9994 74.8867 67.9994C75.5015 67.9994 76 67.5017 76 66.8877V50.2926C75.9999 47.5522 74.5725 45.0829 72.2782 43.7082ZM43.0653 20.8446C43.0653 13.4785 49.0667 7.48562 56.4433 7.48562C63.8198 7.48562 69.8212 13.4785 69.8212 20.8446C69.8212 22.7183 69.4357 24.5399 68.6941 26.2211C67.0901 22.7744 63.5249 21.8085 60.0567 20.8714C57.2528 20.1138 54.3535 19.3303 51.869 17.3456C51.6064 17.1358 51.2628 17.0556 50.9347 17.1278C50.6064 17.1998 50.3282 17.4161 50.1779 17.7164C50.1663 17.7394 49 20.0292 46.7236 21.1658C46.1736 21.4403 45.9507 22.1081 46.2257 22.6573C46.5006 23.2065 47.1692 23.4292 47.7193 23.1544C49.5313 22.2497 50.7798 20.813 51.4837 19.8184C54.0769 21.5589 56.9263 22.329 59.4751 23.0176C60.3117 23.2437 61.0816 23.458 61.7854 23.6814C61.761 23.6809 61.737 23.6796 61.7126 23.6796C60.3559 23.6796 59.1653 24.4031 58.5074 25.4841C57.892 25.1678 57.1856 24.9951 56.4433 24.9951C55.7008 24.9951 54.9942 25.1678 54.3789 25.4841C53.7209 24.4032 52.5303 23.6796 51.1737 23.6796C49.107 23.6796 47.4257 25.3586 47.4257 27.4223C47.4257 29.4861 49.107 31.1651 51.1737 31.1651C53.0999 31.1651 54.6907 29.7065 54.8982 27.8374C55.2614 27.4514 55.8293 27.2185 56.4433 27.2185C57.057 27.2185 57.625 27.4514 57.9882 27.8374C58.1957 29.7065 59.7865 31.1651 61.7126 31.1651C63.7793 31.1651 65.4607 29.4861 65.4607 27.4223C65.4607 26.3412 64.9987 25.3661 64.2622 24.6824C65.8543 25.5487 66.8336 26.7583 67.1965 28.8945C67.1778 28.9691 67.1659 29.0465 67.1629 29.1264C67.1364 29.8676 67.0568 30.5207 66.9199 31.1231C66.39 33.4552 65.0657 35.5728 63.1911 37.086C61.2621 38.643 58.9288 39.466 56.4431 39.466C53.9574 39.466 51.6239 38.643 49.6951 37.086C47.8205 35.5729 46.4963 33.4552 45.9663 31.1231C45.8297 30.5219 45.7501 29.8694 45.7234 29.1283C45.7127 28.8339 45.5882 28.5696 45.3928 28.3772C43.8694 26.1537 43.0653 23.5535 43.0653 20.8446ZM63.2343 27.4222C63.2343 28.26 62.5517 28.9415 61.7128 28.9415C60.8738 28.9415 60.1913 28.26 60.1913 27.4222C60.1913 26.5844 60.8738 25.9029 61.7128 25.9029C62.5517 25.9029 63.2343 26.5844 63.2343 27.4222ZM52.6952 27.4222C52.6952 28.26 52.0127 28.9415 51.1737 28.9415C50.3348 28.9415 49.6522 28.26 49.6522 27.4222C49.6522 26.5844 50.3348 25.9029 51.1737 25.9029C52.0127 25.9029 52.6952 26.5844 52.6952 27.4222ZM62.8436 42.2227C61.1126 43.8272 58.8484 44.7276 56.4431 44.7276C54.0403 44.7276 51.7749 43.8265 50.0434 42.2224C50.7387 41.9185 51.3144 41.4197 51.7096 40.792C53.2091 41.3785 54.8161 41.6891 56.4433 41.6891C58.0704 41.6891 59.6774 41.3785 61.1769 40.792C61.5722 41.42 62.1483 41.9188 62.8436 42.2227ZM42.7557 42.7424C42.1202 42.2061 41.7481 41.4175 41.7481 40.5772C41.748 39.348 42.5463 38.269 43.7344 37.8924C44.3032 37.7121 44.6282 37.1161 44.4718 36.5411C44.4109 36.3181 44.3827 36.1375 44.3827 35.9731C44.3827 35.4576 44.5638 34.9744 44.8764 34.5934C45.7016 36.2134 46.8653 37.6605 48.2955 38.8149C48.7382 39.1722 49.2034 39.4978 49.6867 39.7918C49.5302 39.9717 49.3327 40.1153 49.1041 40.2066L42.7557 42.7424ZM56.4433 49.9898C51.956 49.9898 47.8093 47.9198 44.9138 44.275L47.8024 43.1214C50.0122 45.5636 53.1232 46.9511 56.4434 46.9511C59.7668 46.9511 62.8744 45.564 65.0841 43.1212L67.9737 44.2755C65.077 47.9191 60.9232 49.9898 56.4433 49.9898ZM70.1308 42.7425L63.7823 40.2066C63.5537 40.1153 63.3563 39.9717 63.1998 39.7918C63.683 39.4977 64.1483 39.1722 64.591 38.8149C66.0212 37.6605 67.1849 36.2133 68.0101 34.5934C68.3227 34.9744 68.5038 35.4576 68.5038 35.9731C68.5038 36.1375 68.4756 36.3181 68.4147 36.5411C68.2581 37.1161 68.5833 37.7121 69.1522 37.8924C70.3402 38.269 71.1385 39.348 71.1385 40.5774C71.1385 41.4177 70.7663 42.2062 70.1308 42.7425Z" fill="white"/>
</svg>
