<svg width="148" height="44" viewBox="0 0 148 44" fill="none" xmlns="http://www.w3.org/2000/svg">
<path d="M142.519 0.88C143.74 0.88 144.911 1.36675 145.774 2.23317C146.638 3.09958 147.123 4.2747 147.123 5.5V38.5C147.123 39.7253 146.638 40.9004 145.774 41.7668C144.911 42.6333 143.74 43.12 142.519 43.12H5.48148C4.26031 43.12 3.08915 42.6333 2.22565 41.7668C1.36215 40.9004 0.877037 39.7253 0.877037 38.5V5.5C0.877037 4.2747 1.36215 3.09958 2.22565 2.23317C3.08915 1.36675 4.26031 0.88 5.48148 0.88H142.519ZM142.519 0H5.48148C4.0277 0 2.63347 0.579463 1.60549 1.61091C0.577512 2.64236 0 4.04131 0 5.5V38.5C0 39.9587 0.577512 41.3576 1.60549 42.3891C2.63347 43.4205 4.0277 44 5.48148 44H142.519C143.972 44 145.367 43.4205 146.395 42.3891C147.423 41.3576 148 39.9587 148 38.5V5.5C148 4.04131 147.423 2.64236 146.395 1.61091C145.367 0.579463 143.972 0 142.519 0Z" fill="#032964"/>
<path d="M74.7014 23.9185C73.7808 23.9228 72.8821 24.1997 72.1188 24.7143C71.3555 25.2289 70.7617 25.9581 70.4124 26.8098C70.0631 27.6616 69.974 28.5977 70.1562 29.5001C70.3385 30.4024 70.784 31.2306 71.4364 31.88C72.0889 32.5294 72.9191 32.971 73.8224 33.149C74.7256 33.327 75.6613 33.2335 76.5113 32.8802C77.3614 32.5269 78.0878 31.9297 78.5988 31.164C79.1098 30.3982 79.3825 29.4983 79.3826 28.5777C79.3915 27.9615 79.2764 27.3498 79.044 26.7791C78.8116 26.2083 78.4668 25.6901 78.03 25.2554C77.5932 24.8207 77.0734 24.4783 76.5016 24.2486C75.9297 24.0189 75.3175 23.9066 74.7014 23.9185ZM74.7014 31.4062C74.1352 31.4458 73.5702 31.3141 73.0799 31.0284C72.5896 30.7426 72.1965 30.316 71.9519 29.8039C71.7072 29.2918 71.6223 28.7179 71.7081 28.1569C71.7939 27.5959 72.0465 27.0737 72.4331 26.6581C72.8196 26.2426 73.3223 25.953 73.8756 25.8269C74.429 25.7008 75.0074 25.744 75.5358 25.9511C76.0643 26.1581 76.5182 26.5193 76.8386 26.9878C77.159 27.4562 77.3311 28.0102 77.3325 28.5777C77.3501 28.9373 77.2956 29.2968 77.1721 29.635C77.0486 29.9732 76.8587 30.2832 76.6135 30.5469C76.3682 30.8105 76.0727 31.0223 75.7443 31.1699C75.4159 31.3175 75.0613 31.3978 74.7014 31.4062ZM64.4948 23.9185C63.5738 23.9206 62.6741 24.1957 61.9093 24.709C61.1445 25.2223 60.549 25.9507 60.1981 26.8023C59.8471 27.6538 59.7564 28.5903 59.9374 29.4934C60.1184 30.3965 60.563 31.2257 61.2151 31.8762C61.8671 32.5267 62.6973 32.9693 63.6009 33.1482C64.5044 33.3271 65.4406 33.2342 66.2914 32.8813C67.1421 32.5283 67.8691 31.9311 68.3806 31.1651C68.8921 30.3991 69.1651 29.4988 69.1651 28.5777C69.174 27.9615 69.0589 27.3498 68.8265 26.7791C68.5941 26.2083 68.2493 25.6901 67.8125 25.2554C67.3757 24.8207 66.856 24.4783 66.2841 24.2486C65.7122 24.0189 65.1 23.9066 64.4839 23.9185H64.4948ZM64.4948 31.4062C63.9284 31.448 63.3625 31.3183 62.8708 31.034C62.3791 30.7497 61.9844 30.324 61.738 29.8122C61.4917 29.3005 61.4051 28.7264 61.4896 28.1648C61.574 27.6031 61.8256 27.0799 62.2116 26.6632C62.5976 26.2466 63.1001 25.9558 63.6536 25.8287C64.2072 25.7016 64.7862 25.7441 65.3153 25.9507C65.8443 26.1572 66.299 26.5183 66.62 26.9868C66.941 27.4554 67.1135 28.0098 67.115 28.5777C67.1327 28.9373 67.0781 29.2968 66.9546 29.635C66.8312 29.9732 66.6412 30.2832 66.396 30.5469C66.1508 30.8105 65.8552 31.0223 65.5268 31.1699C65.1984 31.3175 64.8438 31.3978 64.4839 31.4062H64.4948ZM52.3369 25.3546V27.3279H57.0729C56.9987 28.2574 56.6123 29.1344 55.9766 29.8165C55.5028 30.2992 54.9332 30.6773 54.3045 30.9265C53.6757 31.1757 53.0018 31.2906 52.326 31.2636C50.9303 31.2636 49.5919 30.7092 48.605 29.7224C47.6181 28.7355 47.0637 27.397 47.0637 26.0014C47.0637 24.6058 47.6181 23.2673 48.605 22.2805C49.5919 21.2936 50.9303 20.7392 52.326 20.7392C53.661 20.7174 54.9502 21.226 55.9108 22.1534L57.3031 20.7611C56.6547 20.1045 55.881 19.5847 55.0279 19.2325C54.1748 18.8804 53.2598 18.703 52.3369 18.711C51.3623 18.6731 50.3901 18.8323 49.4785 19.1791C48.5668 19.5259 47.7346 20.0532 47.0317 20.7293C46.3287 21.4055 45.7695 22.2166 45.3875 23.114C45.0055 24.0114 44.8086 24.9767 44.8086 25.9521C44.8086 26.9274 45.0055 27.8927 45.3875 28.7902C45.7695 29.6876 46.3287 30.4987 47.0317 31.1748C47.7346 31.851 48.5668 32.3782 49.4785 32.725C50.3901 33.0718 51.3623 33.2311 52.3369 33.1931C53.2753 33.2355 54.2119 33.0765 55.0836 32.7266C55.9554 32.3768 56.7421 31.8443 57.3908 31.165C58.5394 29.9031 59.1526 28.2442 59.1011 26.5386C59.1046 26.1231 59.0679 25.7082 58.9914 25.2998L52.3369 25.3546ZM102.01 26.8894C101.724 26.0483 101.19 25.3138 100.477 24.7833C99.7643 24.2527 98.9074 23.9511 98.0196 23.9185C97.4199 23.9173 96.8264 24.0391 96.2756 24.2764C95.7249 24.5137 95.2287 24.8615 94.8177 25.2982C94.4067 25.7349 94.0897 26.2512 93.8861 26.8153C93.6826 27.3794 93.5969 27.9792 93.6344 28.5777C93.6211 29.1904 93.7314 29.7996 93.9588 30.3687C94.1861 30.9379 94.5259 31.4554 94.9577 31.8903C95.3895 32.3252 95.9046 32.6686 96.4721 32.8999C97.0396 33.1313 97.648 33.246 98.2608 33.237C99.0276 33.2411 99.7836 33.055 100.461 32.6953C101.138 32.3356 101.716 31.8136 102.142 31.1759L100.552 30.0796C100.315 30.4752 99.9789 30.8023 99.5773 31.0291C99.1756 31.2558 98.722 31.3744 98.2608 31.3733C97.7859 31.3914 97.3166 31.2662 96.9138 31.014C96.511 30.7617 96.1935 30.3942 96.0024 29.959L102.24 27.3828L102.01 26.8894ZM95.6516 28.4462C95.6294 28.1071 95.675 27.767 95.7859 27.4457C95.8968 27.1245 96.0706 26.8286 96.2973 26.5754C96.5239 26.3222 96.7988 26.1168 97.1059 25.9712C97.4129 25.8256 97.7459 25.7427 98.0854 25.7273C98.439 25.704 98.7917 25.7851 99.0996 25.9605C99.4076 26.136 99.6572 26.398 99.8175 26.714L95.6516 28.4462ZM90.5867 32.9629H92.6368V19.2592H90.5867V32.9629ZM87.232 24.9599H87.1553C86.8463 24.6145 86.4678 24.3383 86.0446 24.1493C85.6214 23.9604 85.1631 23.863 84.6996 23.8636C83.5015 23.9217 82.3718 24.4386 81.5444 25.307C80.7171 26.1754 80.2556 27.3289 80.2556 28.5284C80.2556 29.7278 80.7171 30.8813 81.5444 31.7498C82.3718 32.6182 83.5015 33.135 84.6996 33.1931C85.1642 33.2009 85.6248 33.1068 86.0491 32.9174C86.4733 32.728 86.8509 32.4479 87.1553 32.0968H87.2211V32.7656C87.2211 34.5525 86.2673 35.5063 84.7325 35.5063C84.2213 35.4943 83.7252 35.3305 83.3074 35.0357C82.8897 34.7409 82.569 34.3285 82.3864 33.8509L80.5994 34.5964C80.9358 35.4146 81.509 36.1137 82.2454 36.604C82.9817 37.0943 83.8478 37.3534 84.7325 37.3481C87.1334 37.3481 89.1177 35.9339 89.1177 32.4915V24.1925H87.232V24.9599ZM84.886 31.4062C84.1788 31.3438 83.5206 31.0189 83.0412 30.4953C82.5617 29.9718 82.2958 29.2876 82.2958 28.5777C82.2958 27.8678 82.5617 27.1837 83.0412 26.6601C83.5206 26.1366 84.1788 25.8116 84.886 25.7493C85.2366 25.7673 85.5801 25.8552 85.8961 26.008C86.2122 26.1608 86.4946 26.3753 86.7265 26.6389C86.9584 26.9025 87.1352 27.2098 87.2465 27.5428C87.3578 27.8758 87.4013 28.2277 87.3745 28.5777C87.4045 28.9293 87.3628 29.2833 87.2519 29.6183C87.1411 29.9533 86.9635 30.2623 86.7299 30.5267C86.4962 30.7911 86.2114 31.0054 85.8926 31.1565C85.5737 31.3077 85.2276 31.3926 84.875 31.4062H84.886ZM111.614 19.2592H106.713V32.9629H108.763V27.7665H111.625C112.209 27.8084 112.796 27.7296 113.348 27.5348C113.9 27.3401 114.407 27.0336 114.836 26.6345C115.264 26.2354 115.606 25.7523 115.84 25.2152C116.074 24.6781 116.195 24.0986 116.195 23.5128C116.195 22.927 116.074 22.3475 115.84 21.8105C115.606 21.2734 115.264 20.7902 114.836 20.3911C114.407 19.992 113.9 19.6856 113.348 19.4908C112.796 19.2961 112.209 19.2172 111.625 19.2592H111.614ZM111.614 25.837H108.752V21.1668H111.658C112.281 21.1668 112.879 21.4145 113.32 21.8555C113.761 22.2965 114.009 22.8946 114.009 23.5183C114.009 24.142 113.761 24.7401 113.32 25.1811C112.879 25.6221 112.281 25.8699 111.658 25.8699L111.614 25.837ZM124.254 23.8636C123.508 23.819 122.765 23.9934 122.116 24.3654C121.467 24.7374 120.942 25.2908 120.603 25.9576L122.423 26.714C122.603 26.3833 122.874 26.1119 123.205 25.9328C123.536 25.7538 123.912 25.6748 124.287 25.7054C124.547 25.675 124.811 25.6968 125.063 25.7694C125.314 25.842 125.549 25.964 125.753 26.1283C125.957 26.2926 126.127 26.4959 126.251 26.7263C126.376 26.9568 126.454 27.2097 126.479 27.4705V27.613C125.821 27.2644 125.087 27.0836 124.342 27.0868C122.379 27.0868 120.395 28.1831 120.395 30.1673C120.414 30.5904 120.518 31.0054 120.701 31.3876C120.883 31.7698 121.141 32.1115 121.457 32.3926C121.774 32.6737 122.144 32.8884 122.546 33.024C122.947 33.1596 123.371 33.2134 123.794 33.1822C124.31 33.2192 124.827 33.1167 125.289 32.8852C125.752 32.6537 126.145 32.3019 126.425 31.8666H126.49V32.9629H128.464V27.6897C128.464 25.2888 126.644 23.8965 124.309 23.8965L124.254 23.8636ZM124.002 31.3733C123.333 31.3733 122.401 31.0334 122.401 30.2112C122.401 29.1149 123.563 28.7531 124.594 28.7531C125.245 28.7371 125.889 28.8961 126.458 29.2136C126.389 29.8071 126.108 30.3559 125.667 30.7588C125.226 31.1617 124.654 31.3916 124.057 31.4062L124.002 31.3733ZM135.655 24.1925L133.309 30.1345H133.244L130.81 24.1925H128.617L132.268 32.5025L130.185 37.1179H132.323L137.936 24.1925H135.655ZM117.227 32.9629H119.277V19.2592H117.227V32.9629Z" fill="#032964"/>
<path d="M46.165 15.7182H45.3538V13.5257H46.0444C46.3594 13.1919 46.5972 12.7932 46.7412 12.3575C46.8851 11.9218 46.9317 11.4598 46.8776 11.0042V7.74817H51.2628V13.5147H51.9973V15.7073H51.1861V14.3259H46.165V15.7182ZM47.6889 11.0371C47.74 11.9214 47.5222 12.8004 47.064 13.5585H50.3529V8.55943H47.6889V11.0371ZM58.5532 13.4708C57.9123 14.1082 57.0452 14.4659 56.1413 14.4659C55.2375 14.4659 54.3704 14.1082 53.7295 13.4708C53.1065 12.8114 52.7595 11.9387 52.7595 11.0316C52.7595 10.1245 53.1065 9.25171 53.7295 8.59232C54.0454 8.27411 54.4211 8.02156 54.8351 7.84922C55.249 7.67687 55.6929 7.58815 56.1413 7.58815C56.5897 7.58815 57.0337 7.67687 57.4476 7.84922C57.8615 8.02156 58.2373 8.27411 58.5532 8.59232C59.1786 9.25046 59.5273 10.1237 59.5273 11.0316C59.5273 11.9395 59.1786 12.8127 58.5532 13.4708ZM54.3544 12.9227C54.829 13.3953 55.4715 13.6607 56.1413 13.6607C56.8111 13.6607 57.4537 13.3953 57.9283 12.9227C58.3967 12.4064 58.6561 11.7342 58.6561 11.0371C58.6561 10.3399 58.3967 9.66776 57.9283 9.15143C57.4537 8.67879 56.8111 8.41343 56.1413 8.41343C55.4715 8.41343 54.829 8.67879 54.3544 9.15143C53.886 9.66776 53.6265 10.3399 53.6265 11.0371C53.6265 11.7342 53.886 12.4064 54.3544 12.9227ZM63.7825 14.4685C63.3299 14.4775 62.8802 14.3948 62.4604 14.2254C62.0407 14.056 61.6595 13.8034 61.3399 13.4828C61.0204 13.1622 60.769 12.7802 60.6009 12.3599C60.4329 11.9396 60.3516 11.4896 60.3621 11.0371C60.3516 10.5845 60.4329 10.1345 60.6009 9.71421C60.769 9.2939 61.0204 8.91194 61.3399 8.59135C61.6595 8.27075 62.0407 8.01814 62.4604 7.84874C62.8802 7.67934 63.3299 7.59665 63.7825 7.60565C64.2412 7.59429 64.6966 7.68703 65.1143 7.87691C65.532 8.06679 65.9013 8.34887 66.1944 8.70195L65.6024 9.27202C65.3858 8.99712 65.1066 8.77804 64.7881 8.63309C64.4696 8.48815 64.1211 8.42154 63.7715 8.43883C63.435 8.43009 63.1003 8.4897 62.7875 8.61407C62.4747 8.73844 62.1903 8.92498 61.9517 9.16239C61.4764 9.68181 61.2127 10.3604 61.2127 11.0645C61.2127 11.7685 61.4764 12.4471 61.9517 12.9665C62.1903 13.204 62.4747 13.3905 62.7875 13.5149C63.1003 13.6392 63.435 13.6988 63.7715 13.6901C64.1574 13.6867 64.5377 13.5973 64.8847 13.4285C65.2317 13.2598 65.5368 13.0158 65.7778 12.7144L66.3698 13.3064C66.0714 13.6683 65.6971 13.9602 65.2735 14.1615C64.8055 14.3734 64.2961 14.4783 63.7825 14.4685ZM69.8121 14.3259H68.968V8.55943H67.1262V7.74817H71.643V8.55943H69.8121V14.3259ZM77.4533 7.74817L74.9647 13.2954C74.8651 13.6236 74.6661 13.9127 74.3951 14.1228C74.124 14.3329 73.7945 14.4537 73.4518 14.4685C73.2252 14.4656 73.0015 14.4171 72.7941 14.3259L73.0133 13.5476C73.1465 13.6252 73.2977 13.6667 73.4518 13.6682C73.613 13.6803 73.7739 13.642 73.9123 13.5585C74.0444 13.4467 74.1462 13.3035 74.2083 13.1419L74.4495 12.6157L72.2569 7.75913H73.2545L74.877 11.5304L76.4557 7.74817H77.4533ZM78.4071 14.3259V7.74817H83.165V14.3259H82.3209V8.55943H79.2513V14.3259H78.4071ZM84.667 14.3259V7.74817H85.5111V10.5656H88.8V7.74817H89.6441V14.3259H88.8V11.355H85.5111V14.3259H84.667ZM96.5398 13.4708C95.8989 14.1082 95.0318 14.4659 94.128 14.4659C93.2241 14.4659 92.357 14.1082 91.7161 13.4708C91.0932 12.8114 90.7461 11.9387 90.7461 11.0316C90.7461 10.1245 91.0932 9.25171 91.7161 8.59232C92.032 8.27411 92.4078 8.02156 92.8217 7.84922C93.2357 7.67687 93.6796 7.58815 94.128 7.58815C94.5764 7.58815 95.0203 7.67687 95.4343 7.84922C95.8482 8.02156 96.2239 8.27411 96.5398 8.59232C97.1653 9.25046 97.514 10.1237 97.514 11.0316C97.514 11.9395 97.1653 12.8127 96.5398 13.4708ZM92.341 12.9227C92.8157 13.3953 93.4582 13.6607 94.128 13.6607C94.7978 13.6607 95.4403 13.3953 95.915 12.9227C96.3833 12.4064 96.6428 11.7342 96.6428 11.0371C96.6428 10.3399 96.3833 9.66776 95.915 9.15143C95.4403 8.67879 94.7978 8.41343 94.128 8.41343C93.4582 8.41343 92.8157 8.67879 92.341 9.15143C91.8727 9.66776 91.6132 10.3399 91.6132 11.0371C91.6132 11.7342 91.8727 12.4064 92.341 12.9227ZM100.958 14.3259V7.74817H103.337C103.831 7.73884 104.31 7.91934 104.674 8.25246C104.858 8.41144 105.004 8.60874 105.102 8.83039C105.201 9.05204 105.249 9.29262 105.244 9.53513C105.25 9.82736 105.165 10.1142 105.003 10.3574C104.842 10.5935 104.618 10.7797 104.356 10.8945C104.674 10.9998 104.953 11.1985 105.157 11.4646C105.368 11.7332 105.48 12.066 105.475 12.4074C105.48 12.6602 105.43 12.911 105.328 13.1422C105.225 13.3733 105.073 13.5791 104.883 13.7449C104.501 14.097 103.999 14.2893 103.479 14.2821L100.958 14.3259ZM101.802 10.5656H103.337C103.48 10.5716 103.623 10.5463 103.756 10.4914C103.888 10.4365 104.007 10.3533 104.104 10.2477C104.201 10.1597 104.28 10.053 104.335 9.9341C104.39 9.81516 104.42 9.68636 104.424 9.5554C104.428 9.42444 104.406 9.294 104.358 9.17186C104.311 9.04971 104.24 8.93837 104.148 8.84447C104.057 8.74084 103.943 8.65863 103.816 8.60369C103.689 8.54875 103.552 8.52241 103.414 8.52654H101.846L101.802 10.5656ZM101.802 13.5147H103.501C103.65 13.5197 103.798 13.4918 103.934 13.433C104.07 13.3743 104.192 13.2861 104.291 13.1748C104.484 12.9744 104.594 12.7078 104.598 12.4294C104.598 12.1386 104.482 11.8598 104.277 11.6542C104.071 11.4486 103.792 11.3331 103.501 11.3331H101.835L101.802 13.5147Z" fill="#032964"/>
<path fill-rule="evenodd" clip-rule="evenodd" d="M56.1413 7.69777C55.7074 7.69777 55.2778 7.78364 54.8772 7.95042C54.477 8.11703 54.1137 8.3611 53.8082 8.66859C53.2051 9.30752 52.8691 10.1529 52.8691 11.0316C52.8691 11.9101 53.205 12.7554 53.808 13.3943C54.4282 14.0104 55.267 14.3563 56.1413 14.3563C57.0157 14.3563 57.8545 14.0104 58.4748 13.3942C59.0802 12.7566 59.4177 11.9109 59.4177 11.0316C59.4177 10.1522 59.0801 9.30637 58.4745 8.6687C58.169 8.36116 57.8057 8.11705 57.4055 7.95042C57.0049 7.78364 56.5752 7.69777 56.1413 7.69777ZM54.7929 7.74801C55.2202 7.57011 55.6785 7.47852 56.1413 7.47852C56.6042 7.47852 57.0624 7.57011 57.4897 7.74801C57.917 7.92591 58.3049 8.18661 58.631 8.51508L58.6327 8.51678C59.2774 9.19529 59.637 10.0956 59.637 11.0316C59.637 11.9676 59.2774 12.8678 58.6326 13.5464L58.6305 13.5486C57.9691 14.2064 57.0741 14.5755 56.1413 14.5755C55.2085 14.5755 54.3136 14.2063 53.6522 13.5486L53.6497 13.5462C53.0076 12.8664 52.6498 11.9667 52.6498 11.0316C52.6498 10.0965 53.0076 9.19678 53.6498 8.51703L53.6516 8.51506C53.9777 8.18658 54.3656 7.92591 54.7929 7.74801ZM94.128 7.69777C93.6941 7.69777 93.2644 7.78364 92.8639 7.95042C92.4637 8.11702 92.1005 8.36107 91.795 8.66854C91.1918 9.30747 90.8558 10.1529 90.8558 11.0316C90.8558 11.9101 91.1917 12.7554 91.7947 13.3943C92.4149 14.0105 93.2537 14.3563 94.128 14.3563C95.0024 14.3563 95.8412 14.0104 96.4615 13.3941C97.0668 12.7565 97.4044 11.9108 97.4044 11.0316C97.4044 10.1522 97.0667 9.30639 96.4612 8.66873C96.1557 8.36118 95.7924 8.11706 95.3921 7.95042C94.9915 7.78364 94.5619 7.69777 94.128 7.69777ZM92.7796 7.74801C93.2069 7.57011 93.6651 7.47852 94.128 7.47852C94.5908 7.47852 95.0491 7.57011 95.4764 7.74801C95.9037 7.92591 96.2916 8.18661 96.6176 8.51508L96.6193 8.51678C97.2641 9.19531 97.6236 10.0956 97.6236 11.0316C97.6236 11.9676 97.2641 12.8678 96.6193 13.5464L96.6172 13.5486C95.9557 14.2064 95.0608 14.5755 94.128 14.5755C93.1952 14.5755 92.3003 14.2063 91.6388 13.5486L91.6364 13.5462C90.9942 12.8664 90.6365 11.9667 90.6365 11.0316C90.6365 10.0965 90.9943 9.19678 91.6365 8.51703L91.6383 8.51506C91.9644 8.18659 92.3523 7.92591 92.7796 7.74801ZM65.0689 7.97672C64.6663 7.79369 64.2274 7.7043 63.7852 7.71525L63.7803 7.71537C63.3425 7.70667 62.9075 7.78654 62.5015 7.95041C62.0954 8.11427 61.7267 8.35862 61.4176 8.66874C61.1085 8.97886 60.8653 9.34833 60.7027 9.75491C60.5402 10.1615 60.4616 10.5968 60.4717 11.0345L60.4718 11.0396C60.4617 11.4773 60.5402 11.9126 60.7027 12.3192C60.8653 12.7258 61.1085 13.0953 61.4176 13.4054C61.7267 13.7155 62.0954 13.9598 62.5015 14.1237C62.9075 14.2876 63.3425 14.3676 63.7803 14.3589L63.7825 14.4685L63.7846 14.3589C64.2816 14.3684 64.7745 14.267 65.2273 14.0621C65.6061 13.8819 65.944 13.6268 66.2207 13.3124L65.7849 12.8766C65.5473 13.1478 65.2576 13.3691 64.9327 13.5271C64.5713 13.7029 64.1753 13.796 63.7735 13.7997C63.4224 13.8087 63.0732 13.7465 62.747 13.6167C62.4204 13.4869 62.1235 13.2921 61.8744 13.0443L61.8707 13.0406C61.3769 12.501 61.1031 11.7959 61.1031 11.0645C61.1031 10.333 61.377 9.62801 61.8708 9.08838L61.8743 9.08459C62.1234 8.83671 62.4204 8.64204 62.747 8.5122C63.0723 8.38286 63.4203 8.3206 63.7703 8.32914C64.1359 8.3117 64.5004 8.38169 64.8336 8.53331C65.1313 8.6688 65.3963 8.86597 65.6113 9.11126L66.0437 8.69484C65.7726 8.39043 65.4407 8.1457 65.0689 7.97672ZM63.7826 14.5781C63.3159 14.5871 62.8522 14.5017 62.4194 14.327C61.9859 14.1521 61.5923 13.8912 61.2623 13.5602C60.9323 13.2291 60.6727 12.8347 60.4991 12.4006C60.3259 11.9673 60.242 11.5035 60.2524 11.0371C60.242 10.5706 60.3259 10.1068 60.4991 9.67351C60.6727 9.23946 60.9323 8.84502 61.2623 8.51395C61.5923 8.18288 61.9859 7.92202 62.4194 7.74708C62.8521 7.57245 63.3157 7.48705 63.7822 7.496C64.2567 7.48462 64.7276 7.58071 65.1597 7.77711C65.5925 7.97384 65.9751 8.2661 66.2787 8.63193L66.3438 8.71028L65.5912 9.43499L65.5162 9.33986C65.3105 9.0787 65.0453 8.87058 64.7427 8.73288C64.4401 8.59518 64.109 8.5319 63.777 8.54833L63.7687 8.54874C63.447 8.54038 63.127 8.59705 62.828 8.71594C62.5297 8.83452 62.2586 9.0122 62.0308 9.2383C61.5751 9.73726 61.3224 10.3886 61.3224 11.0645C61.3224 11.7403 61.5751 12.3917 62.0308 12.8906C62.2586 13.1167 62.5297 13.2944 62.828 13.413C63.127 13.5319 63.447 13.5889 63.7687 13.5805L63.7706 13.5805C64.1402 13.5772 64.5044 13.4916 64.8368 13.3299C65.1691 13.1683 65.4613 12.9346 65.6921 12.6459L65.7687 12.5502L66.5177 13.2993L66.4544 13.3761C66.1458 13.7504 65.7587 14.0524 65.3205 14.2605L65.3187 14.2614C64.8365 14.4798 64.3118 14.5879 63.7826 14.5781ZM104.6 8.33342C104.256 8.01922 103.805 7.84898 103.339 7.85778L103.337 7.8578H101.068V14.2144L103.477 14.1725L103.481 14.1725C103.972 14.1793 104.447 13.9974 104.808 13.6643L104.811 13.6621C104.989 13.5069 105.132 13.3142 105.228 13.0978C105.323 12.8814 105.37 12.6465 105.365 12.4099L105.365 12.4058C105.37 12.0895 105.266 11.7811 105.07 11.5323L105.07 11.5312C104.88 11.2825 104.619 11.097 104.322 10.9986L104.051 10.9089L104.312 10.7942C104.555 10.6876 104.763 10.5151 104.912 10.2961C105.062 10.0716 105.14 9.80683 105.135 9.53706V9.53298C105.139 9.30654 105.094 9.08188 105.002 8.87491C104.91 8.66794 104.774 8.48371 104.603 8.33526L104.6 8.33342ZM104.747 8.17062C104.362 7.81937 103.857 7.62896 103.336 7.63854H100.848V14.4375L103.478 14.3917L103.48 14.3917C104.026 14.3989 104.554 14.1966 104.956 13.8266C105.158 13.6504 105.319 13.4319 105.428 13.1866C105.537 12.9413 105.59 12.6752 105.584 12.4071L105.584 12.4091L105.475 12.4074L105.584 12.405L105.584 12.4071C105.589 12.0415 105.469 11.6852 105.243 11.3975C105.076 11.1783 104.86 11.0021 104.614 10.8816C104.803 10.7625 104.967 10.6053 105.094 10.4191L105.094 10.4182C105.269 10.157 105.359 9.84906 105.354 9.53521L105.354 9.53728L105.244 9.53513L105.354 9.5332L105.354 9.53521C105.359 9.27734 105.307 9.02156 105.202 8.78586C105.097 8.54998 104.942 8.33996 104.747 8.17062ZM46.768 7.63854H51.3724V13.4051H52.107V15.8169H51.0764V14.4356H46.2747V15.8279H45.2441V13.416H45.9967C46.2847 13.1011 46.503 12.7287 46.6371 12.3231C46.776 11.9026 46.821 11.4568 46.7688 11.0171L46.768 11.0107V7.63854ZM46.9873 7.8578V10.9977C47.042 11.4672 46.9936 11.943 46.8453 12.3919C46.6963 12.8428 46.4501 13.2555 46.1242 13.6009L46.0917 13.6353H45.4634V15.6086H46.0554V14.2163H51.2957V15.5977H51.8877V13.6243H51.1532V7.8578H46.9873ZM67.0166 7.63854H71.7526V8.66906H69.9218V14.4356H68.8584V8.66906H67.0166V7.63854ZM67.2358 7.8578V8.4498H69.0776V14.2163H69.7025V8.4498H71.5333V7.8578H67.2358ZM76.3827 7.63854H77.6227L75.0676 13.334C74.9607 13.6811 74.7493 13.9869 74.4622 14.2095C74.1733 14.4335 73.8219 14.5623 73.4566 14.578L73.4504 14.5783C73.2091 14.5752 72.9709 14.5234 72.75 14.4263L72.6627 14.388L72.9462 13.3816L73.0685 13.4528C73.1853 13.5208 73.3177 13.5573 73.4529 13.5585L73.4601 13.5586C73.5957 13.5688 73.731 13.5377 73.8482 13.4691C73.9629 13.37 74.0515 13.2442 74.106 13.1026L74.1084 13.0962L74.329 12.6154L72.0871 7.6495H73.3267L74.8755 11.2494L76.3827 7.63854ZM76.5287 7.8578L74.8786 11.8113L73.1823 7.86876H72.4267L74.5699 12.6161L74.3093 13.1846C74.2405 13.3619 74.1283 13.5193 73.9831 13.6422L73.9764 13.6479L73.9689 13.6524C73.8121 13.747 73.6299 13.7908 73.4472 13.7778C73.3219 13.7761 73.1985 13.7509 73.0832 13.7039L72.9262 14.2612C73.0939 14.3231 73.271 14.3562 73.4502 14.3588C73.769 14.3445 74.0756 14.2318 74.3279 14.0362C74.5809 13.84 74.7668 13.57 74.8598 13.2636L74.8619 13.2569L77.284 7.8578H76.5287ZM78.2975 7.63854H83.2747V14.4356H82.2112V8.66906H79.3609V14.4356H78.2975V7.63854ZM78.5167 7.8578V14.2163H79.1416V8.4498H82.4305V14.2163H83.0554V7.8578H78.5167ZM84.5573 7.63854H85.6207V10.456H88.6904V7.63854H89.7538V14.4356H88.6904V11.4646H85.6207V14.4356H84.5573V7.63854ZM84.7766 7.8578V14.2163H85.4015V11.2454H88.9096V14.2163H89.5345V7.8578H88.9096V10.6753H85.4015V7.8578H84.7766ZM54.277 9.07375C54.7722 8.58065 55.4425 8.3038 56.1413 8.3038C56.8401 8.3038 57.5105 8.58065 58.0056 9.07375L58.0096 9.07768C58.4963 9.61418 58.7657 10.3127 58.7657 11.0371C58.7657 11.7614 58.4962 12.4598 58.0095 12.9963L58.0057 13.0005C57.5106 13.4936 56.8401 13.7703 56.1413 13.7703C55.4425 13.7703 54.7722 13.4935 54.277 13.0004L54.3544 12.9227L54.2732 12.9963C53.7865 12.4598 53.5169 11.7614 53.5169 11.0371C53.5169 10.3127 53.7865 9.61427 54.2732 9.07777L54.277 9.07375ZM54.4337 12.847C54.8876 13.2979 55.5014 13.5511 56.1413 13.5511C56.7812 13.5511 57.3951 13.2979 57.849 12.847C58.2979 12.3511 58.5465 11.706 58.5465 11.0371C58.5465 10.3681 58.2979 9.72304 57.849 9.22715C57.3951 8.7762 56.7812 8.52306 56.1413 8.52306C55.5014 8.52306 54.8876 8.7762 54.4337 9.22715C53.9848 9.72304 53.7362 10.3681 53.7362 11.0371C53.7362 11.706 53.9848 12.3511 54.4337 12.847ZM92.2637 9.07375C92.7588 8.58065 93.4292 8.3038 94.128 8.3038C94.8268 8.3038 95.4971 8.58065 95.9923 9.07375L95.9963 9.07768C96.4829 9.61418 96.7524 10.3127 96.7524 11.0371C96.7524 11.7614 96.4828 12.4598 95.9962 12.9963L95.9924 13.0005C95.4972 13.4936 94.8268 13.7703 94.128 13.7703C93.4292 13.7703 92.7588 13.4935 92.2637 13.0004L92.341 12.9227L92.2598 12.9963C91.7732 12.4598 91.5036 11.7614 91.5036 11.0371C91.5036 10.3127 91.7732 9.61427 92.2598 9.07777L92.2637 9.07375ZM92.4204 12.847C92.8743 13.2979 93.4881 13.5511 94.128 13.5511C94.7679 13.5511 95.3817 13.2979 95.8356 12.847C96.2845 12.3511 96.5332 11.706 96.5332 11.0371C96.5332 10.3681 96.2845 9.72303 95.8356 9.22714C95.3817 8.77619 94.7679 8.52306 94.128 8.52306C93.4881 8.52306 92.8743 8.77619 92.4204 9.22714C91.9715 9.72303 91.7228 10.3681 91.7228 11.0371C91.7228 11.706 91.9715 12.3511 92.4204 12.847ZM103.412 8.41691C103.566 8.41256 103.719 8.44197 103.86 8.50308C104.001 8.56408 104.127 8.65517 104.229 8.76995C104.329 8.87399 104.408 8.99716 104.461 9.13219C104.513 9.26805 104.538 9.41315 104.534 9.55883C104.529 9.7045 104.495 9.84777 104.434 9.98008C104.374 10.1109 104.288 10.2283 104.182 10.3256C104.074 10.4412 103.943 10.5323 103.798 10.5927C103.651 10.6534 103.493 10.6816 103.335 10.6753H101.69L101.739 8.41691H103.412ZM103.773 8.7043C103.661 8.65575 103.539 8.63247 103.417 8.63612L103.414 8.63617H101.953L101.914 10.456H103.341C103.469 10.4613 103.596 10.4389 103.714 10.3901C103.832 10.3413 103.937 10.2674 104.024 10.1735L104.027 10.1699L104.031 10.1665C104.117 10.0884 104.186 9.99371 104.235 9.88813C104.284 9.78255 104.311 9.66823 104.315 9.55198C104.318 9.43574 104.298 9.31995 104.256 9.21153C104.214 9.1031 104.151 9.00427 104.07 8.92092L104.066 8.91716C103.985 8.82558 103.885 8.75285 103.773 8.7043ZM47.5793 8.4498H50.4625V13.6682H46.8696L46.9702 13.5018C47.4169 12.7627 47.6293 11.9056 47.5794 11.0434L47.5791 11.0371L47.5793 8.4498ZM47.7985 8.66906V11.0339C47.8466 11.8753 47.6571 12.7119 47.2536 13.4489H50.2433V8.66906H47.7985ZM101.727 11.2234H103.501C103.821 11.2234 104.128 11.3505 104.354 11.5766C104.58 11.8028 104.707 12.1095 104.707 12.4294L104.707 12.4309C104.703 12.7365 104.583 13.029 104.371 13.2493C104.262 13.3718 104.128 13.4689 103.977 13.5337C103.827 13.5986 103.664 13.6295 103.5 13.6243H101.691L101.727 11.2234ZM101.943 11.4427L101.913 13.4051H103.505C103.637 13.4095 103.769 13.3847 103.891 13.3323C104.012 13.28 104.121 13.2014 104.209 13.1022L104.212 13.0987C104.385 12.9184 104.484 12.6789 104.488 12.4286C104.488 12.1672 104.384 11.9165 104.199 11.7317C104.014 11.5466 103.763 11.4427 103.501 11.4427H101.943Z" fill="#032964"/>
<path d="M11.5607 35.9213L24.9909 21.9915L11.5719 8.08667C11.2135 8.30315 10.9917 8.80439 10.9917 9.46051V34.5608C10.9965 35.2169 11.2103 35.6815 11.5607 35.9213Z" fill="#032964"/>
<path d="M25.4723 21.6069L29.4728 17.457L13.1816 8.1916C12.9073 8.02628 12.5957 7.93896 12.2783 7.93848L25.4707 21.6052L25.4723 21.6069Z" fill="#032964"/>
<path d="M25.472 22.3779L12.2378 36.1046C12.57 36.1104 12.8971 36.0204 13.1829 35.8448L29.5062 26.5544L25.472 22.3779Z" fill="#032964"/>
<path d="M35.3743 20.8193L29.953 17.7302L25.8433 21.9933L29.9836 26.283L35.3727 23.2022C36.5187 22.5478 36.5186 21.4704 35.3743 20.8193Z" fill="#032964"/>
</svg>
