<svg width="29" height="35" viewBox="0 0 29 35" fill="none" xmlns="http://www.w3.org/2000/svg">
<path d="M0.222424 25.3653C0.324971 25.0036 0.685798 24.7982 1.02862 24.9061C1.37143 25.0142 1.56623 25.3951 1.46375 25.7568C1.10461 27.0245 1.3303 28.3631 2.08298 29.4296C2.83437 30.4942 3.98734 31.1048 5.24628 31.1048H6.98292V27.9201H5.53676C5.17904 27.9201 4.88895 27.614 4.88895 27.2365C4.88895 26.859 5.17904 26.5529 5.53676 26.5529H8.27665C8.43834 25.7768 8.80623 25.061 9.3454 24.4919C10.0949 23.701 11.0915 23.2654 12.1514 23.2654C13.008 23.2654 13.823 23.5498 14.4998 24.0763C16.0515 22.8734 18.251 23.0121 19.6534 24.4919C20.1926 25.061 20.5605 25.7769 20.7221 26.5529H23.462C23.8198 26.5529 24.1098 26.859 24.1098 27.2365C24.1098 27.614 23.8198 27.9201 23.462 27.9201H22.0159V31.1048H23.7525C25.0484 31.1048 26.2215 30.465 26.9711 29.3493C27.7206 28.2336 27.9044 26.8537 27.4755 25.5632L26.5843 22.8824C25.6559 20.0893 23.1475 18.2127 20.3426 18.2127H16.7617L14.9361 20.1433C14.8146 20.2718 14.6496 20.344 14.4776 20.344C14.3055 20.344 14.1406 20.2718 14.0191 20.1433L12.1935 18.2127H8.6562C6.80632 18.2127 5.02829 19.0385 3.77797 20.4784C3.65015 20.6255 3.47544 20.7001 3.30014 20.7001C3.14383 20.7001 2.987 20.6408 2.86268 20.5206C2.5989 20.2655 2.58102 19.833 2.82271 19.5547C3.94244 18.2652 5.4162 17.3877 7.01485 17.0282C6.90097 16.9285 6.7902 16.8234 6.68402 16.7113C4.95393 14.8855 4.79197 12.01 6.2472 9.99035C5.72637 8.30729 6.13488 6.46379 7.33889 5.19308C7.54664 4.97392 7.77434 4.77662 8.01785 4.60476C9.08168 1.84091 11.6582 0 14.4995 0C17.3406 0 19.9172 1.84091 20.9811 4.60483C21.2245 4.77662 21.4522 4.97378 21.66 5.19308C22.8641 6.46379 23.2726 8.30729 22.7517 9.99035C24.207 12.01 24.045 14.8855 22.3149 16.7113C22.2087 16.8234 22.0982 16.929 21.9842 17.0288C24.6448 17.626 26.8819 19.6468 27.807 22.4298L28.6981 25.1106C29.2679 26.8248 29.0237 28.658 28.028 30.14C27.0324 31.622 25.4741 32.4719 23.7526 32.4719H17.7035L15.8778 34.3986C15.4979 34.7995 14.9987 35 14.4996 35C14.0005 35 13.5013 34.7995 13.1213 34.3986L11.2955 32.4719H5.24641C3.5741 32.4719 2.0423 31.6606 1.04403 30.246C0.0442755 28.8299 -0.255138 27.0508 0.222424 25.3653ZM13.0733 17.2076L14.4776 18.6927L15.9255 17.1615V15.9897C15.4749 16.1381 14.9958 16.2182 14.4994 16.2182C14.003 16.2182 13.524 16.1381 13.0733 15.9897V17.2076ZM14.4994 14.8509C16.4293 14.8509 17.9995 13.194 17.9995 11.1574V9.38583H17.2691C16.46 9.38583 15.6979 9.04696 15.1348 8.46753C14.5394 9.0378 13.7495 9.38583 12.884 9.38583H10.9993V11.1574C10.9992 13.194 12.5695 14.8509 14.4994 14.8509ZM21.5318 10.5775C21.3633 10.3795 21.319 10.0964 21.4181 9.85178C21.9321 8.58375 21.6674 7.13462 20.7439 6.16006C20.5572 5.96297 20.348 5.79111 20.1223 5.64905C19.9951 5.56893 19.8977 5.44527 19.8464 5.29856C19.0243 2.94707 16.8754 1.36723 14.4995 1.36723C12.1234 1.36723 9.97455 2.94707 9.15242 5.29856C9.10111 5.44527 9.00368 5.56893 8.87645 5.64905C8.65069 5.79111 8.44158 5.96304 8.25495 6.15999C7.33137 7.13462 7.06674 8.58375 7.58071 9.85178C7.67982 10.0964 7.63552 10.3796 7.46696 10.5775C6.20283 12.0622 6.26139 14.3319 7.60015 15.7446C8.70841 16.9141 10.4151 17.1706 11.7776 16.4136V15.321C10.5258 14.4069 9.70363 12.8819 9.70363 11.1574V8.70222C9.70363 8.32472 9.99372 8.0186 10.3514 8.0186H12.884C14.0179 8.0186 14.9404 7.04506 14.9404 5.84846C14.9404 5.47097 15.2304 5.16485 15.5882 5.16485C15.9459 5.16485 16.236 5.47097 16.236 5.84846C16.236 6.38572 16.1214 6.89501 15.9174 7.35153C16.2486 7.76935 16.7416 8.0186 17.269 8.0186H18.6472C19.0049 8.0186 19.295 8.32472 19.295 8.70222V11.1574C19.295 12.8819 18.4728 14.4068 17.221 15.321V16.4136C18.5833 17.1703 20.2914 16.9131 21.3986 15.7446C22.7374 14.3318 22.796 12.0621 21.5318 10.5775ZM19.6988 31.1048H20.7203V27.9201H19.6988C18.8668 27.9201 18.1899 28.6345 18.1899 29.5125C18.1899 30.3905 18.8668 31.1048 19.6988 31.1048ZM12.1045 29.5125C12.1045 30.0519 11.9664 30.5575 11.7265 30.9934L14.0372 33.4319C14.292 33.7007 14.7066 33.7009 14.9616 33.4319L17.2723 30.9935C17.0324 30.5575 16.8943 30.0519 16.8943 29.5125C16.8943 27.9922 17.9863 26.7366 19.3859 26.5718C19.2562 26.1557 19.0358 25.7737 18.7373 25.4587C17.6952 24.3589 15.9995 24.3589 14.9575 25.4587C14.8359 25.5869 14.6712 25.6589 14.4994 25.6589C14.3276 25.6589 14.1628 25.5869 14.0413 25.4587C13.5366 24.926 12.8654 24.6326 12.1515 24.6326C11.4375 24.6326 10.7664 24.926 10.2616 25.4587C9.96308 25.7737 9.74263 26.1557 9.61294 26.5718C11.0125 26.7366 12.1045 27.9923 12.1045 29.5125ZM8.27846 31.1048H9.29992C10.132 31.1048 10.8089 30.3905 10.8089 29.5125C10.8089 28.6345 10.132 27.9201 9.29992 27.9201H8.27846V31.1048Z" fill="black"/>
<path d="M1.80296 23.3399C1.63259 23.3399 1.46546 23.2668 1.34504 23.1397C1.22455 23.0125 1.15518 22.8361 1.15518 22.6564C1.15518 22.4759 1.22449 22.3002 1.34504 22.1731C1.46546 22.046 1.63259 21.9728 1.80296 21.9728C1.97404 21.9728 2.14046 22.0459 2.26095 22.1731C2.38143 22.3002 2.45075 22.476 2.45075 22.6564C2.45075 22.8361 2.3815 23.0118 2.26095 23.1397C2.14046 23.2668 1.97339 23.3399 1.80296 23.3399Z" fill="black"/>
</svg>
