<svg width="19" height="19" viewBox="0 0 19 19" fill="none" xmlns="http://www.w3.org/2000/svg">
<path d="M11.729 1.68971C12.9474 2.0174 14.0584 2.6595 14.9506 3.55169C15.8428 4.44389 16.4849 5.55485 16.8125 6.7733M10.9846 4.46743C11.7157 4.66404 12.3822 5.0493 12.9176 5.58462C13.4529 6.11994 13.8381 6.78651 14.0347 7.51759M5.71467 9.30983C6.46022 10.8341 7.69575 12.064 9.22337 12.8026C9.33513 12.8556 9.45877 12.8785 9.5821 12.8692C9.70542 12.8598 9.8242 12.8185 9.92673 12.7494L12.176 11.2495C12.2755 11.1832 12.39 11.1427 12.509 11.1317C12.6281 11.1208 12.748 11.1397 12.8579 11.1868L17.0659 12.9903C17.2089 13.051 17.3282 13.1565 17.406 13.291C17.4837 13.4254 17.5157 13.5815 17.497 13.7357C17.364 14.7764 16.8562 15.733 16.0687 16.4263C15.2812 17.1197 14.268 17.5022 13.2188 17.5022C9.97814 17.5022 6.87025 16.2149 4.57879 13.9234C2.28733 11.632 1 8.52407 1 5.28346C1.00006 4.23424 1.38255 3.22102 2.07586 2.4335C2.76918 1.64599 3.72576 1.13819 4.76652 1.00519C4.9207 0.986531 5.07678 1.01849 5.21122 1.09624C5.34567 1.17399 5.4512 1.29333 5.51192 1.43628L7.31693 5.64796C7.36362 5.7569 7.38264 5.8757 7.37231 5.99377C7.36197 6.11184 7.3226 6.22552 7.2577 6.32469L5.76302 8.60849C5.69499 8.71123 5.65478 8.82986 5.6463 8.95278C5.63783 9.07571 5.66138 9.19873 5.71467 9.30983Z" stroke="#2A2834" stroke-width="1.5" stroke-linecap="round" stroke-linejoin="round"/>
</svg>
