<svg width="26" height="26" viewBox="0 0 26 26" fill="none" xmlns="http://www.w3.org/2000/svg">
<path d="M9.14062 6.90625C9.14062 6.48558 8.79958 6.14453 8.37891 6.14453H7.61719V3.85938C7.61719 3.4387 7.27614 3.09766 6.85547 3.09766H3.80859C3.38792 3.09766 3.04688 3.4387 3.04688 3.85938V6.14453H2.28516C1.86448 6.14453 1.52344 6.48558 1.52344 6.90625V9.65362C1.04142 10.1981 0 11.5431 0 13V25.2383C0 25.659 0.341047 26 0.761719 26H9.90234C10.323 26 10.6641 25.659 10.6641 25.2383V13C10.6641 11.5431 9.62264 10.1981 9.14062 9.65362V6.90625ZM4.57031 4.62109H6.09375V6.14453H4.57031V4.62109ZM3.04688 7.66797H7.61719V9.19141H3.04688V7.66797ZM1.52344 24.4766V13C1.52344 12.1697 2.19416 11.2114 2.6198 10.7148H8.04411C8.47046 11.2122 9.14057 12.17 9.14057 13V15.2852H5.33198C4.91131 15.2852 4.57026 15.6262 4.57026 16.0469V20.6172C4.57026 21.0379 4.91131 21.3789 5.33198 21.3789H9.14057V24.4766H1.52344ZM9.14062 19.8555H6.09375V16.8086H9.14062V19.8555Z" fill="black"/>
<path d="M23.6808 2.63788C23.4662 1.19895 22.2246 0 20.668 0C19.0013 0 17.6519 1.38668 17.6217 3.04007C15.9827 3.71856 13.5828 5.38281 11.4258 5.38281C11.0051 5.38281 10.6641 5.72386 10.6641 6.14453C10.6641 6.5652 11.0051 6.90625 11.4258 6.90625C13.5817 6.90625 15.9914 8.57411 17.6217 9.24899C17.6525 10.9025 19.0072 12.2383 20.668 12.2383C22.1917 12.2383 23.4577 11.114 23.6802 9.65148C25.0701 9.06293 26 7.69194 26 6.14453C26 4.59738 25.0704 3.22654 23.6808 2.63788ZM22.7618 8.35809C22.4133 8.44756 22.1749 8.7686 22.1901 9.12808C22.2268 9.98989 21.5342 10.7148 20.668 10.7148C19.7047 10.7148 18.9809 9.82754 19.1758 8.88316C19.2566 8.49179 19.0213 8.10454 18.6367 7.99602C17.7637 7.74963 16.281 6.80758 14.6922 6.14458C16.2843 5.48021 17.7621 4.54 18.6367 4.29315C19.0213 4.18458 19.2566 3.79732 19.1758 3.406C18.9782 2.44852 19.7288 1.52344 20.668 1.52344C21.5203 1.52344 22.2272 2.28891 22.1901 3.16098C22.1749 3.52046 22.4133 3.8415 22.7618 3.93098C23.7714 4.19006 24.4766 5.10037 24.4766 6.14453C24.4766 7.1887 23.7714 8.099 22.7618 8.35809Z" fill="black"/>
</svg>
