<svg width="19" height="19" viewBox="0 0 19 19" fill="none" xmlns="http://www.w3.org/2000/svg">
<path d="M12.3227 1.59376C13.5412 1.92145 14.6521 2.56355 15.5443 3.45575C16.4365 4.34794 17.0786 5.4589 17.4063 6.67736M11.5783 4.37148C12.3094 4.5681 12.976 4.95336 13.5113 5.48867C14.0466 6.02399 14.4319 6.69057 14.6285 7.42164M6.30842 9.21388C7.05397 10.7381 8.2895 11.968 9.81712 12.7066C9.92888 12.7596 10.0525 12.7826 10.1758 12.7732C10.2992 12.7639 10.4179 12.7226 10.5205 12.6534L12.7698 11.1535C12.8693 11.0872 12.9837 11.0467 13.1028 11.0358C13.2218 11.0249 13.3418 11.0438 13.4517 11.0909L17.6597 12.8943C17.8026 12.9551 17.922 13.0606 17.9997 13.195C18.0775 13.3295 18.1094 13.4856 18.0908 13.6397C17.9578 14.6805 17.45 15.6371 16.6625 16.3304C15.8749 17.0237 14.8617 17.4062 13.8125 17.4063C10.5719 17.4063 7.464 16.1189 5.17254 13.8275C2.88108 11.536 1.59375 8.42813 1.59375 5.18751C1.59381 4.13829 1.9763 3.12507 2.66961 2.33756C3.36293 1.55004 4.31951 1.04225 5.36027 0.909242C5.51445 0.890583 5.67053 0.922538 5.80497 1.00029C5.93942 1.07805 6.04495 1.19739 6.10567 1.34033L7.91068 5.55202C7.95737 5.66096 7.97639 5.77975 7.96606 5.89782C7.95572 6.01589 7.91635 6.12957 7.85145 6.22874L6.35677 8.51255C6.28874 8.61528 6.24853 8.73391 6.24005 8.85684C6.23158 8.97976 6.25513 9.10278 6.30842 9.21388Z" stroke="#2A2834" stroke-width="1.5" stroke-linecap="round" stroke-linejoin="round"/>
</svg>
