<svg width="26" height="26" viewBox="0 0 26 26" fill="none" xmlns="http://www.w3.org/2000/svg">
<g clip-path="url(#clip0)">
<path d="M12.4164 1.83053L3.59479 3.59485L1.83047 12.4164C1.80222 12.5577 1.80928 12.7037 1.85102 12.8416C1.89276 12.9795 1.9679 13.1049 2.06976 13.2068L13.4943 24.6313C13.5755 24.7125 13.672 24.777 13.7782 24.821C13.8843 24.8649 13.9981 24.8876 14.113 24.8876C14.2279 24.8876 14.3417 24.8649 14.4478 24.821C14.554 24.777 14.6505 24.7125 14.7317 24.6313L24.6312 14.7318C24.7125 14.6505 24.7769 14.5541 24.8209 14.4479C24.8649 14.3417 24.8875 14.228 24.8875 14.1131C24.8875 13.9982 24.8649 13.8844 24.8209 13.7782C24.7769 13.6721 24.7125 13.5756 24.6312 13.4943L13.2067 2.06982C13.1048 1.96796 12.9794 1.89283 12.8415 1.85108C12.7037 1.80934 12.5576 1.80228 12.4164 1.83053V1.83053Z" stroke="#2A2834" stroke-width="2" stroke-linecap="round" stroke-linejoin="round"/>
</g>
<defs>
<clipPath id="clip0">
<rect width="26" height="26" fill="white"/>
</clipPath>
</defs>
</svg>
