<svg width="26" height="24" viewBox="0 0 26 24" fill="none" xmlns="http://www.w3.org/2000/svg">
<g clip-path="url(#clip0)">
<path d="M13 9.375C13 10.0712 12.7234 10.7389 12.2312 11.2312C11.7389 11.7234 11.0712 12 10.375 12C9.67881 12 9.01113 11.7234 8.51884 11.2312C8.02656 10.7389 7.75 10.0712 7.75 9.375V5C7.75 4.30381 8.02656 3.63613 8.51884 3.14384C9.01113 2.65156 9.67881 2.375 10.375 2.375C11.0712 2.375 11.7389 2.65156 12.2312 3.14384C12.7234 3.63613 13 4.30381 13 5V9.375Z" stroke="#2A2834" stroke-width="2" stroke-linecap="round" stroke-linejoin="round"/>
<path d="M13 5C13 4.30381 13.2766 3.63613 13.7688 3.14384C14.2611 2.65156 14.9288 2.375 15.625 2.375C16.3212 2.375 16.9889 2.65156 17.4812 3.14384C17.9734 3.63613 18.25 4.30381 18.25 5V7.625" stroke="#2A2834" stroke-width="2" stroke-linecap="round" stroke-linejoin="round"/>
<path d="M13 17.25C13 16.0897 13.4609 14.9769 14.2814 14.1564C15.1019 13.3359 16.2147 12.875 17.375 12.875H15.625C14.9288 12.875 14.2611 12.5984 13.7688 12.1062C13.2766 11.6139 13 10.9462 13 10.25V8.5C13 8.26794 13.0922 8.04538 13.2563 7.88128C13.4204 7.71719 13.6429 7.625 13.875 7.625H20.875C21.5712 7.625 22.2389 7.90156 22.7312 8.39384C23.2234 8.88613 23.5 9.55381 23.5 10.25V12C23.5 14.7848 22.3938 17.4555 20.4246 19.4246C18.4555 21.3938 15.7848 22.5 13 22.5C10.2152 22.5 7.54451 21.3938 5.57538 19.4246C3.60625 17.4555 2.5 14.7848 2.5 12V7.625C2.5 6.92881 2.77656 6.26113 3.26884 5.76884C3.76113 5.27656 4.42881 5 5.125 5C5.82119 5 6.48887 5.27656 6.98116 5.76884C7.47344 6.26113 7.75 6.92881 7.75 7.625V9.375C7.75 10.0712 7.47344 10.7389 6.98116 11.2312C6.48887 11.7234 5.82119 12 5.125 12C4.42881 12 3.76113 11.7234 3.26884 11.2312C2.77656 10.7389 2.5 10.0712 2.5 9.375" stroke="#2A2834" stroke-width="2" stroke-linecap="round" stroke-linejoin="round"/>
</g>
<defs>
<clipPath id="clip0">
<rect width="26" height="24" fill="white"/>
</clipPath>
</defs>
</svg>
