<svg width="33" height="34" viewBox="0 0 33 34" fill="none" xmlns="http://www.w3.org/2000/svg">
<path d="M16.2624 19.5162C15.9306 19.3587 15.5335 19.4991 15.3755 19.8302L15.2652 20.0615C15.1072 20.3926 15.2481 20.7887 15.5799 20.9463C15.6723 20.9902 15.7696 21.011 15.8655 21.011C16.1142 21.011 16.3528 20.8713 16.4668 20.6323L16.5771 20.401C16.7352 20.0699 16.5942 19.6738 16.2624 19.5162Z" fill="white"/>
<path d="M8.80453 15.6687C8.54466 15.4095 8.12331 15.4095 7.86344 15.6687C7.31175 16.2192 6.414 16.2192 5.86224 15.6687C5.60237 15.4095 5.18102 15.4095 4.92115 15.6687C4.66128 15.928 4.66128 16.3483 4.92115 16.6076C5.45646 17.1416 6.15965 17.4087 6.86284 17.4087C7.56603 17.4087 8.26915 17.1416 8.80446 16.6076C9.06433 16.3484 9.06433 15.9281 8.80453 15.6687Z" fill="white"/>
<path d="M31.2361 1.76373C28.8916 -0.575104 25.0819 -0.581877 22.7281 1.74194C21.9934 1.37804 21.2133 1.06586 20.3908 0.80887C17.6926 -0.0342906 15.4852 -0.00301322 15.2938 0.00117037C11.6839 0.003561 8.53514 1.51464 7.07452 3.94597C6.88175 4.26685 6.72113 4.59941 6.59226 4.9416C5.90431 5.5951 2.79974 8.79595 2.79974 13.3346C2.79974 16.3575 1.34224 17.9358 0.473507 18.6076C0.148872 18.8586 -0.0269255 19.2528 0.00336138 19.6619C0.0336483 20.0713 0.265626 20.4356 0.623943 20.6365C0.951308 20.8201 1.31948 20.9963 1.67546 21.1666C1.99025 21.3173 2.43756 21.5314 2.65569 21.6707V22.8532C2.65569 23.0149 2.62474 23.1729 2.5637 23.3229L2.39869 23.7281C2.1727 24.2829 2.25591 24.9181 2.61456 25.3961V25.5417C2.61456 25.9725 2.80467 26.3712 3.12131 26.6416V27.4211C3.12131 29.0916 4.48349 30.4505 6.15792 30.4505H8.12278C8.49028 30.4505 8.78822 30.1533 8.78822 29.7867C8.78822 29.42 8.49028 29.1228 8.12278 29.1228H6.15792C5.21743 29.1228 4.45214 28.3594 4.45214 27.4211V26.2757C4.45214 26.0097 4.29298 25.7695 4.04776 25.6651L4.019 25.6529C3.97427 25.6338 3.94538 25.5902 3.94538 25.5417V25.167C3.94538 25.0181 3.89519 24.8735 3.80293 24.7564L3.68551 24.6076C3.60071 24.5001 3.58014 24.3545 3.63173 24.2278L3.79674 23.8226C3.92268 23.5132 3.98659 23.1871 3.98659 22.8532V21.4398C3.98659 20.8002 3.33339 20.4875 2.25118 19.9695C1.96702 19.8335 1.6748 19.6936 1.41633 19.5557C2.48655 18.6843 4.1307 16.7835 4.1307 13.3345C4.1307 10.8388 5.24426 8.75923 6.21031 7.42433C6.26309 8.58106 6.61382 9.79072 7.2629 11.0019C8.97074 14.1885 11.9448 15.5242 14.3346 16.5974C16.6083 17.6184 17.8952 18.2612 17.9055 19.5973C17.913 20.5784 17.6868 21.3003 17.2332 21.7428C16.7095 22.2537 16.0143 22.2406 16.0101 22.2406C15.7868 22.225 15.5774 22.3223 15.4414 22.4994C15.3054 22.6766 15.2744 22.9105 15.3477 23.1214C15.3672 23.1776 15.8386 24.511 16.9178 25.8104C18.2667 27.4343 19.9693 28.2912 21.8678 28.3104L23.6559 33.5403C23.7502 33.8164 24.0087 33.9901 24.2856 33.9901C24.3568 33.9901 24.4293 33.9786 24.5005 33.9543C24.8483 33.836 25.0341 33.4587 24.9154 33.1117L23.1545 27.9612C26.4743 26.1864 28.8084 23.4333 29.9211 19.966C30.8081 17.2021 30.8505 14.1008 30.101 11.1635C30.5116 10.9144 30.8922 10.6171 31.236 10.2742C33.588 7.92789 33.588 4.11013 31.2361 1.76373ZM28.6537 19.5613C27.6094 22.8156 25.3675 25.3777 22.1658 26.9785C20.5469 27.051 19.1348 26.3837 17.9675 24.993C17.4968 24.4324 17.1561 23.8554 16.9331 23.4186C17.3127 23.3001 17.7488 23.089 18.1414 22.7139C18.8785 22.0095 19.2469 20.9576 19.2364 19.5872C19.2191 17.3349 17.1119 16.3886 14.8809 15.3868C12.5605 14.3447 9.93047 13.1637 8.43656 10.376C7.50852 8.64422 7.29005 6.99754 7.78469 5.5538C7.78676 5.54829 7.78869 5.54271 7.79062 5.5372C7.89905 5.22442 8.0405 4.92095 8.21623 4.62843C9.43882 2.59314 12.1542 1.32877 15.3026 1.32877C15.309 1.32877 15.3153 1.3287 15.3217 1.3285C15.3424 1.32784 17.4398 1.27783 19.9931 2.0757C23.391 3.13761 25.8941 5.11618 27.4326 7.95651C29.3769 11.5465 29.8335 15.8847 28.6537 19.5613ZM29.7033 9.83654C29.4064 8.97346 29.04 8.13162 28.6033 7.32539C27.5109 5.30876 25.9327 3.65299 23.9534 2.42334C25.7986 0.880124 28.5609 0.972429 30.295 2.70251C32.1281 4.53121 32.1281 7.50674 30.295 9.33544C30.1105 9.51958 29.9128 9.68686 29.7033 9.83654Z" fill="white"/>
<path d="M17.0707 31.0986L14.9859 27.496L14.9154 25.0361C14.8564 22.9761 13.2592 21.2966 11.2001 21.1295C9.68604 21.0063 8.23234 21.844 7.58207 23.2135L7.54919 23.2827C6.68718 25.0979 7.30909 27.2938 8.99577 28.3907L11.0712 29.7404L13.3385 33.6581C13.4617 33.871 13.6854 33.9901 13.9154 33.99C14.0282 33.99 14.1427 33.9613 14.2474 33.901C14.5657 33.7177 14.6748 33.3117 14.491 32.9941L12.4768 29.5138L14.0818 28.5893L15.9181 31.7622C16.1017 32.0797 16.5087 32.1884 16.8271 32.0052C17.1455 31.8221 17.2545 31.4161 17.0707 31.0986ZM11.5891 28.4923L9.72266 27.2785C8.59092 26.5426 8.17363 25.0691 8.75201 23.8511L8.78489 23.7819C9.1727 22.9653 10.0086 22.4453 10.9049 22.4453C10.9671 22.4453 11.0297 22.4478 11.0923 22.4529C12.4738 22.565 13.5455 23.692 13.5851 25.0742L13.649 27.3058L11.5891 28.4923Z" fill="white"/>
<path d="M18.068 32.8668C17.9442 32.7433 17.7725 32.6723 17.5975 32.6723C17.4218 32.6723 17.2508 32.7433 17.127 32.8668C17.0032 32.9902 16.9321 33.1616 16.9321 33.3361C16.9321 33.5107 17.0033 33.682 17.127 33.8055C17.2508 33.9289 17.4218 34 17.5975 34C17.7725 34 17.9442 33.9289 18.068 33.8055C18.1917 33.682 18.263 33.5107 18.263 33.3361C18.263 33.1616 18.1917 32.9903 18.068 32.8668Z" fill="white"/>
<path d="M12.6147 3.89158C12.4702 3.55457 12.0792 3.39799 11.7412 3.54215C10.5676 4.04266 9.72112 4.88635 9.35775 5.9179C8.99364 6.95152 9.13036 8.11217 9.75314 9.27421C9.87303 9.49793 10.1029 9.62517 10.3406 9.62517C10.4465 9.62517 10.5538 9.59987 10.6537 9.54661C10.9778 9.37375 11.1001 8.97153 10.9268 8.64813C10.4783 7.81121 10.3729 7.0407 10.6134 6.35791C10.8516 5.6817 11.4379 5.11519 12.2644 4.76283C12.6022 4.61886 12.7591 4.22879 12.6147 3.89158Z" fill="white"/>
<path d="M14.2378 3.05486L14.2005 3.05493C13.8331 3.05706 13.5368 3.35602 13.539 3.72271C13.5411 4.08801 13.8387 4.38266 14.2044 4.38266C14.2057 4.38266 14.207 4.38266 14.2084 4.38266L14.2378 4.38259C14.6053 4.38259 14.9032 4.08536 14.9032 3.71873C14.9032 3.3521 14.6053 3.05486 14.2378 3.05486Z" fill="white"/>
</svg>
