<svg width="34" height="34" viewBox="0 0 34 34" fill="none" xmlns="http://www.w3.org/2000/svg">
<path d="M32.8793 19.3491C33.4045 18.686 34 17.9346 34 17C34 16.0654 33.4045 15.3139 32.8793 14.6509C32.551 14.2366 32.2116 13.8081 32.1358 13.4677C32.0542 13.1008 32.1812 12.5473 32.304 12.0122C32.4912 11.1959 32.7035 10.2708 32.3193 9.45649C31.9285 8.62852 31.0799 8.21919 30.3311 7.85813C29.8521 7.62702 29.3567 7.38817 29.1359 7.10546C28.9126 6.81936 28.7936 6.26983 28.6785 5.73829C28.5004 4.91474 28.2984 3.98133 27.6001 3.41123C26.905 2.84378 25.9721 2.8488 25.1497 2.85369C24.6148 2.85667 24.0622 2.8598 23.7359 2.69882C23.4221 2.54409 23.0863 2.10665 22.7616 1.68374C22.2482 1.01499 21.6664 0.256889 20.7824 0.0514422C19.9289 -0.147011 19.0992 0.268159 18.3672 0.634513C17.8799 0.87832 17.3759 1.13054 16.9999 1.13054C16.6241 1.13054 16.1201 0.87832 15.6326 0.634378C14.9006 0.268091 14.0713 -0.146943 13.2174 0.0513064C12.3334 0.256753 11.7515 1.01479 11.2381 1.68368C10.9134 2.10665 10.5777 2.54396 10.264 2.69869C9.93763 2.85966 9.38546 2.85674 8.85016 2.85355C8.02772 2.849 7.09484 2.84364 6.3997 3.4111C5.70144 3.9812 5.49943 4.9146 5.32133 5.73815C5.20632 6.26969 5.08738 6.81922 4.86393 7.10533C4.64313 7.38804 4.1478 7.62689 3.66868 7.858C2.91995 8.21912 2.07128 8.62839 1.68054 9.45635C1.29632 10.2706 1.50862 11.1959 1.69582 12.0121C1.81867 12.5473 1.94564 13.1007 1.86402 13.4676C1.78832 13.8081 1.44892 14.2365 1.12061 14.6508C0.595465 15.3139 0 16.0654 0 17C0 17.9345 0.595465 18.686 1.1208 19.3491C1.44898 19.7634 1.78845 20.1918 1.86422 20.5322C1.94584 20.8992 1.81887 21.4526 1.69608 21.9877C1.50882 22.804 1.29652 23.7292 1.68068 24.5435C2.07141 25.3715 2.92015 25.7808 3.66881 26.1419C4.14787 26.373 4.64326 26.6119 4.86406 26.8945C5.08745 27.1806 5.20632 27.7302 5.32133 28.2616C5.49943 29.0852 5.70138 30.0186 6.39977 30.5887C7.09478 31.1562 8.02739 31.151 8.85016 31.1463C9.38506 31.1434 9.9377 31.1402 10.264 31.3012C10.5778 31.456 10.9135 31.8933 11.2383 32.3163C11.7516 32.9851 12.3335 33.7432 13.2174 33.9486C14.0708 34.1468 14.9006 33.7318 15.6327 33.3655C16.1201 33.1217 16.6241 32.8694 16.9999 32.8694C17.3759 32.8694 17.8799 33.1217 18.3673 33.3656C18.9683 33.6663 19.635 34 20.327 34C20.4778 34 20.6297 33.9842 20.7825 33.9487C21.6664 33.7432 22.2484 32.9852 22.7617 32.3163C23.0865 31.8933 23.4221 31.456 23.7359 31.3013C24.0622 31.1403 24.6147 31.1434 25.1497 31.1464C25.9718 31.1508 26.9051 31.1563 27.6002 30.5889C28.2984 30.0188 28.5004 29.0854 28.6785 28.2618C28.7936 27.7303 28.9125 27.1808 29.1359 26.8947C29.3567 26.6119 29.8521 26.3731 30.3312 26.142C31.0799 25.7809 31.9286 25.3715 32.3193 24.5436C32.7036 23.7294 32.4912 22.8042 32.3041 21.9879C32.1813 21.4527 32.0543 20.8992 32.1359 20.5322C32.2116 20.1917 32.551 19.7634 32.8793 19.3491ZM31.7306 18.3978C31.2958 18.9465 30.8463 19.5139 30.6944 20.1972C30.537 20.9046 30.7037 21.6307 30.8648 22.333C31.0026 22.9333 31.1449 23.5541 30.9879 23.8868C30.8246 24.2329 30.2532 24.5085 29.7005 24.775C29.0688 25.0796 28.4156 25.3947 27.9807 25.9515C27.5433 26.5117 27.3866 27.2355 27.2353 27.9353C27.1038 28.5428 26.9679 29.1709 26.6778 29.4078C26.3908 29.642 25.7644 29.6384 25.1579 29.635C24.4551 29.6311 23.7281 29.627 23.0935 29.94C22.4709 30.2471 22.0276 30.8247 21.5988 31.3832C21.2195 31.8774 20.8273 32.3883 20.4547 32.4749C20.1103 32.555 19.5544 32.2771 19.0172 32.0082C18.3785 31.6886 17.7182 31.3581 16.9999 31.3581C16.2816 31.3581 15.6213 31.6885 14.9827 32.0081C14.4454 32.2769 13.8895 32.5553 13.5451 32.4748C13.1725 32.3882 12.7803 31.8773 12.401 31.3832C11.9722 30.8246 11.5289 30.247 10.9062 29.94C10.3427 29.662 9.70667 29.6342 9.07913 29.6342C8.99997 29.6342 8.92068 29.6346 8.84186 29.635C8.2357 29.6382 7.60876 29.642 7.32195 29.4078C7.03169 29.1709 6.89582 28.5428 6.76441 27.9353C6.613 27.2354 6.45648 26.5117 6.019 25.9515C5.58404 25.3947 4.93093 25.0796 4.29927 24.775C3.74657 24.5085 3.17515 24.2328 3.01186 23.8868C2.8548 23.5539 2.99725 22.9332 3.13491 22.3328C3.29601 21.6306 3.46269 20.9045 3.30544 20.1971C3.1535 19.5137 2.70393 18.9463 2.26917 18.3976C1.88029 17.9067 1.47814 17.3991 1.47814 16.9998C1.47814 16.6005 1.88029 16.093 2.2693 15.602C2.70406 15.0534 3.15357 14.4861 3.30557 13.8025C3.46289 13.0952 3.29621 12.3691 3.13504 11.6668C2.99731 11.0665 2.85494 10.4457 3.01199 10.1128C3.17528 9.76676 3.74671 9.49118 4.29941 9.22463C4.93106 8.91999 5.58423 8.60496 6.01913 8.0481C6.45661 7.48791 6.61327 6.76416 6.76461 6.06431C6.89602 5.4568 7.03196 4.82872 7.32209 4.59183C7.60903 4.35767 8.2353 4.36113 8.84199 4.36459C9.54497 4.36874 10.2717 4.37267 10.9064 4.05962C11.5289 3.75253 11.9722 3.17496 12.401 2.6164C12.7803 2.12227 13.1725 1.61137 13.5451 1.52474C13.8895 1.44442 14.4455 1.72258 14.9828 1.99151C15.6213 2.31115 16.2817 2.64166 16.9999 2.64166C17.7182 2.64166 18.3786 2.31122 19.0172 1.99151C19.5545 1.72265 20.1103 1.44462 20.4548 1.5248C20.8273 1.61144 21.2196 2.12234 21.5988 2.6164C22.0277 3.17503 22.471 3.7526 23.0937 4.05968C23.7282 4.37267 24.4541 4.3684 25.158 4.36459C25.7636 4.36127 26.3911 4.35767 26.6779 4.59183C26.9681 4.82872 27.104 5.45687 27.2355 6.06431C27.3868 6.76423 27.5435 7.48798 27.9809 8.04817C28.4158 8.60503 29.069 8.91999 29.7006 9.2247C30.2533 9.49125 30.8247 9.76683 30.988 10.1129C31.1451 10.4457 31.0026 11.0664 30.865 11.6667C30.7039 12.3689 30.5372 13.0951 30.6945 13.8024C30.8464 14.4858 31.2959 15.0532 31.7307 15.602C32.1196 16.0929 32.5217 16.6005 32.5217 16.9998C32.5217 17.399 32.1196 17.9069 31.7306 18.3978Z" fill="white"/>
<path d="M17 4.90897C10.479 4.90897 5.17391 10.333 5.17391 17C5.17391 23.6669 10.479 29.0909 17 29.0909C23.521 29.0909 28.8261 23.6669 28.8261 17C28.8261 10.333 23.521 4.90897 17 4.90897ZM17 27.5796C11.2942 27.5796 6.65218 22.8335 6.65218 17C6.65218 11.1664 11.2942 6.42035 17 6.42035C22.7058 6.42035 27.3478 11.1663 27.3478 17C27.3478 22.8336 22.7058 27.5796 17 27.5796Z" fill="white"/>
<path d="M20.2554 13.6716C19.9667 13.3765 19.4989 13.3765 19.2101 13.6716L11.7941 21.2536C11.5055 21.5487 11.5055 22.0272 11.7941 22.3224C11.9385 22.47 12.1276 22.5437 12.3168 22.5437C12.5059 22.5437 12.6951 22.4699 12.8394 22.3224L20.2553 14.7403C20.544 14.4452 20.544 13.9667 20.2554 13.6716Z" fill="white"/>
<path d="M21.7027 12.9476C21.892 12.9476 22.0812 12.8736 22.2255 12.7261L22.2788 12.6717C22.5673 12.3764 22.5672 11.898 22.2784 11.6029C21.9898 11.3079 21.5217 11.3082 21.2331 11.6032L21.1798 11.6577C20.8913 11.9529 20.8914 12.4313 21.1802 12.7264C21.3246 12.8739 21.5136 12.9476 21.7027 12.9476Z" fill="white"/>
<path d="M16.1632 13.3107C16.1632 11.748 14.9198 10.4769 13.3915 10.4769C11.8631 10.4769 10.6198 11.7481 10.6198 13.3107C10.6198 14.8733 11.8631 16.1445 13.3915 16.1445C14.9198 16.1445 16.1632 14.8732 16.1632 13.3107ZM12.098 13.3107C12.098 12.5815 12.6783 11.9882 13.3915 11.9882C14.1046 11.9882 14.6849 12.5815 14.6849 13.3107C14.6849 14.0399 14.1046 14.6331 13.3915 14.6331C12.6783 14.6331 12.098 14.0399 12.098 13.3107Z" fill="white"/>
<path d="M20.6085 17.8555C19.0801 17.8555 17.8368 19.1267 17.8368 20.6893C17.8368 22.2519 19.0802 23.5231 20.6085 23.5231C22.1369 23.5231 23.3802 22.2519 23.3802 20.6893C23.3802 19.1267 22.1369 17.8555 20.6085 17.8555ZM20.6085 22.0117C19.8953 22.0117 19.3151 21.4184 19.3151 20.6893C19.3151 19.9602 19.8954 19.3669 20.6085 19.3669C21.3217 19.3669 21.902 19.9602 21.902 20.6893C21.902 21.4184 21.3218 22.0117 20.6085 22.0117Z" fill="white"/>
</svg>
