<svg width="27" height="34" viewBox="0 0 27 34" fill="none" xmlns="http://www.w3.org/2000/svg">
<path d="M12.9105 11.0734C12.5478 11.0734 12.2537 11.3707 12.2537 11.7374C12.2537 11.8127 12.1932 11.8739 12.1187 11.8739C11.756 11.8739 11.4619 12.1713 11.4619 12.538C11.4619 12.9047 11.756 13.2021 12.1187 13.2021C12.9174 13.2021 13.5672 12.545 13.5672 11.7374C13.5672 11.3707 13.2732 11.0734 12.9105 11.0734Z" fill="white"/>
<path d="M26.0164 26.0218C25.6812 25.8808 25.2971 26.0414 25.1579 26.38C23.6102 30.1434 19.08 32.6719 13.8852 32.6719C13.5678 32.6719 13.2515 32.6612 12.9365 32.6421L13.4069 29.6115C13.5658 29.6185 13.7252 29.6233 13.8852 29.6233C16.025 29.6233 18.044 28.9931 19.5705 27.849C21.1559 26.6606 22.0291 25.0619 22.0291 23.3473C22.0291 22.9807 21.735 22.6833 21.3723 22.6833C21.0097 22.6833 20.7156 22.9807 20.7156 23.3473C20.7156 25.1127 19.4324 26.6648 17.5064 27.5407C17.2665 25.4235 15.6197 23.7008 13.4876 23.4321C13.2892 23.4072 13.1049 23.3175 12.9684 23.1794C12.756 22.9647 12.6694 22.671 12.7309 22.3737C12.7924 22.0763 12.988 21.8422 13.2678 21.7315L14.4757 21.253C16.1081 20.6064 17.4275 19.4059 18.1907 17.8725C18.5488 17.1532 18.7732 16.3976 18.8619 15.6181C21.8286 16.6717 24.1434 18.6524 25.139 21.0285C25.2451 21.2816 25.4882 21.4337 25.7441 21.4337C25.8295 21.4337 25.9164 21.4167 26 21.3809C26.3339 21.2378 26.49 20.8481 26.3485 20.5104C25.7319 19.0391 24.6745 17.6727 23.2904 16.5591C22.5712 15.9805 21.7611 15.4694 20.8882 15.0377C21.8453 13.4765 22.2177 11.5507 21.9395 9.53144C21.6256 7.25283 20.5017 5.0365 18.7752 3.29078C16.9213 1.41624 14.5702 0.261398 12.1549 0.0390749C9.69504 -0.187365 7.4618 0.575758 5.8673 2.188C3.65081 4.42916 3.10079 7.90519 4.37046 11.2429C1.91249 11.5393 0 13.6588 0 16.2226C0 18.0477 0.969215 19.6478 2.41424 20.5256C2.32124 21.9028 2.43309 23.2214 2.74753 24.4573C1.92878 24.9566 1.38001 25.8646 1.38001 26.8997C1.38001 28.4714 2.64456 29.75 4.19892 29.75C4.71558 29.75 5.1998 29.6081 5.61656 29.3618C6.38041 30.068 7.25138 30.6425 8.21495 31.0753C8.24207 31.3924 8.32127 31.708 8.45525 32.011C8.83176 32.8622 9.56474 33.4591 10.4662 33.6487C11.5753 33.8818 12.7255 34 13.885 34C16.698 34 19.3785 33.3153 21.637 32.0201C23.8834 30.7319 25.5201 28.9579 26.3706 26.89C26.5099 26.5512 26.3513 26.1626 26.0164 26.0218ZM6.79613 3.12716C8.11007 1.7986 9.97087 1.17201 12.0359 1.36166C14.1458 1.55589 16.2093 2.57448 17.8464 4.22981C20.8478 7.26445 21.5888 11.5976 19.6674 14.5021C19.3806 14.3916 19.0891 14.2891 18.7933 14.1957C18.5363 13.4235 17.8632 12.8246 17.0622 12.7004C17.7006 10.9482 17.3264 8.90092 15.9371 7.49613L15.7584 7.31544C14.6631 6.20801 12.9522 5.9653 11.5977 6.72511C11.2756 6.90593 10.9105 7.00142 10.542 7.00142H8.98215C8.77817 7.00142 8.58574 7.09724 8.46142 7.26079C8.3371 7.42435 8.295 7.63698 8.34754 7.83626C8.68813 9.12982 8.31766 10.5209 7.38063 11.4666C7.38063 11.4666 7.15182 11.6991 7.13816 11.7158C6.72395 11.5104 6.27731 11.3626 5.80846 11.2806C4.46602 8.27904 4.84259 5.10237 6.79613 3.12716ZM9.79828 15.111C10.6098 15.6517 11.547 15.9222 12.4843 15.9222C13.176 15.9222 13.8674 15.7742 14.5085 15.4797C14.1434 16.7427 12.7051 17.8538 10.762 18.3007C10.3024 18.4063 9.79999 18.5367 9.28248 18.6829C9.68926 17.9554 9.92267 17.1163 9.92267 16.2226C9.9226 15.8406 9.87873 15.4688 9.79828 15.111ZM9.96036 13.5393L8.5646 12.128C9.45927 11.0775 9.88898 9.69878 9.76367 8.32964H10.542C11.1329 8.32964 11.7183 8.17638 12.235 7.88653C13.0796 7.41253 14.1465 7.56406 14.8296 8.25467L15.0083 8.43536C15.6825 9.11701 16.0537 10.0233 16.0537 10.9874C16.0537 11.9514 15.6825 12.8577 15.0083 13.5394C13.6166 14.9465 11.3521 14.9465 9.96036 13.5393ZM1.31348 16.2226C1.31348 14.1888 2.94987 12.5342 4.96127 12.5342C6.94895 12.5342 8.56926 14.1502 8.60735 16.1509C8.52703 16.3053 8.34735 16.3868 8.17581 16.336C7.82767 16.2333 7.46298 16.435 7.36112 16.787C7.25933 17.139 7.45904 17.5078 7.80718 17.6108C7.96381 17.657 8.12333 17.68 8.282 17.68C8.29205 17.68 8.3021 17.6792 8.31215 17.679C7.75247 18.9905 6.46139 19.911 4.96133 19.911C2.94987 19.911 1.31348 18.2564 1.31348 16.2226ZM4.19899 28.4219C3.36887 28.4219 2.69355 27.7391 2.69355 26.8997C2.69355 26.0603 3.36887 25.3775 4.19899 25.3775C5.02911 25.3775 5.70443 26.0603 5.70443 26.8997C5.70443 27.7391 5.02904 28.4219 4.19899 28.4219ZM8.59008 29.3932C8.53058 29.4972 8.47817 29.6035 8.43239 29.7116C7.75037 29.3714 7.12627 28.9465 6.56804 28.4415C6.85222 27.9967 7.01791 27.4676 7.01791 26.8997C7.01791 25.3281 5.75336 24.0494 4.19899 24.0494C4.13259 24.0494 4.06692 24.0526 4.00158 24.0571C3.76935 23.1161 3.66913 22.1175 3.70158 21.0748C4.10403 21.1817 4.52611 21.2391 4.96127 21.2391C5.59837 21.2391 6.2071 21.1157 6.76723 20.8936C8.10895 20.3939 9.76879 19.8909 11.0532 19.5957C12.3853 19.2894 13.5954 18.68 14.4605 17.8797C15.4111 17.0006 15.9134 15.9538 15.9134 14.8529C15.9134 14.6238 16.0023 14.4091 16.1637 14.2483C16.3249 14.0876 16.5356 14.0021 16.7654 14.0043C17.2085 14.0108 17.5947 14.4227 17.5919 14.8859C17.5869 15.7158 17.3936 16.5197 17.0174 17.2752C16.3999 18.5159 15.327 19.4893 13.9965 20.0162L12.7885 20.4947C12.0988 20.7679 11.5966 21.3687 11.4451 22.1019C11.2935 22.835 11.5158 23.5889 12.0395 24.1183C12.3816 24.4643 12.8382 24.6886 13.3252 24.7499C14.9522 24.9549 16.1845 26.3436 16.2224 27.9965C15.4929 28.1895 14.7057 28.295 13.8851 28.295C13.1432 28.295 12.4135 28.2086 11.7163 28.0382C10.5023 27.7417 9.21667 28.2988 8.59008 29.3932ZM11.628 32.5067C11.3272 32.4624 11.0287 32.4103 10.7337 32.3483C10.2501 32.2467 9.85673 31.9261 9.65439 31.4688C9.4508 31.0085 9.47727 30.4946 9.72683 30.0587C10.064 29.4697 10.7551 29.1701 11.4077 29.3294C11.6354 29.385 11.8662 29.4319 12.099 29.4718L11.628 32.5067Z" fill="white"/>
<path d="M6.76723 20.8936C6.77676 20.8905 6.75778 20.8971 6.76723 20.8936Z" fill="white"/>
<path d="M26.3415 23.0629C25.9788 23.0629 25.6847 23.3603 25.6847 23.727C25.6847 24.0937 25.9788 24.3911 26.3415 24.3911H26.345C26.7076 24.3911 27 24.0937 27 23.727C27 23.3603 26.7041 23.0629 26.3415 23.0629Z" fill="white"/>
</svg>
