<svg width="18" height="34" viewBox="0 0 18 34" fill="none" xmlns="http://www.w3.org/2000/svg">
<path d="M5.5226 12.1428L5.58182 12.1164V12.0515V7.66374V7.59133L5.51303 7.56873C5.22326 7.47355 5.00909 7.18839 5.00909 6.84721V3.85156C5.00909 3.5103 5.22326 3.22521 5.51305 3.12994L5.58182 3.10733V3.03494V0.855901C5.58182 0.434127 5.90762 0.1 6.3 0.1H11.7C12.0925 0.1 12.4182 0.43412 12.4182 0.855901V3.03494V3.10735L12.487 3.12995C12.7767 3.22513 12.9909 3.51028 12.9909 3.85156V6.84721C12.9909 7.18847 12.7767 7.47354 12.487 7.56873L12.4182 7.59133V7.66374V12.0514V12.1163L12.4774 12.1427C15.7418 13.6007 17.9 16.971 17.9 20.7129V31.4811C17.9 32.8191 16.8603 33.9 15.592 33.9H2.40799C1.13959 33.9 0.1 32.8191 0.1 31.4811V20.7129C0.1 16.971 2.25825 13.6008 5.5226 12.1428ZM10.9818 1.7118V1.6118H10.8818H7.11818H7.01818V1.7118V2.99565V3.09565H7.11818H10.8818H10.9818V2.99565V1.7118ZM11.5545 4.70746V4.60746H11.4545H6.54545H6.44545V4.70746V5.99131V6.09131H6.54545H11.4545H11.5545V5.99131V4.70746ZM7.11818 7.60311H7.01818V7.70311V10.3532V10.4532H7.11818H10.8818H10.9818V10.3532V7.70311V7.60311H10.8818H7.11818ZM10.9819 12.0649V11.9649H10.8819H7.11826H7.01826V12.0649V12.6363C7.01826 12.9597 6.82333 13.2443 6.53737 13.3497C3.54412 14.4531 1.53645 17.4132 1.53645 20.7129V31.4811C1.53645 31.9771 1.92302 32.3882 2.40799 32.3882H15.5921C16.077 32.3882 16.4637 31.9771 16.4637 31.4811V20.7129C16.4637 17.4132 14.456 14.4531 11.4628 13.3497C11.1768 13.2443 10.9819 12.9597 10.9819 12.6363V12.0649ZM9.00361 13.7064L9.00482 13.7064C9.20174 13.7026 9.39561 13.7906 9.53368 13.9462L9.5337 13.9463C10.1442 14.634 11.651 16.4644 12.4851 18.6267C13.059 20.1146 13.1287 21.2939 12.9452 22.217C12.7617 23.14 12.3234 23.8144 11.869 24.2897C11.1041 25.0899 10.0886 25.5294 9.009 25.5294C7.92928 25.5294 6.91388 25.0899 6.14901 24.2897C5.69361 23.8133 5.25295 23.1412 5.06335 22.2286C4.87379 21.3161 4.93359 20.1556 5.49134 18.6998C6.25846 16.6974 7.68944 14.8688 8.47694 13.9546C8.61242 13.7973 8.80374 13.7079 9.00361 13.7064ZM11.1542 19.1953L11.0609 19.2313L11.1542 19.1953C10.6138 17.7944 9.72268 16.5146 9.09409 15.7125L9.01486 15.6114L8.93628 15.713C8.28053 16.561 7.34583 17.9095 6.81755 19.3034C6.29102 20.6928 6.15541 22.165 7.16151 23.2174C7.65401 23.7327 8.31041 24.0175 9.009 24.0175C9.70759 24.0175 10.364 23.7327 10.8565 23.2174C11.7409 22.2924 11.8218 20.926 11.1542 19.1953ZM8.57013 29.4321H8.58944C8.98189 29.4321 9.30762 29.7662 9.30762 30.188C9.30762 30.6098 8.98189 30.9439 8.58944 30.9439H8.57013C8.17775 30.9439 7.85195 30.6098 7.85195 30.188C7.85195 29.7662 8.17775 29.4321 8.57013 29.4321ZM10.9401 29.4319H14.2976C14.69 29.4319 15.0157 29.766 15.0157 30.1878C15.0157 30.6096 14.69 30.9437 14.2976 30.9437H10.9401C10.5477 30.9437 10.222 30.6096 10.222 30.1878C10.222 29.766 10.5477 29.4319 10.9401 29.4319Z" fill="white" stroke="#3498DB" stroke-width="0.2"/>
</svg>
