<svg width="27" height="34" viewBox="0 0 27 34" fill="none" xmlns="http://www.w3.org/2000/svg">
<path d="M16.3609 19.2911H3.24668C2.89163 19.2911 2.60382 19.5884 2.60382 19.9551V30.7793C2.60382 31.146 2.89169 31.4434 3.24668 31.4434H16.3609C16.7159 31.4434 17.0038 31.146 17.0038 30.7793V19.9551C17.0038 19.5884 16.716 19.2911 16.3609 19.2911ZM3.8894 20.6191H15.7181V26.0307H13.8022L12.7563 23.8326C12.6488 23.6067 12.4268 23.463 12.1831 23.4615C12.1819 23.4615 12.1806 23.4615 12.1793 23.4615C11.9371 23.4615 11.7152 23.6022 11.6057 23.8257L10.3657 26.3568L8.52864 22.6067C8.41922 22.3833 8.19744 22.2426 7.95502 22.2426C7.7126 22.2426 7.49088 22.3833 7.3814 22.6067L5.70399 26.0307H3.8894V20.6191ZM15.7181 30.1153H3.8896V27.3589H6.09935C6.34171 27.3589 6.56349 27.2181 6.67297 26.9947L7.95514 24.3774L9.79223 28.1275C9.90165 28.3509 10.1234 28.4917 10.3659 28.4917C10.6082 28.4917 10.83 28.3509 10.9395 28.1275L12.1711 25.6135L12.825 26.9878C12.9332 27.215 13.1569 27.3589 13.402 27.3589H15.7181V30.1153Z" fill="white"/>
<path d="M21.359 19.2909C19.9589 19.2909 18.8197 20.4677 18.8197 21.914C18.8197 23.3603 19.9589 24.537 21.359 24.537C22.7591 24.537 23.8982 23.3603 23.8982 21.914C23.8982 20.4677 22.7592 19.2909 21.359 19.2909ZM21.359 23.2089C20.6678 23.2089 20.1054 22.628 20.1054 21.914C20.1054 21.2 20.6678 20.6191 21.359 20.6191C22.0502 20.6191 22.6125 21.2 22.6125 21.914C22.6125 22.628 22.0502 23.2089 21.359 23.2089Z" fill="white"/>
<path d="M23.609 27.459H23.5938C23.2388 27.459 22.951 27.7563 22.951 28.1231C22.951 28.4898 23.2388 28.7871 23.5938 28.7871H23.609C23.964 28.7871 24.2519 28.4898 24.2519 28.1231C24.2519 27.7563 23.9641 27.459 23.609 27.459Z" fill="white"/>
<path d="M21.7468 27.4589H19.1089C18.7539 27.4589 18.4661 27.7562 18.4661 28.1229C18.4661 28.4896 18.7539 28.787 19.1089 28.787H21.7468C22.1018 28.787 22.3897 28.4896 22.3897 28.1229C22.3897 27.7562 22.1019 27.4589 21.7468 27.4589Z" fill="white"/>
<path d="M19.1241 30.1152H19.1089C18.7539 30.1152 18.4661 30.4125 18.4661 30.7793C18.4661 31.1461 18.7539 31.4434 19.1089 31.4434H19.1241C19.479 31.4434 19.7669 31.146 19.7669 30.7793C19.7669 30.4125 19.4791 30.1152 19.1241 30.1152Z" fill="white"/>
<path d="M23.609 30.1151H20.9711C20.6161 30.1151 20.3283 30.4125 20.3283 30.7792C20.3283 31.1459 20.6161 31.4432 20.9711 31.4432H23.609C23.964 31.4432 24.2519 31.1459 24.2519 30.7792C24.2519 30.4125 23.9641 30.1151 23.609 30.1151Z" fill="white"/>
<path d="M15.9464 15.0665H21.0498C22.2039 15.0665 23.1429 14.0702 23.1429 12.8457V11.9531H25.0714C26.1348 11.9531 27 11.0594 27 9.9609V1.99218C27 0.893692 26.1348 0 25.0714 0H19.9286C18.8652 0 18 0.893692 18 1.99218V9.9609C18 11.0594 18.8652 11.9531 19.9286 11.9531H21.8572V12.8456C21.8572 13.3379 21.495 13.7383 21.0498 13.7383H15.9464C14.7923 13.7383 13.8533 14.7082 13.8533 15.9004V16.7344H13.1465V15.9004C13.1465 14.7083 12.2076 13.7383 11.0535 13.7383H5.95021C5.50503 13.7383 5.14284 13.3379 5.14284 12.8456V11.9531H7.07141C8.13482 11.9531 8.99991 11.0594 8.99991 9.9609V1.99218C8.99991 0.893692 8.13482 0 7.07141 0H1.9285C0.865091 0 0 0.893692 0 1.99218V9.9609C0 11.0594 0.865091 11.9531 1.9285 11.9531H3.85713V12.8456C3.85713 14.0702 4.79602 15.0665 5.95021 15.0665H11.0536C11.4987 15.0665 11.8609 15.4406 11.8609 15.9004V16.7344H1.92857C0.865155 16.7344 0 17.6281 0 18.7265V32.0078C0 33.1063 0.865155 34 1.92857 34H25.0714C26.1348 34 26.9999 33.1063 26.9999 32.0078V18.7265C26.9999 17.6281 26.1348 16.7344 25.0714 16.7344H15.1391V15.9004C15.1391 15.4407 15.5013 15.0665 15.9464 15.0665ZM21.2143 3.98436C20.8593 3.98436 20.5714 4.28173 20.5714 4.64842V10.625H19.9286C19.5741 10.625 19.2857 10.3271 19.2857 9.9609V1.99218C19.2857 1.62602 19.5741 1.32812 19.9286 1.32812H25.0714C25.4259 1.32812 25.7143 1.62602 25.7143 1.99218V9.9609C25.7143 10.3271 25.4259 10.625 25.0714 10.625H24.4286V4.64842C24.4286 4.28173 24.1407 3.98436 23.7857 3.98436H21.2143ZM21.8572 10.625V5.31248H23.1429V10.625H21.8572ZM3.21434 3.98436C2.85936 3.98436 2.57149 4.28173 2.57149 4.64842V10.625H1.9285C1.5741 10.625 1.28571 10.3271 1.28571 9.9609V1.99218C1.28571 1.62602 1.57403 1.32812 1.9285 1.32812H7.07141C7.42588 1.32812 7.7142 1.62602 7.7142 1.99218V9.9609C7.7142 10.3271 7.42588 10.625 7.07141 10.625H6.42856V4.64842C6.42856 4.28173 6.14069 3.98436 5.7857 3.98436H3.21434ZM3.85713 10.625V5.31248H5.14284V10.625H3.85713ZM25.0714 18.0626C25.4259 18.0626 25.7143 18.3604 25.7143 18.7265V32.0078C25.7143 32.374 25.4259 32.6719 25.0714 32.6719H1.92863C1.57416 32.6719 1.28578 32.374 1.28578 32.0078V18.7265C1.28578 18.3604 1.57416 18.0626 1.92863 18.0626H25.0714Z" fill="white"/>
</svg>
