<svg width="36" height="34" viewBox="0 0 36 34" fill="none" xmlns="http://www.w3.org/2000/svg">
<path d="M18.1239 3.10397C18.0277 2.73385 17.6454 2.51032 17.2686 2.60482C15.7523 2.98588 14.4909 3.92211 13.717 5.24106C13.5228 5.57195 13.638 5.995 13.9744 6.18601C14.0851 6.2489 14.206 6.27885 14.3252 6.27885C14.5682 6.27885 14.8046 6.15474 14.9348 5.9328C15.5177 4.93922 16.4702 4.23336 17.6166 3.94536C17.9928 3.85092 18.2199 3.47423 18.1239 3.10397Z" fill="white"/>
<path d="M19.6575 2.50499C19.647 2.50313 19.6363 2.5014 19.6251 2.49974C19.2418 2.4419 18.8855 2.70057 18.826 3.07761C18.7667 3.45396 19.0299 3.80678 19.4115 3.86718C19.4521 3.87417 19.4926 3.87749 19.5326 3.87749C19.8658 3.87749 20.1617 3.64331 20.2235 3.30937C20.2929 2.93344 20.0395 2.57335 19.6575 2.50499Z" fill="white"/>
<path d="M32.4116 20.2375C31.894 20.092 31.3343 19.9631 30.7409 19.8516C30.7074 19.843 30.6731 19.8369 30.6385 19.8333C28.9088 19.516 26.9003 19.3453 24.8063 19.3453C23.6462 19.3453 22.5131 19.3983 21.438 19.4988L25.7826 12.0952C26.8731 10.2366 27.1609 8.06415 26.5927 5.97784C26.0245 3.89167 24.6712 2.15182 22.7823 1.07888C18.8683 -1.14448 13.8456 0.179522 11.586 4.03052L6.34185 12.9673C6.34135 12.968 6.34079 12.9686 6.34037 12.9694C6.33995 12.9702 6.3396 12.9709 6.33917 12.9717L1.09498 21.9088C0.00435719 23.7673 -0.283292 25.9398 0.284834 28.0261C0.85296 30.1123 2.2062 31.8522 4.09515 32.9251C5.34495 33.635 6.74846 34 8.17201 34C8.77178 34 9.3752 33.9352 9.97202 33.8041C11.5603 33.4552 12.9882 32.6633 14.0954 31.5346C14.6519 32.1585 15.6875 32.6859 17.1948 33.1096C19.2373 33.6837 21.9403 33.9999 24.806 33.9999C27.6717 33.9999 30.3747 33.6837 32.4171 33.1096C34.7943 32.4413 35.9997 31.5159 35.9997 30.359V22.9904C35.9999 22.989 36 22.9877 36 22.9862C36.0001 21.8316 34.7927 20.9068 32.4116 20.2375ZM24.8064 20.7288C25.9132 20.7288 26.9914 20.7786 28.0119 20.8728L19.08 24.7515C18.5502 24.6503 18.0499 24.5347 17.5874 24.4047C15.4802 23.8123 15.0188 23.1799 15.0188 22.9861C15.0188 22.7924 15.4802 22.16 17.5874 21.5675C19.5115 21.0267 22.0753 20.7288 24.8064 20.7288ZM12.8036 4.72233C14.6757 1.53202 18.8367 0.435148 22.0792 2.27704C23.6428 3.16526 24.7634 4.6068 25.2344 6.336C25.7054 8.06526 25.4676 9.86488 24.5649 11.4034L19.689 19.7126C19.67 19.7155 19.6513 19.7188 19.6323 19.7217L7.90975 13.0622L12.8036 4.72233ZM13.6125 22.9826C13.6125 22.9839 13.6123 22.985 13.6123 22.9864V29.9633C11.573 32.6204 7.74627 33.4016 4.79834 31.7269C3.23466 30.8387 2.11409 29.3971 1.64313 27.6679C1.17218 25.9387 1.41005 24.1391 2.31272 22.6005L7.20669 14.2603L17.559 20.1415C17.4377 20.1727 17.3179 20.2045 17.2009 20.2374C14.8223 20.9061 13.6151 21.8298 13.6125 22.9826ZM34.5938 30.359C34.5938 30.5537 34.1334 31.1884 32.0311 31.7793C30.1108 32.3192 27.5449 32.6165 24.8062 32.6165C22.0676 32.6165 19.5016 32.3192 17.5813 31.7793C15.4789 31.1884 15.0186 30.5537 15.0186 30.359V24.8753C15.5796 25.1969 16.3077 25.4839 17.201 25.7351C17.7527 25.8902 18.3533 26.0258 18.9903 26.1421C19.0213 26.1498 19.0526 26.1556 19.0845 26.159C20.7891 26.4634 22.7565 26.6272 24.8063 26.6272C27.6643 26.6272 30.3653 26.3104 32.4116 25.7351C33.3047 25.4841 34.0327 25.1971 34.5938 24.8755V30.359ZM34.5938 22.9864V22.9882C34.5909 23.1841 34.126 23.8143 32.0254 24.4049C30.1012 24.9457 27.5374 25.2437 24.8063 25.2437C23.7472 25.2437 22.714 25.1984 21.7327 25.112L30.6425 21.2428C31.1314 21.3388 31.5951 21.4469 32.0253 21.5678C34.1288 22.159 34.5921 22.7903 34.5939 22.9852C34.5939 22.9856 34.5938 22.9859 34.5938 22.9864Z" fill="white"/>
</svg>
