<svg width="26" height="8" viewBox="0 0 26 8" fill="none" xmlns="http://www.w3.org/2000/svg">
<path d="M7 4C7 5.65685 5.65685 7 4 7C2.34315 7 1 5.65685 1 4C1 2.34315 2.34315 1 4 1C5.65685 1 7 2.34315 7 4Z" stroke="white"/>
<path d="M16 4C16 5.65685 14.6569 7 13 7C11.3431 7 10 5.65685 10 4C10 2.34315 11.3431 1 13 1C14.6569 1 16 2.34315 16 4Z" stroke="white"/>
<path d="M25 4C25 5.65685 23.6569 7 22 7C20.3431 7 19 5.65685 19 4C19 2.34315 20.3431 1 22 1C23.6569 1 25 2.34315 25 4Z" stroke="white"/>
</svg>
