<svg width="25" height="34" viewBox="0 0 25 34" fill="none" xmlns="http://www.w3.org/2000/svg">
<path d="M20.752 12.0465C20.5512 11.9248 20.3464 11.7995 20.1375 11.664L20.1384 9.91664H20.1389C20.5227 9.91664 20.8333 9.59982 20.8333 9.20829V4.95829C20.8333 2.22461 18.6523 0 15.9722 0H8.33333C7.56699 0 6.94447 0.635707 6.94447 1.41664H5.5556C4.78926 1.41664 4.16673 2.05235 4.16673 2.83329V4.25C4.16673 5.03094 4.78932 5.66664 5.5556 5.66664H6.94447C6.94447 6.44758 7.56706 7.08329 8.33333 7.08329H9.11908L7.06107 10.2321C6.91862 10.4493 6.90508 10.7287 7.02715 10.9591C7.14785 11.1895 7.38249 11.3333 7.63887 11.3333H9.02773C9.17832 11.3333 9.3248 11.2835 9.44414 11.1915L13.8889 7.79131V9.20836C13.8889 9.59989 14.1995 9.91671 14.5833 9.91671V11.6682L14.5101 11.72C11.9412 13.5054 9.7222 15.048 9.7222 26.2084V31.1667C9.7222 32.7293 10.9687 34 12.5 34H22.2222C23.7535 34 25 32.7293 25 31.1666V26.2083C25 15.1939 23.3859 13.6513 20.752 12.0465ZM6.94447 4.25H5.5556V2.83336H6.94447V4.25ZM9.07663 9.70222L10.7883 7.08329H12.5004L9.07663 9.70222ZM8.33333 5.66664V1.41664H15.9722C17.8874 1.41664 19.4444 3.00555 19.4444 4.95829V8.5H15.2777V6.375C15.2777 5.98347 14.9671 5.66664 14.5833 5.66664H8.33333ZM15.2913 12.8904L15.6725 12.6242C15.861 12.492 15.9722 12.2741 15.9722 12.0417V9.91671H18.75L18.7486 12.0424C18.7486 12.2755 18.8598 12.4927 19.0484 12.6255C19.3861 12.8642 19.7171 13.0668 20.0398 13.2633C21.6719 14.2574 23.0222 15.0884 23.4601 21.25H11.297C11.8206 15.3038 13.3939 14.2093 15.2913 12.8904ZM23.6111 31.1666C23.6111 31.9476 22.9885 32.5833 22.2223 32.5833H12.5C11.7337 32.5833 11.1111 31.9476 11.1111 31.1666V29.75H23.6111V31.1666ZM11.1111 28.3334V26.2084C11.1111 24.8861 11.1415 23.7139 11.1983 22.6667H23.5413C23.5868 23.7127 23.6112 24.8847 23.6112 26.2084V28.3334H11.1111Z" fill="white"/>
<path d="M2.7778 3.54164C2.7778 3.15011 2.46719 2.83329 2.08333 2.83329H0.694466C0.310612 2.83336 0 3.15018 0 3.54164C0 3.93318 0.310612 4.25 0.694466 4.25H2.08333C2.46719 4.25 2.7778 3.93318 2.7778 3.54164Z" fill="white"/>
<path d="M1.07832 1.34194L2.46589 2.05029C2.56491 2.10076 2.67207 2.125 2.7765 2.125C3.03014 2.125 3.27565 1.98183 3.39772 1.73347C3.56862 1.38417 3.43027 0.958043 3.08711 0.782996L1.69948 0.074707C1.36172 -0.0975508 0.939909 0.0408398 0.767643 0.391531C0.59681 0.740828 0.735157 1.16696 1.07832 1.34194Z" fill="white"/>
<path d="M2.46719 5.03306L1.07832 5.74135C0.735156 5.91633 0.59681 6.3418 0.767708 6.69182C0.889778 6.94018 1.13529 7.08335 1.38893 7.08335C1.49336 7.08335 1.59915 7.05912 1.69954 7.00865L3.08841 6.30029C3.43158 6.12531 3.56992 5.69985 3.39902 5.34982C3.22676 4.99986 2.81172 4.86014 2.46719 5.03306Z" fill="white"/>
</svg>
